<svg width="62" height="62" viewBox="0 0 62 62" fill="none" xmlns="http://www.w3.org/2000/svg">
<g clip-path="url(#clip0_1_4897)">
<circle cx="31" cy="31" r="28" fill="#D9D9D9"/>
<path fill-rule="evenodd" clip-rule="evenodd" d="M31 0C48.1198 0 62 13.8758 62 30.9955C62 48.1153 48.1199 61.9964 31 61.9964C13.8801 61.9964 0 48.1154 0 30.9955C0 13.8756 13.8793 0 31 0ZM28.4251 17.8399C28.9522 18.3687 29.6297 18.722 30.365 18.8518V21.3969H31.6355V18.8518C32.4388 18.71 33.1713 18.3028 33.7158 17.6953C34.2602 17.0879 34.5851 16.3153 34.6383 15.5013C34.6916 14.6874 34.4702 13.879 34.0096 13.2058C33.549 12.5326 32.8758 12.0334 32.0978 11.7881C31.3198 11.5429 30.4821 11.5658 29.7186 11.8531C28.9552 12.1405 28.3103 12.6757 27.8871 13.3731C27.4639 14.0705 27.287 14.8897 27.3847 15.6995C27.4823 16.5094 27.8483 17.2631 28.4251 17.8399ZM46.988 27.497V39.5822H47.9023C48.4123 39.5803 48.9009 39.3768 49.2614 39.0161C49.622 38.6554 49.8253 38.1668 49.8269 37.6568V29.4224C49.8252 28.9124 49.6219 28.4238 49.2614 28.0631C48.9008 27.7024 48.4123 27.4989 47.9023 27.497H46.988ZM15.0115 39.5822V27.497H14.0975C13.5876 27.4991 13.0991 27.7026 12.7386 28.0633C12.3781 28.4239 12.1748 28.9125 12.1729 29.4224V37.6568C12.1748 38.1667 12.3781 38.6553 12.7386 39.0159C13.0991 39.3766 13.5876 39.5801 14.0975 39.5822H15.0115ZM41.9406 22.6677H20.0589C19.0583 22.6708 18.0995 23.0697 17.392 23.7773C16.6845 24.4849 16.2857 25.4437 16.2826 26.4443V40.6342C16.286 41.6348 16.685 42.5934 17.3924 43.301C18.0998 44.0087 19.0584 44.4078 20.0589 44.4115H27.1938V44.4137C27.305 44.4137 27.4143 44.4431 27.5106 44.4989C27.6068 44.5547 27.6866 44.635 27.7419 44.7315L28.4312 45.9244C28.438 45.935 28.4448 45.9455 28.4509 45.9569L31.0006 50.3731L34.2286 44.7823C34.2792 44.6717 34.3605 44.5779 34.4629 44.5122C34.5652 44.4464 34.6843 44.4115 34.806 44.4115H41.9406C42.9412 44.4079 43.8998 44.0087 44.6072 43.301C45.3147 42.5934 45.7136 41.6347 45.717 40.6341V26.4443C45.714 25.4437 45.3151 24.4849 44.6076 23.7773C43.9 23.0697 42.9412 22.6708 41.9406 22.6677ZM26.107 37.6787C26.5735 38.5731 27.2764 39.3225 28.139 39.8455C29.0017 40.3684 29.9911 40.6449 30.9999 40.6449C32.0087 40.6449 32.9982 40.3684 33.8609 39.8455C34.7235 39.3225 35.4263 38.5731 35.8929 37.6787C35.9706 37.53 35.986 37.3566 35.9358 37.1966C35.8856 37.0366 35.7739 36.903 35.6253 36.8253C35.4766 36.7477 35.3032 36.7322 35.1432 36.7824C34.9832 36.8326 34.8496 36.9443 34.7719 37.093C34.4122 37.7823 33.8703 38.36 33.2053 38.763C32.5403 39.1661 31.7775 39.3792 30.9999 39.3792C30.2222 39.3792 29.4595 39.1661 28.7945 38.763C28.1294 38.36 27.5876 37.7823 27.2278 37.093C27.1896 37.019 27.1371 36.9533 27.0734 36.8997C27.0097 36.846 26.9361 36.8055 26.8567 36.7804C26.7773 36.7553 26.6937 36.7462 26.6107 36.7535C26.5278 36.7608 26.4471 36.7844 26.3733 36.823C26.2995 36.8615 26.2341 36.9143 26.1807 36.9782C26.1274 37.0422 26.0872 37.116 26.0625 37.1955C26.0377 37.275 26.029 37.3587 26.0366 37.4416C26.0443 37.5245 26.0681 37.6051 26.107 37.6787ZM38.7437 28.2939C38.0547 28.2941 37.3871 28.5332 36.8547 28.9704C36.3222 29.4077 35.9578 30.016 35.8236 30.6918C35.6894 31.3675 35.7936 32.0689 36.1185 32.6765C36.4434 33.284 36.969 33.7601 37.6056 34.0236C38.2422 34.2871 38.9504 34.3218 39.6097 34.1216C40.269 33.9215 40.8384 33.4989 41.2211 32.926C41.6037 32.353 41.7759 31.6651 41.7082 30.9795C41.6406 30.2939 41.3373 29.6529 40.85 29.1658C40.5737 28.8888 40.2454 28.6691 39.8839 28.5195C39.5224 28.3698 39.1349 28.2932 38.7437 28.2939ZM39.9519 30.0641C39.6724 29.7844 39.3046 29.6103 38.9111 29.5714C38.5176 29.5326 38.1228 29.6313 37.794 29.8509C37.4652 30.0705 37.2228 30.3973 37.1079 30.7756C36.9931 31.154 37.013 31.5604 37.1642 31.9257C37.3155 32.2911 37.5887 32.5926 37.9374 32.779C38.2861 32.9654 38.6886 33.0252 39.0764 32.9481C39.4642 32.871 39.8132 32.6618 40.0641 32.3561C40.3149 32.0505 40.452 31.6674 40.452 31.272C40.4522 31.0476 40.4082 30.8254 40.3223 30.6182C40.2365 30.4109 40.1106 30.2226 39.9519 30.0641ZM23.2558 28.2939C22.5666 28.2938 21.8986 28.5327 21.3657 28.9699C20.8329 29.407 20.4681 30.0155 20.3336 30.6915C20.1991 31.3675 20.3032 32.0692 20.6281 32.6771C20.953 33.2849 21.4786 33.7613 22.1154 34.025C22.7522 34.2888 23.4608 34.3235 24.1203 34.1234C24.7799 33.9232 25.3496 33.5005 25.7324 32.9274C26.1152 32.3542 26.2875 31.6661 26.2197 30.9801C26.152 30.2942 25.8485 29.653 25.361 29.1658C25.0848 28.889 24.7567 28.6694 24.3954 28.5198C24.0341 28.3702 23.6469 28.2934 23.2558 28.2939ZM24.4636 30.0641C24.1841 29.7844 23.8163 29.6103 23.4228 29.5714C23.0294 29.5326 22.6346 29.6313 22.3058 29.8509C21.977 30.0705 21.7345 30.3973 21.6196 30.7756C21.5048 31.154 21.5247 31.5604 21.6759 31.9257C21.8272 32.2911 22.1004 32.5926 22.4491 32.779C22.7978 32.9654 23.2003 33.0252 23.5881 32.9481C23.9759 32.871 24.325 32.6618 24.5758 32.3561C24.8266 32.0505 24.9637 31.6674 24.9637 31.272C24.9639 31.0477 24.9198 30.8255 24.834 30.6183C24.7482 30.411 24.6223 30.2226 24.4636 30.0641Z" fill="#C39730"/>
</g>
<defs>
<clipPath id="clip0_1_4897">
<rect width="62" height="62" fill="white"/>
</clipPath>
</defs>
</svg>
