<svg width="60" height="60" viewBox="0 0 60 60" fill="none" xmlns="http://www.w3.org/2000/svg">
<g clip-path="url(#clip0_520_8234)">
<path d="M34.8413 58.125H1.875V9.375H8.4375C8.95523 9.375 9.375 8.95523 9.375 8.4375V1.875H45V19.6867C45 20.2044 45.4198 20.6242 45.9375 20.6242C46.4552 20.6242 46.875 20.2044 46.875 19.6867V0.9375C46.875 0.419766 46.4552 0 45.9375 0H8.4375C8.18883 0 7.95047 0.0987891 7.77457 0.27457L0.27457 7.77457C0.0987891 7.95035 0 8.18883 0 8.4375V59.0625C0 59.5802 0.419766 60 0.9375 60H34.8413C35.359 60 35.7788 59.5802 35.7788 59.0625C35.7788 58.5448 35.359 58.125 34.8413 58.125ZM3.20074 7.5L7.5 3.20074V7.5H3.20074Z" fill="white"/>
<path d="M56.5462 21.5506C54.9481 20.6281 53.0866 20.383 51.3044 20.8605C49.5221 21.3381 48.0324 22.4811 47.1099 24.0791C46.5757 25.004 46.2692 26.01 46.1986 27.069C46.1982 27.0767 46.1977 27.0853 46.1973 27.093C46.1955 27.1364 45.9923 31.4619 43.8879 35.1068C42.3266 37.8109 39.6544 39.3601 38.7386 39.8321C37.9623 39.5579 37.2152 39.3349 36.5126 39.1711C34.6203 38.7294 32.177 38.5278 31.2848 40.0729L27.7523 46.1915C26.8602 47.7366 28.2565 49.7517 29.5851 51.1699C31.2177 52.9131 33.6433 54.7543 36.4149 56.3544C39.1865 57.9547 41.9938 59.1347 44.3198 59.6771C45.0863 59.8558 45.9432 59.9953 46.7507 59.9953C47.8776 59.9953 48.9074 59.7227 49.4627 58.9075C49.4838 58.8791 49.5043 58.8499 49.5224 58.8185L49.5473 58.7755L49.5475 58.7751L49.5477 58.7747L53.0801 52.6565C53.9722 51.1114 52.5759 49.0965 51.2473 47.6782C50.7693 47.1678 50.2216 46.649 49.6188 46.1304C49.5687 45.117 49.5658 42.0099 51.1353 39.2912C53.2398 35.6462 56.8852 33.3068 56.9212 33.2839C56.9283 33.2795 56.9352 33.2749 56.9424 33.2702C57.8236 32.6797 58.5409 31.9115 59.0745 30.9872C60.9791 27.6886 59.8449 23.4553 56.5462 21.5506ZM47.9238 57.8376C47.8239 58.0102 47.0267 58.3828 44.7455 57.8511C42.5943 57.3494 39.9686 56.2413 37.3523 54.7307C34.7359 53.2201 32.4634 51.5005 30.9534 49.8882C29.3522 48.1788 29.2762 47.3016 29.3758 47.129C29.4372 47.0227 29.7633 46.8405 30.538 46.8405C31.021 46.8405 31.6782 46.9113 32.554 47.1157C34.7052 47.6172 37.3309 48.7254 39.9473 50.2359C42.5636 51.7466 44.8362 53.4663 46.3462 55.0784C47.9473 56.7879 48.0234 57.665 47.9238 57.8376ZM51.4564 51.719L49.169 55.6809C48.7689 55.0039 48.2369 54.3541 47.7148 53.7966C46.0822 52.0536 43.6566 50.2123 40.885 48.6122C38.1134 47.012 35.3061 45.8319 32.9801 45.2895C32.2362 45.1161 31.4075 44.9803 30.6211 44.9723L32.9085 41.0103C33.0084 40.8377 33.8055 40.4648 36.0868 40.997C38.2379 41.4985 40.8636 42.6066 43.48 44.1172C46.0963 45.6279 48.3689 47.3476 49.8789 48.9597C51.48 50.6691 51.5561 51.5463 51.4565 51.7189L51.4564 51.719ZM57.4507 30.0495C57.0636 30.7203 56.5444 31.2778 55.9075 31.7065C55.6181 31.8911 51.8123 34.3688 49.5115 38.3536C48.2155 40.5984 47.8368 43.006 47.7491 44.6534C46.725 43.9071 45.6033 43.1782 44.4175 42.4934C43.2529 41.8211 42.0824 41.2242 40.9437 40.7163C42.3262 39.8161 44.2178 38.2855 45.5118 36.0441C47.8128 32.0586 48.0551 27.5241 48.0702 27.1827C48.123 26.4164 48.3461 25.6877 48.7338 25.0165C49.4058 23.8522 50.4911 23.0195 51.7897 22.6715C53.0882 22.3235 54.4445 22.5021 55.6088 23.1744C58.0122 24.562 58.8386 27.6461 57.4509 30.0495H57.4507Z" fill="white"/>
<path d="M41.4302 33.1962C41.4302 32.6784 41.0104 32.2587 40.4927 32.2587H6.82227C6.30453 32.2587 5.88477 32.6784 5.88477 33.1962C5.88477 33.7139 6.30453 34.1337 6.82227 34.1337H40.4927C41.0104 34.1337 41.4302 33.7139 41.4302 33.1962Z" fill="white"/>
<path d="M27.5402 39.3817C27.5402 38.864 27.1204 38.4442 26.6027 38.4442H6.82227C6.30453 38.4442 5.88477 38.864 5.88477 39.3817C5.88477 39.8994 6.30453 40.3192 6.82227 40.3192H26.6027C27.1204 40.3192 27.5402 39.8994 27.5402 39.3817Z" fill="white"/>
<path d="M6.82227 46.5045H23.6575C24.1753 46.5045 24.595 46.0848 24.595 45.567C24.595 45.0493 24.1753 44.6295 23.6575 44.6295H6.82227C6.30453 44.6295 5.88477 45.0493 5.88477 45.567C5.88477 46.0848 6.30453 46.5045 6.82227 46.5045Z" fill="white"/>
<path d="M6.82227 52.9014H25.4641C25.9818 52.9014 26.4016 52.4816 26.4016 51.9639C26.4016 51.4461 25.9818 51.0264 25.4641 51.0264H6.82227C6.30453 51.0264 5.88477 51.4461 5.88477 51.9639C5.88477 52.4816 6.30453 52.9014 6.82227 52.9014Z" fill="white"/>
<path d="M33.8745 17.7328C33.8745 12.0999 29.2919 7.51721 23.6589 7.51721C18.026 7.51721 13.4434 12.0998 13.4434 17.7328C13.4434 23.3658 18.026 27.9484 23.6589 27.9484C29.2919 27.9484 33.8745 23.3658 33.8745 17.7328ZM15.3184 17.7328C15.3184 13.1338 19.0599 9.39221 23.6589 9.39221C28.258 9.39221 31.9995 13.1338 31.9995 17.7328C31.9995 22.3318 28.258 26.0734 23.6589 26.0734C19.0599 26.0734 15.3184 22.3318 15.3184 17.7328Z" fill="white"/>
<path d="M28.5905 14.9988C28.1984 14.6609 27.6065 14.7048 27.2684 15.0967L22.5154 20.6094L20.2668 19.0243C19.8435 18.7259 19.2586 18.8272 18.9604 19.2504C18.6621 19.6736 18.7632 20.2586 19.1865 20.5568L22.1302 22.6318C22.2938 22.7471 22.4824 22.8032 22.6698 22.8032C22.9342 22.8032 23.1959 22.6916 23.3802 22.4779L28.6883 16.3212C29.0265 15.9289 28.9827 15.3369 28.5905 14.9988Z" fill="white"/>
</g>
<defs>
<clipPath id="clip0_520_8234">
<rect width="60" height="60" fill="white"/>
</clipPath>
</defs>
</svg>
