<svg width="59" height="57" viewBox="0 0 59 57" fill="none" xmlns="http://www.w3.org/2000/svg">
<path d="M54.6519 24.6432C54.4244 18.1616 51.7997 12.1006 47.1908 7.49174C42.36 2.66004 35.9397 0 29.1137 0C15.327 0 4.06201 10.9735 3.57642 24.6432C1.47254 25.5781 0 27.6839 0 30.1313V36.8738C0 40.1846 2.69346 42.879 6.00527 42.879C8.14816 42.879 9.89088 41.1363 9.89088 38.9934V28.0107C9.89088 25.9987 8.34778 24.3581 6.38594 24.1631C7.11014 12.2538 17.0242 2.78538 29.1137 2.78538C35.197 2.78538 40.9172 5.15666 45.2225 9.46193C49.1758 13.4153 51.4896 18.5683 51.8377 24.1641C49.8778 24.3609 48.3374 26.0006 48.3374 28.0107V38.9925C48.3374 41.0212 49.9047 42.672 51.8897 42.8437V45.6189C51.8897 48.7441 49.3467 51.2862 46.2215 51.2862H42.0239C41.8178 50.6976 41.4947 50.1535 41.0416 49.7023C40.2478 48.9047 39.1893 48.4656 38.0622 48.4656H33.7356C33.1144 48.4656 32.5184 48.5974 31.9724 48.8518C30.4832 49.5361 29.5213 51.0383 29.5213 52.6789C29.5213 53.8061 29.9605 54.8645 30.7561 55.6565C31.5518 56.454 32.6103 56.8932 33.7356 56.8932H38.0622C39.856 56.8932 41.4371 55.7335 42.0267 54.0716H46.2215C50.8833 54.0716 54.6751 50.2798 54.6751 45.6189V42.3479C56.766 41.4074 58.2274 39.3091 58.2274 36.8719V30.1294C58.2274 27.6839 56.7549 25.5781 54.6519 24.6432ZM7.10457 28.0107V38.9925C7.10457 39.5988 6.61156 40.0927 6.00435 40.0927C4.22913 40.0927 2.78445 38.648 2.78445 36.8728V30.1304C2.78445 28.3542 4.22913 26.9105 6.00435 26.9105C6.61156 26.9105 7.10457 27.4044 7.10457 28.0107ZM39.4595 52.9779C39.3212 53.6334 38.7325 54.1097 38.0613 54.1097H33.7346C33.354 54.1097 32.9965 53.9611 32.7235 53.6881C32.4543 53.4198 32.3057 53.0614 32.3057 52.6808C32.3057 52.1246 32.6316 51.6168 33.1423 51.3819C33.3243 51.2964 33.5239 51.2528 33.7346 51.2528H38.0613C38.4419 51.2528 38.7994 51.4004 39.0714 51.6734C39.3407 51.9417 39.4892 52.3001 39.4892 52.6808C39.4902 52.7829 39.479 52.885 39.4595 52.9779ZM55.442 36.8728C55.442 38.648 53.9973 40.0927 52.2221 40.0927C51.6158 40.0927 51.1219 39.5997 51.1219 38.9925V28.0107C51.1219 27.4044 51.6149 26.9105 52.2221 26.9105C53.9973 26.9105 55.442 28.3551 55.442 30.1304V36.8728Z" fill="white"/>
<path d="M38.1328 37.3527C41.3871 37.3527 44.0341 34.7047 44.0341 31.4514V19.4269C44.0341 17.8541 43.4195 16.3723 42.3035 15.2563C41.1875 14.1403 39.7066 13.5256 38.1328 13.5256H20.0966C16.8424 13.5256 14.1953 16.1727 14.1953 19.4269V31.4514C14.1953 34.7056 16.8424 37.3527 20.0966 37.3527H20.2071V40.4686C20.2071 41.657 20.9155 42.7117 22.0111 43.1565C22.3648 43.2985 22.7325 43.3691 23.0964 43.3691C23.855 43.3691 24.5941 43.0683 25.1353 42.5084L30.3189 37.3527H38.1328ZM28.7638 34.9721L23.154 40.5512C23.1289 40.5772 23.1104 40.5967 23.0575 40.5735C22.9934 40.5475 22.9934 40.5057 22.9934 40.4686V35.96C22.9934 35.1912 22.3704 34.5673 21.6007 34.5673H20.0975C18.3789 34.5673 16.9816 33.169 16.9816 31.4514V19.4269C16.9816 17.7083 18.3789 16.311 20.0975 16.311H38.1338C38.9638 16.311 39.7446 16.636 40.3351 17.2255C40.9256 17.816 41.2497 18.5978 41.2497 19.4269V31.4514C41.2497 33.17 39.8514 34.5673 38.1338 34.5673H29.7461C29.3775 34.5673 29.0247 34.7131 28.7638 34.9721Z" fill="white"/>
<path d="M22.3476 23.6069C21.2149 23.6069 20.293 24.5298 20.293 25.6616C20.293 26.7934 21.2159 27.7163 22.3476 27.7163C23.4813 27.7163 24.4042 26.7934 24.4042 25.6616C24.4042 24.5298 23.4822 23.6069 22.3476 23.6069Z" fill="white"/>
<path d="M29.1133 23.6069C27.9806 23.6069 27.0586 24.5298 27.0586 25.6616C27.0586 26.7934 27.9815 27.7163 29.1133 27.7163C30.2479 27.7163 31.1698 26.7934 31.1698 25.6616C31.1698 24.5298 30.2479 23.6069 29.1133 23.6069Z" fill="white"/>
<path d="M35.8769 23.6069C34.7442 23.6069 33.8223 24.5298 33.8223 25.6616C33.8223 26.7934 34.7452 27.7163 35.8769 27.7163C37.0106 27.7163 37.9335 26.7934 37.9335 25.6616C37.9335 24.5298 37.0106 23.6069 35.8769 23.6069Z" fill="white"/>
</svg>
