<svg width="62" height="62" viewBox="0 0 62 62" fill="none" xmlns="http://www.w3.org/2000/svg">
<path d="M7.07575 59.9985C7.10772 60.0014 7.13484 60.0169 7.16681 60.0169H24.2594C24.2594 60.0169 24.2643 60.0188 24.2672 60.0188H50.5155C50.9407 60.0188 51.3166 59.7408 51.4416 59.3329L56.7901 41.8557C56.8802 41.5622 56.8249 41.2435 56.6428 40.9964C56.4607 40.7494 56.172 40.6041 55.8639 40.6041H33.4587C31.8573 36.7998 28.1189 34.2878 23.9427 34.2878H12.2566C6.56619 34.2878 1.9375 38.9204 1.9375 44.6157V54.7876C1.9375 54.8205 1.953 54.8476 1.95591 54.8796C2.13706 57.6221 4.33322 59.8183 7.07575 59.9994V59.9985ZM49.7996 58.0813H25.5769L30.3325 42.5416H54.5552L49.7996 58.0813ZM3.875 44.6157C3.875 39.9899 7.63569 36.2253 12.2566 36.2253H23.9427C27.0514 36.2253 29.8588 37.94 31.31 40.6041H29.6157C29.1904 40.6041 28.8145 40.8821 28.6895 41.29L23.5522 58.0794H21.5576C22.1912 57.2366 22.5254 56.2368 22.4682 55.1925C22.4082 54.0678 21.9325 53.008 21.1333 52.2078C20.2682 51.3427 19.1183 50.8661 17.8957 50.8661H11.8953V45.6212C11.8953 45.0865 11.4622 44.6525 10.9265 44.6525C10.3908 44.6525 9.95778 45.0865 9.95778 45.6212V51.1208C9.95778 52.0489 10.7124 52.8036 11.6405 52.8036H17.8957C18.601 52.8036 19.2636 53.0787 19.7635 53.5776C20.2256 54.0397 20.4987 54.65 20.5346 55.2971C20.5714 55.9811 20.3186 56.6456 19.8226 57.1697C19.2762 57.7471 18.507 58.0784 17.7136 58.0784H7.44097C5.47537 58.0784 3.875 56.479 3.875 54.5124V44.6157Z" fill="white"/>
<path d="M18.1014 33.3745C23.1195 33.3745 27.2019 29.2922 27.2019 24.275C27.2019 19.2579 23.1195 15.1755 18.1014 15.1755C13.0833 15.1755 9.00195 19.2579 9.00195 24.275C9.00195 29.2922 13.0843 33.3745 18.1014 33.3745ZM18.1014 17.113C22.051 17.113 25.2644 20.3254 25.2644 24.275C25.2644 28.2246 22.052 31.437 18.1014 31.437C14.1509 31.437 10.9395 28.2246 10.9395 24.275C10.9395 20.3254 14.1518 17.113 18.1014 17.113Z" fill="white"/>
<path d="M37.4026 1.9375C29.4608 1.9375 22.2348 5.98494 18.0731 12.7652C17.7931 13.2215 17.9355 13.8173 18.3918 14.0973C18.8471 14.3782 19.4439 14.2348 19.7248 13.7785C23.531 7.57756 30.1389 3.875 37.4026 3.875C48.828 3.875 58.1241 13.1711 58.1241 24.5966C58.1241 29.5285 56.3629 34.3005 53.1641 38.0322C52.8163 38.4381 52.8628 39.0503 53.2697 39.3981C53.4518 39.555 53.6766 39.6316 53.8994 39.6316C54.1716 39.6316 54.4438 39.5163 54.6357 39.2935C58.1338 35.2102 60.0616 29.9906 60.0616 24.5966C60.0616 12.1026 49.8975 1.9375 37.4026 1.9375Z" fill="white"/>
<path d="M47.0634 37.879C46.6313 38.1929 46.5344 38.7994 46.8483 39.2314C47.0382 39.493 47.3337 39.6315 47.634 39.6315C47.8306 39.6315 48.0302 39.5714 48.2026 39.4465C52.9418 36.0055 55.7705 30.4536 55.7705 24.5965C55.7705 14.4682 47.5303 6.229 37.403 6.229C31.4578 6.229 25.8642 9.11975 22.4397 13.9616C22.1307 14.3985 22.2343 15.003 22.6712 15.312C23.1072 15.621 23.7126 15.5164 24.0217 15.0805C27.0839 10.7511 32.0865 8.16554 37.403 8.16554C46.4628 8.16554 53.833 15.5358 53.833 24.5955C53.833 29.8345 51.3026 34.8003 47.0634 37.8781V37.879Z" fill="white"/>
<path d="M36.7213 25.5519L42.5842 31.4147C42.7731 31.6037 43.0211 31.6986 43.2691 31.6986C43.5171 31.6986 43.7651 31.6037 43.954 31.4147C44.3328 31.036 44.3328 30.4237 43.954 30.0449L38.375 24.4659V12.9417C38.375 12.4069 37.942 11.9729 37.4063 11.9729C36.8705 11.9729 36.4375 12.4069 36.4375 12.9417V24.5947C36.4375 24.6422 36.4578 24.6829 36.4646 24.7284C36.422 25.021 36.4966 25.3271 36.7213 25.5519Z" fill="white"/>
</svg>
