<svg width="75" height="75" viewBox="0 0 75 75" fill="none" xmlns="http://www.w3.org/2000/svg">
<path fill-rule="evenodd" clip-rule="evenodd" d="M43.2359 63.6396C42.8158 63.6396 42.4 63.6013 41.9697 63.5234C39.9781 63.159 37.8654 61.9182 33.6556 59.4469C32.8269 58.9597 31.9157 58.4252 30.9059 57.8377C27.5981 55.9156 26.737 56.4859 24.1813 58.1822C23.8027 58.4331 23.3746 58.7169 22.9087 59.0113C22.5522 59.2356 22.0836 59.1301 21.8591 58.775C21.635 58.4198 21.7403 57.9513 22.0955 57.7268C22.5469 57.4403 22.9509 57.1737 23.3403 56.915C26.0506 55.1156 27.5449 54.1256 31.6702 56.5229C32.6814 57.1116 33.5949 57.6476 34.4252 58.1348C38.4811 60.5161 40.5162 61.7109 42.243 62.0264C43.916 62.3326 45.5089 61.8152 48.6851 60.7855C50.7054 60.1307 53.217 59.3163 56.7588 58.3671L66.8463 55.6648C67.6566 55.4469 68.3349 54.9243 68.7587 54.1916C69.1815 53.4588 69.2947 52.6087 69.0781 51.7995C68.8608 50.9889 68.3375 50.3105 67.6049 49.888C66.8725 49.4642 66.022 49.3507 65.2129 49.5686L51.5234 53.2357C51.4444 53.682 51.287 54.1137 51.0547 54.5163C50.5284 55.4285 49.6752 56.0819 48.6521 56.3552C47.6295 56.6298 46.5637 56.4912 45.6515 55.9645L37.508 51.2621C37.1451 51.0523 37.0206 50.5877 37.2305 50.2246C37.4409 49.8602 37.9051 49.7362 38.2681 49.9461L46.4123 54.6469C46.9718 54.9703 47.6277 55.0562 48.2588 54.8872C48.8889 54.7182 49.4138 54.3157 49.7373 53.756C49.9356 53.4126 50.0435 53.0351 50.0594 52.6483C50.0597 52.6258 50.0594 52.6048 50.062 52.5837C50.0651 52.3592 50.037 52.1322 49.9775 51.9091C49.809 51.2794 49.4059 50.754 48.8462 50.4306L40.704 45.7283C34.2937 42.0281 31.0934 40.2433 28.4017 40.0889C25.7234 39.9369 23.248 41.3984 18.32 44.3119C17.4453 44.8293 16.4534 45.4168 15.3854 46.0373C15.0216 46.2483 14.5564 46.1257 14.3452 45.7627C14.1341 45.3996 14.258 44.9336 14.621 44.7224C15.684 44.1046 16.6738 43.5198 17.5465 43.0037C22.7401 39.933 25.3443 38.3912 28.4888 38.5707C31.532 38.7449 34.6656 40.4875 41.4641 44.4122L49.6071 49.113C50.5189 49.6398 51.1722 50.4926 51.4455 51.5157C51.4605 51.5672 51.4732 51.62 51.4838 51.6715L64.8196 48.0993C66.0224 47.7771 67.2802 47.9448 68.3653 48.5706C69.4495 49.1962 70.2241 50.2035 70.5461 51.4061C70.8687 52.6074 70.7019 53.8668 70.0749 54.9519C69.4495 56.0358 68.4419 56.8107 67.2393 57.1328L57.1527 59.8364C53.649 60.7749 51.1564 61.5829 49.1551 62.2323C46.4533 63.1075 44.8146 63.6396 43.2359 63.6396Z" fill="white"/>
<path fill-rule="evenodd" clip-rule="evenodd" d="M6.09435 45.3534L17.9967 65.9683L24.0067 62.4977L12.1061 41.8828L6.09435 45.3534ZM17.7193 67.7676C17.4568 67.7676 17.2002 67.6303 17.0589 67.3874L4.39658 45.455C4.29619 45.2809 4.26833 45.0736 4.32115 44.8782C4.37283 44.6841 4.50069 44.5179 4.67496 44.4162L12.0034 40.1853C12.1786 40.0848 12.3857 40.0572 12.5811 40.11C12.7757 40.1615 12.9414 40.2896 13.0418 40.4638L25.7045 62.3959C25.9143 62.7591 25.7902 63.2238 25.4257 63.435L18.0983 67.6646C17.9778 67.7345 17.847 67.7676 17.7193 67.7676Z" fill="white"/>
<path fill-rule="evenodd" clip-rule="evenodd" d="M64.9551 49.6106C64.5352 49.6106 64.1945 49.2701 64.1945 48.8503L64.1947 11.8264C64.1947 10.1328 62.8163 8.7533 61.1214 8.7533L28.1241 8.75322C26.4304 8.75322 25.052 10.1329 25.052 11.8265L25.0523 40.1811C25.0523 40.6021 24.7114 40.9415 24.2916 40.9415C23.8719 40.9415 23.5312 40.6022 23.5312 40.1811L23.5315 11.8264C23.5315 9.29318 25.5919 7.23251 28.1239 7.23251L61.1217 7.23242C63.6548 7.23242 65.7153 9.29318 65.7153 11.8265L65.7155 48.8502C65.7155 49.27 65.3748 49.6107 64.9551 49.6106Z" fill="white"/>
<path fill-rule="evenodd" clip-rule="evenodd" d="M31.9093 40.9522C31.4893 40.9522 31.1484 40.6116 31.1484 40.1918L31.1489 7.99297C31.1489 7.57324 31.489 7.23267 31.9089 7.23267C32.3287 7.23258 32.6692 7.57324 32.6692 7.99302L32.6697 40.1918C32.6697 40.6116 32.3287 40.9522 31.9093 40.9522Z" fill="white"/>
<path fill-rule="evenodd" clip-rule="evenodd" d="M48.4316 12.8059C42.6401 12.8059 37.9271 17.5174 37.9271 23.3101C37.9275 29.1013 42.6398 33.8142 48.4311 33.8142C54.2241 33.8142 58.9351 29.1014 58.9351 23.3101C58.9354 17.5173 54.2238 12.806 48.4316 12.8059ZM48.4316 35.3349C41.802 35.3349 36.4062 29.9396 36.4062 23.31C36.4067 16.679 41.8015 11.2852 48.4311 11.2852C55.0623 11.2851 60.4559 16.6791 60.4559 23.31C60.4562 29.9396 55.062 35.3349 48.4316 35.3349Z" fill="white"/>
<path fill-rule="evenodd" clip-rule="evenodd" d="M48.4307 12.8058C46.3805 12.8058 44.095 17.1201 44.095 23.31C44.0953 29.5 46.3801 33.8141 48.4302 33.8141C50.4819 33.8141 52.7668 29.5001 52.7668 23.31C52.7671 17.12 50.4817 12.8059 48.4307 12.8058ZM48.4307 35.3349C46.7542 35.3349 45.2276 34.0042 44.1347 31.5884C43.1287 29.3639 42.5742 26.4242 42.5742 23.31C42.5745 20.1945 43.1286 17.2547 44.1347 15.0316C45.2281 12.6157 46.7538 11.2852 48.4302 11.2852C50.1082 11.2851 51.6341 12.6158 52.7273 15.0316C53.7331 17.2547 54.2876 20.1946 54.2876 23.31C54.288 26.4241 53.7331 29.364 52.7273 31.5884C51.6343 34.0042 50.1081 35.3349 48.4307 35.3349Z" fill="white"/>
<path fill-rule="evenodd" clip-rule="evenodd" d="M48.4315 18.9735C42.2415 18.9735 37.927 21.2587 37.927 23.3101C37.9275 25.3601 42.2412 27.6454 48.4311 27.6454C54.6227 27.6453 58.9351 25.3603 58.9351 23.3101C58.9354 21.2587 54.6224 18.9736 48.4315 18.9735ZM48.4315 29.1661C45.3175 29.1661 42.3771 28.6117 40.1526 27.6057C37.7374 26.5126 36.4062 24.9867 36.4062 23.3101C36.4067 21.6322 37.7369 20.1062 40.1526 19.0132C42.3775 18.0071 45.3169 17.4541 48.4311 17.4541C51.5467 17.4541 54.4864 18.0072 56.7095 19.0132C59.1255 20.1062 60.4559 21.6322 60.4559 23.3101C60.4562 24.9866 59.1254 26.5127 56.7095 27.6057C54.4866 28.6116 51.5465 29.1661 48.4315 29.1661Z" fill="white"/>
<path fill-rule="evenodd" clip-rule="evenodd" d="M48.4327 35.3351C48.0127 35.3351 47.6719 34.9945 47.6719 34.5747L47.6723 12.0457C47.6723 11.6258 48.0124 11.2854 48.4323 11.2854C48.8521 11.2853 49.1926 11.6259 49.1926 12.0458L49.1931 34.5747C49.1931 34.9945 48.8521 35.3351 48.4327 35.3351Z" fill="white"/>
<path fill-rule="evenodd" clip-rule="evenodd" d="M57.9982 39.575H38.8663C38.4463 39.575 38.1055 39.2344 38.1055 38.8147C38.1059 38.3948 38.4459 38.0543 38.8658 38.0543L57.9983 38.0542C58.4182 38.0542 58.7585 38.3949 58.7585 38.8147C58.7587 39.2345 58.4179 39.575 57.9982 39.575Z" fill="white"/>
<path fill-rule="evenodd" clip-rule="evenodd" d="M52.7837 43.8154H44.0832C43.6632 43.8154 43.3223 43.4749 43.3223 43.0551C43.3228 42.6352 43.6629 42.2947 44.0827 42.2947L52.7837 42.2947C53.2037 42.2947 53.5439 42.6353 53.5439 43.0551C53.544 43.4749 53.2034 43.8155 52.7837 43.8154Z" fill="white"/>
</svg>
