<svg width="61" height="61" viewBox="0 0 61 61" fill="none" xmlns="http://www.w3.org/2000/svg">
<g clip-path="url(#clip0_520_8280)">
<path d="M58.1946 59.2128H57.1782V21.9045C57.1782 21.4112 56.778 21.011 56.2846 21.011H46.7338C46.2405 21.011 45.8403 21.4112 45.8403 21.9045V23.8145C45.8403 24.3078 46.2405 24.7081 46.7338 24.7081C47.2276 24.7081 47.6274 24.3078 47.6274 23.8145V22.7981H55.3911V59.2128H47.6274V27.6349C47.6274 27.1416 47.2276 26.7414 46.7338 26.7414C46.2405 26.7414 45.8403 27.1416 45.8403 27.6349V59.2128H42.8525V31.4549C42.8525 30.9616 42.4522 30.5613 41.9589 30.5613H32.4081C31.9148 30.5613 31.5146 30.9616 31.5146 31.4549V59.2128H28.5267V41.0052C28.5267 40.5119 28.1265 40.1116 27.6332 40.1116H18.0824C17.5891 40.1116 17.1888 40.5119 17.1888 41.0052V59.2128H14.201V56.2859C14.201 55.7926 13.8008 55.3924 13.3074 55.3924C12.8137 55.3924 12.4139 55.7926 12.4139 56.2859V59.2128H4.65021V51.4496H12.4134V52.4655C12.4134 52.9593 12.8137 53.3591 13.307 53.3591C13.8008 53.3591 14.2005 52.9593 14.2005 52.4655V50.556C14.2005 50.0622 13.8008 49.6624 13.307 49.6624H3.75665C3.26334 49.6624 2.8631 50.0622 2.8631 50.556V59.2128H1.84668C1.35336 59.2128 0.953125 59.613 0.953125 60.1063C0.953125 60.5996 1.35336 60.9999 1.84668 60.9999H58.1946C58.6879 60.9999 59.0882 60.5996 59.0882 60.1063C59.0882 59.613 58.6879 59.2128 58.1946 59.2128ZM33.3017 32.3484H41.0649V59.2128H33.3017V32.3484ZM18.9759 41.8988H26.7396V59.2128H18.9759V41.8988Z" fill="#C39730"/>
<path d="M59.1499 1.90997H56.223V0.893555C56.223 0.400238 55.8232 0 55.3294 0H47.6891C47.1958 0 46.7955 0.400238 46.7955 0.893555V1.90997H43.8691C43.3754 1.90997 42.9756 2.31021 42.9756 2.80353V3.75851C42.9756 6.07757 44.6589 8.00895 46.8677 8.39895C47.2032 10.3192 48.706 11.8424 50.6159 12.2077V17.1907H48.6445C48.1508 17.1907 47.751 17.5909 47.751 18.0842C47.751 18.578 48.1508 18.9778 48.6445 18.9778H54.3749C54.8682 18.9778 55.2685 18.578 55.2685 18.0842C55.2685 17.5909 54.8682 17.1907 54.3749 17.1907H52.4031V12.2077C54.313 11.8424 55.8158 10.3192 56.1518 8.39895C58.3601 8.00895 60.0434 6.07757 60.0434 3.75851V2.80353C60.0434 2.31021 59.6432 1.90997 59.1499 1.90997ZM44.7627 3.75851V3.69708H46.7955V6.54529C45.6176 6.16692 44.7627 5.06068 44.7627 3.75851ZM54.4359 7.58637C54.4359 9.19617 53.1263 10.5053 51.5169 10.5053H51.5016C49.8923 10.5053 48.5826 9.19617 48.5826 7.58637V1.78711H54.4359V7.58637ZM58.2563 3.75851C58.2563 5.06068 57.4009 6.16646 56.223 6.54529V3.69708H58.2563V3.75851Z" fill="#C39730"/>
<path d="M3.75782 41.183C3.92815 41.183 4.10034 41.1342 4.25253 41.0327L41.8023 15.9997L39.782 19.9425C39.5572 20.3818 39.7308 20.9203 40.1697 21.1451C40.3005 21.2121 40.4396 21.2437 40.5765 21.2437C40.9013 21.2437 41.2145 21.0659 41.3727 20.7574L44.8837 13.9045C45.0298 13.6192 45.0121 13.2771 44.8367 13.0086C44.6617 12.7401 44.3559 12.586 44.0357 12.6051L36.3493 13.0593C35.8569 13.0882 35.4809 13.5112 35.5102 14.0041C35.539 14.4965 35.9612 14.8711 36.4549 14.8432L40.6905 14.5928L3.26124 39.5458C2.85076 39.8194 2.73954 40.3742 3.01365 40.7847C3.18585 41.0429 3.46881 41.183 3.75782 41.183Z" fill="#C39730"/>
</g>
<defs>
<clipPath id="clip0_520_8280">
<rect width="61" height="61" fill="white"/>
</clipPath>
</defs>
</svg>
