<svg width="66" height="66" viewBox="0 0 66 66" fill="none" xmlns="http://www.w3.org/2000/svg">
<g clip-path="url(#clip0_520_8264)">
<path d="M9.91367 54.0891C8.98555 54.3727 8.56016 52.9547 9.47539 52.6711C17.1582 50.2992 21.6441 50.3121 29.4816 52.7742C30.2937 53.0191 30.0875 54.2438 29.2625 54.2309C21.6184 51.8977 17.4031 51.7301 9.91367 54.0891ZM9.47539 46.6125C8.67617 46.8445 8.85664 48.082 9.69453 48.0691C16.8746 45.9164 21.0254 45.723 27.9219 47.7984C28.85 48.0691 29.2754 46.6512 28.3473 46.3805C21.2574 44.2793 16.8488 44.3438 9.47539 46.6125ZM23.3457 40.6441C23.7582 40.7215 24.132 40.4379 24.1965 40.0383C24.2609 39.6387 23.9902 39.252 23.5906 39.1875C19.0789 38.4141 15.2504 38.7879 9.47539 40.5668C8.67617 40.7988 8.86953 42.0363 9.69453 42.0234C15.2375 40.3734 19.0531 39.8578 23.3457 40.6441ZM9.47539 34.5082C8.67617 34.7402 8.86953 35.9777 9.69453 35.9648C15.3793 34.2762 19.1562 33.7863 23.6035 34.6371C24.5574 34.7918 24.8281 33.3609 23.8613 33.1805C19.2465 32.3297 15.3406 32.6906 9.47539 34.5082ZM9.69453 29.9063C13.4328 28.8234 16.359 28.166 19.0273 28.1789C19.4398 28.1789 19.7621 27.8309 19.7621 27.4313C19.7621 27.0188 19.4141 26.6965 19.0145 26.6965C16.2172 26.7352 13.3684 27.2637 9.47539 28.4625C8.67617 28.6945 8.86953 29.9191 9.69453 29.9063ZM57.1063 52.6711C49.4234 50.2992 44.9375 50.325 37.1 52.7742C36.7133 52.9031 36.4941 53.3156 36.6102 53.7024C36.7262 54.102 37.1645 54.3082 37.5383 54.1922C45.118 51.8203 49.2301 51.7945 56.6551 54.0891C57.5832 54.3727 58.0344 52.9676 57.1063 52.6711ZM57.1063 46.6125C49.7328 44.3309 45.3371 44.2793 38.2473 46.3676C37.8605 46.4836 37.6285 46.8961 37.7445 47.2957C37.8605 47.6824 38.273 47.9145 38.6727 47.7984C45.5176 45.7875 49.5523 45.8391 56.6809 48.0434C57.5961 48.3141 58.0344 46.9219 57.1063 46.6125ZM56.668 41.9848C57.5961 42.2555 58.0344 40.8762 57.1063 40.5668C51.3312 38.775 47.5027 38.4012 42.991 39.1875C42.5914 39.252 42.3207 39.6387 42.3852 40.0383C42.4496 40.4379 42.8363 40.7215 43.2359 40.6441C47.5027 39.9094 51.1379 40.2703 56.668 41.9848ZM57.1063 34.5082C51.241 32.6906 47.348 32.3297 42.7203 33.1676C42.3207 33.2449 42.05 33.6316 42.1273 34.0313C42.2047 34.4309 42.5914 34.7016 42.991 34.6242C47.4125 33.825 50.9961 34.1602 56.6809 35.9133C57.5961 36.1969 58.0344 34.8176 57.1063 34.5082ZM47.5543 28.1789C50.2227 28.166 53.1488 28.8363 56.8871 29.9063C57.7121 29.9191 57.9184 28.6945 57.1063 28.4496C53.2262 27.2508 50.3773 26.7223 47.5672 26.6836C47.1547 26.7094 46.8195 27.0059 46.8195 27.4184C46.8195 27.8309 47.1418 28.166 47.5543 28.1789ZM22.6238 19.8C21.8891 19.8 21.2832 19.1941 21.2832 18.4594V14.4504C21.2832 13.7156 21.8891 13.1098 22.6238 13.1098H24.016C24.0934 12.8906 24.1836 12.6844 24.2738 12.4781L23.2812 11.4856C22.7656 10.957 22.7656 10.1063 23.2812 9.59063L26.1172 6.75469C26.6199 6.22618 27.5223 6.22618 28.025 6.76758L29.0047 7.74727C29.2109 7.65704 29.4301 7.5668 29.6363 7.48946V6.07149C29.6363 5.33672 30.2422 4.73086 30.977 4.73086H34.9859C35.7207 4.73086 36.3266 5.33672 36.3266 6.07149V7.47657C36.5457 7.55391 36.752 7.64415 36.9582 7.73438L37.9508 6.7418C38.4793 6.21329 39.3301 6.21329 39.8457 6.7418L42.6816 9.57774C43.1973 10.0934 43.1973 10.9441 42.6816 11.4727L41.6891 12.4652C41.7922 12.6715 41.8695 12.8906 41.9598 13.0969H43.352C44.0996 13.0969 44.6926 13.7027 44.6926 14.4375V18.4465C44.6926 19.1941 44.0867 19.7871 43.352 19.7871H41.9598C41.8824 19.9934 41.7922 20.2125 41.702 20.4188L42.6945 21.4113C43.2102 21.927 43.2102 22.7777 42.6945 23.3063L39.8457 26.1422C39.3172 26.6707 38.4664 26.6707 37.9508 26.1422L36.9582 25.1496C36.752 25.2398 36.5328 25.3301 36.3266 25.4074V26.7996C36.3266 27.5344 35.7207 28.1402 34.9859 28.1402H30.977C30.2551 28.1531 29.6234 27.5215 29.6363 26.7996V25.4074C29.4301 25.3301 29.2109 25.2398 29.0047 25.1367L28.0121 26.1293C27.5223 26.6449 26.5941 26.6707 26.1172 26.1293L23.2812 23.2934C22.7656 22.7648 22.7656 21.9141 23.2812 21.3984L24.2738 20.4059C24.1836 20.1996 24.0934 19.9934 24.016 19.7742H22.6238V19.8ZM22.7656 18.3176H24.5574C24.8797 18.3176 25.1762 18.5238 25.2664 18.8461C25.3695 19.6195 26.3234 20.4059 25.7176 21.1148L24.4543 22.3781L27.0969 25.0078L28.3602 23.7445C29.0562 23.1258 29.9199 24.1184 30.6289 24.1957C30.9383 24.2859 31.1574 24.5824 31.1574 24.9047V26.6836H34.8828V24.8918C34.8828 24.5695 35.0891 24.2731 35.4113 24.1828C36.1332 24.1055 36.984 23.1258 37.6801 23.7316L38.9434 24.9949L41.5859 22.3652L40.3227 21.102C39.7039 20.4059 40.6836 19.568 40.7738 18.8332C40.8641 18.5238 41.1605 18.3047 41.4828 18.3047H43.2746V14.5793H41.4828C41.1605 14.5793 40.8641 14.3602 40.7738 14.0508C40.6965 13.3418 39.7039 12.4781 40.3227 11.782L41.5859 10.5188L38.9434 7.87618L37.6801 9.13946C36.9711 9.75821 36.1719 8.77852 35.4113 8.68829C35.102 8.59805 34.8828 8.30157 34.8828 7.9793V6.21329H31.1574V8.00508C31.1574 8.32735 30.9512 8.62383 30.6289 8.71407C29.8813 8.8043 29.0562 9.7711 28.3602 9.16524L27.0969 7.90196L24.4543 10.5445L25.7176 11.8078C26.3363 12.5168 25.3566 13.316 25.2664 14.0766C25.1762 14.3859 24.8797 14.6051 24.5574 14.6051H22.7656V18.3176ZM31.209 11.1375C34.7539 9.88711 38.6727 12.6844 38.6082 16.4484C38.6727 20.2125 34.7539 23.0098 31.209 21.7594C26.1559 20.0836 26.1688 12.8133 31.209 11.1375ZM33.0008 20.5734C35.2695 20.5734 37.1258 18.7301 37.1258 16.4613C37.1773 13.6898 34.2898 11.6273 31.6859 12.5555C27.3031 14.0508 28.3602 20.5348 33.0008 20.5734ZM65.6012 26.6449V65.175C65.6012 65.5875 65.266 65.9227 64.8535 65.9227H1.14805C0.735547 65.9227 0.400391 65.5875 0.400391 65.175V26.6449C0.400391 26.2324 0.735547 25.8973 1.14805 25.8973H4.88633V24.5051C4.88633 24.1828 5.09258 23.8992 5.38906 23.7961C10.223 22.159 14.0645 21.0891 17.8156 20.857C13.0074 5.43985 31.5441 -6.53554 43.6355 4.17657C48.2633 8.25001 50.1195 15.0176 48.1988 20.857C51.9242 21.0891 55.7656 22.159 60.6125 23.7961C60.909 23.8992 61.1152 24.1828 61.1152 24.5051V25.8973H64.8535C65.266 25.8973 65.6012 26.2324 65.6012 26.6449ZM47.6703 22.3008C46.7551 24.3891 45.4402 26.2711 43.7645 27.8051C42.9781 28.5656 42.0113 29.1199 41.2508 29.8934C40.2066 30.9633 39.4719 32.3555 39.1883 33.8895C39.8715 34.1215 40.3227 34.8305 40.3227 35.5523C40.284 36.1066 40.4516 37.7051 40.1551 38.182C40.4516 38.659 40.2969 40.3605 40.3355 40.9148C40.3355 41.843 39.5879 42.5906 38.6598 42.5906H38.0152C37.7961 44.7176 35.8883 46.4449 33.7484 46.4578V59.6063C43.7 56.1258 49.6168 56.0871 59.6457 59.6063V26.6191V25.0207C54.9535 23.4609 51.241 22.4555 47.6703 22.3008ZM31.7246 38.2207C31.7246 38.6332 31.3895 38.9684 30.977 38.9684H27.1613V40.9406C27.1613 41.0566 27.2516 41.1211 27.3547 41.134H37.2934H38.6598C38.75 41.1211 38.8273 41.0438 38.8531 40.9406V38.9426C38.8145 38.7879 38.6469 38.6977 38.5695 38.5559C38.5309 38.4527 38.518 38.3496 38.4922 38.2465C38.4535 37.8211 38.8145 37.7438 38.8531 37.4344V35.5781C38.8531 35.4106 38.7629 35.3203 38.7242 35.3203H27.3031C27.2258 35.3719 27.1742 35.4363 27.1742 35.5781V37.4473C27.1742 37.4602 27.1871 37.473 27.1871 37.4859H31.0027C31.3895 37.473 31.7246 37.8082 31.7246 38.2207ZM29.4945 42.6164C29.7137 43.957 30.9641 45.0012 32.3176 45.0012C32.7043 44.9883 33.8516 45.027 34.2125 44.9496C35.2566 44.7434 36.159 43.9313 36.4297 42.9C36.4555 42.8098 36.4941 42.7195 36.4941 42.6293H29.4945V42.6164ZM22.5078 25.9875C23.6938 27.341 25.3953 28.1531 26.4652 29.6227C27.3934 30.8086 28.025 32.3039 28.3215 33.8121H37.693C38.0281 31.8527 38.9562 30.0481 40.3227 28.7203C42.1789 27.1734 44.1641 25.691 45.3629 23.5383C48.9852 17.802 47.7863 9.71954 42.6559 5.25938C34.1094 -2.55234 19.9297 2.81016 18.6406 14.3215C18.1379 18.6527 19.5816 22.9195 22.5078 25.9875ZM6.36875 59.632C16.6168 56.0227 22.482 56.2289 32.266 59.632V46.4836C30.1262 46.4707 28.2184 44.7434 27.9992 42.6164H27.3547C26.4266 42.6164 25.6789 41.8688 25.6789 40.9406C25.7176 40.3992 25.55 38.6719 25.8594 38.2078C25.5629 37.7051 25.7176 36.1324 25.6789 35.5781C25.6918 34.8563 26.1172 34.1473 26.8133 33.9152C26.4137 31.9816 25.3309 30.1898 23.7195 29.0426C21.3348 27.3281 19.4785 25.0207 18.3312 22.3266C14.7348 22.4813 11.0352 23.4867 6.36875 25.0594V59.632ZM64.1187 27.3797H61.1281V60.6633C60.9348 62.1199 59.2203 60.934 58.3953 60.7922C48.8691 57.4922 43.2488 57.8016 33.2457 61.3723C33.1555 61.3852 33.0652 61.4238 32.9621 61.4109C21.3477 57.5566 17.4676 57.402 5.85313 61.3723C5.38906 61.5398 4.86055 61.166 4.87344 60.6633V27.3797H1.88281V64.4273H64.1059V27.3797H64.1187Z" fill="white"/>
</g>
<defs>
<clipPath id="clip0_520_8264">
<rect width="66" height="66" fill="white"/>
</clipPath>
</defs>
</svg>
