<svg width="26" height="26" viewBox="0 0 26 26" fill="none" xmlns="http://www.w3.org/2000/svg">
<g clip-path="url(#clip0_520_8136)">
<path d="M25.7769 17.844L23.7631 15.8301V8.92224L25.0778 8.44824C25.3796 8.33938 25.5809 8.05315 25.5811 7.73225C25.5814 7.41144 25.3805 7.12481 25.0788 7.01559L13.0499 2.65928C12.8824 2.5986 12.6987 2.5986 12.5312 2.65928L0.502335 7.01559C0.20179 7.12445 0.00122332 7.40931 4.691e-06 7.72894C-0.00111239 8.04858 0.197372 8.33491 0.497055 8.44596L4.93638 10.0905V15.11C4.93638 15.2658 4.98411 15.4179 5.07323 15.5456C5.12223 15.6159 5.58637 16.2497 6.77474 16.8479C8.27605 17.6036 10.2452 17.9868 12.6273 17.9868C15.0077 17.9868 16.9867 17.6044 18.5095 16.8502C19.7096 16.2557 20.1892 15.6285 20.2399 15.559C20.335 15.4286 20.3862 15.2715 20.3862 15.1101V10.1396L22.2398 9.47134V15.8301L20.2259 17.844C20.0831 17.9868 20.0028 18.1805 20.0028 18.3825C20.0028 18.5845 20.083 18.7782 20.2259 18.921L22.2398 20.9349V22.6246C22.2398 23.0452 22.5808 23.3862 23.0015 23.3862C23.4221 23.3862 23.7631 23.0452 23.7631 22.6246V20.9349L25.7769 18.921C26.0744 18.6237 26.0744 18.1414 25.7769 17.844ZM12.7906 4.18546L22.5783 7.73011L12.6309 11.3164L2.97606 7.73981L12.7906 4.18546ZM18.8629 14.8065C16.2591 17.1494 8.52191 16.8807 6.45968 14.8141V10.6548L12.3627 12.8415C12.4564 12.8563 12.5448 12.9371 12.8856 12.8439L18.8629 10.6889L18.8629 14.8065ZM23.0014 19.5423L21.8415 18.3825L23.0014 17.2226L24.1612 18.3825L23.0014 19.5423Z" fill="#C39730"/>
</g>
<defs>
<clipPath id="clip0_520_8136">
<rect width="26" height="26" fill="white"/>
</clipPath>
</defs>
</svg>
