<svg width="28" height="28" viewBox="0 0 28 28" fill="none" xmlns="http://www.w3.org/2000/svg">
<path d="M20.0156 21.6562C19.7138 21.6562 19.4688 21.9013 19.4688 22.2031C19.4688 22.505 19.7138 22.75 20.0156 22.75C20.3175 22.75 20.5625 22.505 20.5625 22.2031C20.5625 21.9013 20.3175 21.6562 20.0156 21.6562Z" fill="#C39730"/>
<path d="M21.3621 19.8878L18.7628 19.0216L17.8297 17.1553C18.6704 16.2996 19.254 15.1675 19.4509 13.9866L19.5672 13.2891H20.5625C21.4671 13.2891 22.2031 12.5531 22.2031 11.6484V8.20312C22.2031 3.67992 18.5232 0 14 0C9.4652 0 5.79688 3.66937 5.79688 8.20312V11.6484C5.79688 12.3613 6.25412 12.9692 6.89062 13.195V13.8359C6.89062 14.7406 7.62661 15.4766 8.53125 15.4766H9.01152C9.24859 15.9916 9.55544 16.4685 9.92884 16.897C10.0063 16.986 10.0871 17.0723 10.1698 17.1563L9.23716 19.0216L6.6378 19.8879C3.6155 20.8957 1.42188 24.0773 1.42188 27.4531C1.42188 27.7552 1.66671 28 1.96875 28H26.0312C26.3332 28 26.5781 27.7552 26.5781 27.4531C26.5781 24.0773 24.3846 20.8957 21.3621 19.8878ZM21.1094 11.6484C21.1094 11.95 20.864 12.1953 20.5625 12.1953H19.7279C19.8669 11.1185 19.9595 9.97265 19.9968 8.84406C19.9979 8.81223 19.9987 8.78128 19.9997 8.75H21.1094V11.6484ZM7.4375 12.1953C7.13595 12.1953 6.89062 11.95 6.89062 11.6484V8.75H8.00067C8.00248 8.80704 8.00439 8.86435 8.00652 8.92205C8.00658 8.92402 8.00669 8.92593 8.00674 8.9279C8.00674 8.92806 8.00674 8.92823 8.00674 8.92839C8.04502 10.0261 8.13646 11.1422 8.2723 12.1953H7.4375V12.1953ZM8.53125 14.3828C8.2297 14.3828 7.98438 14.1375 7.98438 13.8359V13.2891H8.4327L8.54908 13.9868C8.57128 14.1194 8.59857 14.2516 8.63013 14.3828H8.53125ZM7.9853 7.65625H6.91141C7.1884 3.99104 10.2472 1.09375 14 1.09375C17.7361 1.09375 20.8084 3.99066 21.0885 7.65625H20.0148C19.9754 4.63602 17.5159 2.1875 14.4895 2.1875H13.5106C10.4843 2.1875 8.02462 4.63602 7.9853 7.65625ZM13.5105 3.28125H14.4895C16.9399 3.28125 18.9233 5.2856 18.9219 7.73336C18.9219 7.90546 18.9205 8.0553 18.9176 8.19164C18.9176 8.19339 18.9176 8.1952 18.9176 8.197L18.2335 8.09927C16.3752 7.83393 14.6206 6.95663 13.2929 5.62893C13.1904 5.52639 13.0513 5.46875 12.9062 5.46875C11.4376 5.46875 10.0317 6.13791 9.1023 7.26841C9.33133 5.04159 11.2138 3.28125 13.5105 3.28125ZM9.76391 14.3828C9.49014 13.4721 9.17689 10.7924 9.10766 9.07523L9.84369 8.09381C10.5197 7.19277 11.5714 6.63294 12.6901 6.56868C14.1621 7.96955 16.0665 8.89465 18.0789 9.18198L18.884 9.29704C18.8302 10.4392 18.7202 11.5853 18.5626 12.6394C18.5626 12.6398 18.5625 12.6401 18.5625 12.6405C18.5124 12.9794 18.4729 13.1975 18.372 13.8067C18.0824 15.5438 16.7862 17.1147 15.0751 17.5425C14.3709 17.7184 13.629 17.7183 12.9252 17.5425C11.8567 17.2755 10.8771 16.5362 10.2448 15.4766H11.3597C11.5854 16.1131 12.1933 16.5703 12.9062 16.5703H14C14.9064 16.5703 15.6406 15.8362 15.6406 14.9297C15.6406 14.025 14.9046 13.2891 14 13.2891H12.9062C12.1774 13.2891 11.5785 13.7598 11.3588 14.3828H9.76391ZM12.8603 18.6493C13.2354 18.7283 13.6178 18.7688 14 18.7688C14.2992 18.7688 14.5984 18.7437 14.8943 18.6951L13.928 19.7171L12.8603 18.6493ZM13.1761 20.5121L11.4416 22.3465C10.964 21.4324 10.5537 20.4811 10.2172 19.5072L10.8685 18.2045L13.1761 20.5121ZM17.0388 18.0192L17.7827 19.5072C17.4456 20.4827 17.0352 21.4343 16.5582 22.3473L14.7016 20.4907L17.0388 18.0192ZM12.3594 14.9297C12.3594 14.6278 12.6043 14.3828 12.9062 14.3828H14C14.3015 14.3828 14.5469 14.6281 14.5469 14.9297C14.5469 15.2317 14.3019 15.4766 14 15.4766H12.9062C12.6047 15.4766 12.3594 15.2312 12.3594 14.9297ZM2.5375 26.9062C2.75423 24.1971 4.55722 21.7346 6.9837 20.9255L9.28572 20.1583C9.70747 21.3245 10.23 22.458 10.8423 23.5347C10.8433 23.5366 10.8443 23.5384 10.8454 23.5402L10.8454 23.5403C11.2928 24.3272 11.7964 25.0962 12.3423 25.8262L13.0151 26.9062H2.5375ZM14 26.4188L13.2583 25.2281C13.25 25.2147 13.2412 25.2017 13.2317 25.1892C12.7889 24.5984 12.3758 23.9806 11.9995 23.3483L13.9499 21.2858L16.0049 23.3408C15.6261 23.9778 15.2116 24.5982 14.7684 25.1891C14.7416 25.2248 14.7796 25.1685 14 26.4188ZM14.9849 26.9062L15.6576 25.8263C16.206 25.0935 16.7132 24.3183 17.165 23.5222C17.1678 23.5174 17.1703 23.5125 17.1731 23.5076C17.1734 23.507 17.1737 23.5065 17.1741 23.5059C17.7786 22.4395 18.2956 21.3158 18.7143 20.1583L21.0162 20.9255C23.4428 21.7346 25.2458 24.1971 25.4625 26.9062H14.9849Z" fill="#C39730"/>
<path d="M23.8191 24.6931C23.4536 23.9616 22.9183 23.3117 22.271 22.8137C22.0316 22.6295 21.6882 22.6742 21.5041 22.9137C21.3199 23.1531 21.3647 23.4964 21.6041 23.6806C22.1211 24.0783 22.5486 24.5975 22.8406 25.1819C22.9758 25.4526 23.3045 25.5615 23.5742 25.4268C23.8444 25.2918 23.954 24.9634 23.8191 24.6931Z" fill="#C39730"/>
</svg>
