<svg width="28" height="28" viewBox="0 0 28 28" fill="none" xmlns="http://www.w3.org/2000/svg">
<g clip-path="url(#clip0_520_8139)">
<path d="M27.5624 13.72C27.5619 13.7091 27.5558 13.7004 27.5545 13.6899C27.5523 13.5993 27.5532 13.5092 27.5497 13.4186C27.3948 9.79961 25.8395 6.45711 23.1708 4.00711C20.5309 1.58467 17.1136 0.326423 13.5379 0.446736C13.516 0.447173 13.4941 0.445861 13.4723 0.446736C13.4666 0.446736 13.4609 0.448048 13.4552 0.448048C13.4434 0.448486 13.4316 0.448048 13.4198 0.448486C9.11082 0.633111 5.35488 2.82192 3.00594 6.07299C2.9985 6.0813 2.98844 6.08524 2.98144 6.09399C2.97138 6.10667 2.96919 6.12242 2.96088 6.13555C1.26513 8.51074 0.315754 11.4442 0.450067 14.5789C0.454004 14.669 0.462754 14.7587 0.468004 14.8484C0.468004 14.8593 0.462316 14.8694 0.462754 14.8803C0.463191 14.8952 0.470629 14.9074 0.472816 14.9219C0.708629 18.4083 2.24469 21.6178 4.82857 23.9899C7.35119 26.3052 10.5821 27.5612 13.9854 27.5612C14.1766 27.5612 14.3687 27.5564 14.5612 27.549H14.58C18.1994 27.3937 21.5415 25.8388 23.9911 23.17C26.3632 20.5857 27.6193 17.2559 27.5558 13.7616C27.5567 13.7476 27.5628 13.7345 27.5624 13.72ZM24.5843 21.0394C24.072 20.7056 22.9577 20.0572 21.3276 19.5073C21.6749 17.941 21.8539 16.2155 21.8289 14.3916L26.7084 14.1825C26.676 16.6478 25.9397 19.0112 24.5843 21.0394ZM1.3535 15.2684L6.06625 15.0667C6.20538 16.9842 6.56588 18.7727 7.09919 20.3652C6.10563 20.7791 5.07838 21.2831 4.02357 21.8768C2.51944 19.9802 1.595 17.7044 1.3535 15.2684ZM7.37613 8.65467C8.73938 9.04055 10.3914 9.33017 12.3063 9.33017C12.6528 9.33017 13.0098 9.31836 13.3729 9.29824L13.5698 13.8933L6.87082 14.1803C6.79732 12.2098 6.98238 10.3347 7.37613 8.65467ZM26.6913 13.3315L21.8005 13.5411C21.6986 11.3974 21.3319 9.36167 20.74 7.55261C21.7572 7.1313 22.8085 6.61986 23.8909 6.01042C25.5718 8.08286 26.5496 10.6221 26.6913 13.3315ZM20.9504 13.5774L14.4194 13.857L14.2217 9.23524C15.9664 9.06374 17.8836 8.64374 19.9481 7.86586C20.5064 9.58786 20.8524 11.5282 20.9504 13.5774ZM14.1849 8.37905L13.8818 1.30117C15.5836 1.3878 17.2124 2.56249 18.5026 4.6533C18.9471 5.37342 19.3304 6.18761 19.6624 7.0613C17.6841 7.80767 15.8523 8.21105 14.1849 8.37905ZM13.0321 1.34842L13.3362 8.44642C11.0577 8.57417 9.12175 8.27099 7.58919 7.83655C8.61119 4.26436 10.611 1.73736 13.0321 1.34842ZM6.91763 15.0299L13.6057 14.7434L13.7737 18.6634C11.9878 18.8265 10.0234 19.2487 7.90419 20.0502C7.398 18.5369 7.05282 16.8385 6.91763 15.0299ZM13.81 19.5143L14.1176 26.6937C11.7061 26.551 9.52119 24.262 8.19119 20.8509C10.2229 20.0817 12.1033 19.6744 13.81 19.5143ZM14.9676 26.656L14.6592 19.4535C16.8992 19.3441 18.8084 19.6495 20.327 20.0835C19.3606 23.7489 17.3997 26.2947 14.9676 26.656ZM14.6229 18.6043L14.4562 14.7075L20.9789 14.4284C21.0016 16.153 20.8411 17.7835 20.5256 19.2592C18.9331 18.8073 16.9443 18.4927 14.6229 18.6043ZM23.3156 5.35417C22.3343 5.8993 21.3774 6.36699 20.4534 6.75155C20.103 5.82974 19.6974 4.96917 19.2267 4.20661C18.5582 3.12336 17.7974 2.26105 16.9762 1.63542C19.0526 2.13199 20.9793 3.15049 22.5954 4.63405C22.847 4.86505 23.0854 5.10655 23.3156 5.35417ZM9.99194 1.93817C8.574 3.1903 7.45094 5.16036 6.76144 7.57974C5.37194 7.10374 4.40813 6.55949 3.92863 6.25542C5.4555 4.27311 7.5555 2.74886 9.99194 1.93817ZM3.43207 6.94624C3.95619 7.28049 5.02413 7.88161 6.54663 8.39742C6.13232 10.161 5.94113 12.1315 6.01988 14.2166L1.2975 14.4187C1.20607 11.6655 2.00275 9.08167 3.43207 6.94624ZM4.58488 22.5379C5.54519 22.0045 6.48144 21.5452 7.3875 21.1663C8.27257 23.4452 9.52994 25.253 11.0061 26.355C8.93669 25.8567 7.01563 24.8422 5.40388 23.3625C5.11644 23.0987 4.84432 22.8231 4.58488 22.5379ZM23.3637 22.5939C21.8596 24.2323 19.9954 25.4197 17.9352 26.0869C19.3439 24.822 20.4552 22.8078 21.125 20.3302C22.6103 20.8382 23.6205 21.4266 24.0878 21.7294C23.8598 22.026 23.6196 22.3152 23.3637 22.5939Z" fill="#C39730"/>
</g>
<defs>
<clipPath id="clip0_520_8139">
<rect width="28" height="28" fill="white"/>
</clipPath>
</defs>
</svg>
