<svg width="32" height="21" viewBox="0 0 32 21" fill="none" xmlns="http://www.w3.org/2000/svg">
<path d="M21.5508 10.0563L31.2392 17.7826V2.33008L21.5508 10.0563Z" fill="white"/>
<path d="M0.578125 2.33014V17.7826L10.2666 10.0564L0.578125 2.33014Z" fill="white"/>
<path d="M20.5665 10.8535L18.5429 12.4478C17.8071 13.061 16.8873 13.3676 15.9062 13.3676C14.9251 13.3676 14.0053 13.061 13.2695 12.4478L11.2459 10.8535L0.944261 19.0703C0.760303 19.2543 0.637665 19.4996 0.760303 19.7448C0.821623 19.9901 1.0669 20.1741 1.31218 20.1741H30.5002C30.7455 20.1741 30.9908 19.9901 31.0521 19.7448C31.1134 19.4996 31.0521 19.2543 30.8681 19.0703L20.5665 10.8535Z" fill="white"/>
<path d="M14.0053 11.528C14.5572 11.9573 15.2317 12.2026 15.9062 12.2026C16.5807 12.2026 17.2552 12.0186 17.8071 11.528L30.8681 1.10375C31.0521 0.919791 31.1747 0.674513 31.0521 0.429236C30.9908 0.183958 30.7455 0 30.4389 0H1.31218C1.0669 0 0.821623 0.183958 0.760303 0.429236C0.637665 0.674513 0.760303 0.919791 0.944261 1.10375L14.0053 11.528Z" fill="white"/>
</svg>
