<svg width="18" height="15" viewBox="0 0 18 15" fill="none" xmlns="http://www.w3.org/2000/svg">
<g clip-path="url(#clip0_1_4173)">
<path d="M14.25 0.625H3.75C2.7558 0.625992 1.80267 0.955551 1.09966 1.54139C0.396661 2.12722 0.00119089 2.9215 0 3.75L0 11.25C0.00119089 12.0785 0.396661 12.8728 1.09966 13.4586C1.80267 14.0444 2.7558 14.374 3.75 14.375H14.25C15.2442 14.374 16.1973 14.0444 16.9003 13.4586C17.6033 12.8728 17.9988 12.0785 18 11.25V3.75C17.9988 2.9215 17.6033 2.12722 16.9003 1.54139C16.1973 0.955551 15.2442 0.625992 14.25 0.625ZM3.75 1.875H14.25C14.6991 1.87574 15.1376 1.98845 15.5092 2.19863C15.8808 2.40881 16.1684 2.70684 16.335 3.05437L10.5915 7.84125C10.1688 8.19207 9.59656 8.38904 9 8.38904C8.40344 8.38904 7.83118 8.19207 7.4085 7.84125L1.665 3.05437C1.83161 2.70684 2.11921 2.40881 2.49079 2.19863C2.86236 1.98845 3.30091 1.87574 3.75 1.875ZM14.25 13.125H3.75C3.15326 13.125 2.58097 12.9275 2.15901 12.5758C1.73705 12.2242 1.5 11.7473 1.5 11.25V4.6875L6.348 8.725C7.05197 9.31016 8.00569 9.63877 9 9.63877C9.99431 9.63877 10.948 9.31016 11.652 8.725L16.5 4.6875V11.25C16.5 11.7473 16.2629 12.2242 15.841 12.5758C15.419 12.9275 14.8467 13.125 14.25 13.125Z" fill="#C39730"/>
</g>
<defs>
<clipPath id="clip0_1_4173">
<rect width="18" height="15" fill="white"/>
</clipPath>
</defs>
</svg>
