<svg width="18" height="13" viewBox="0 0 18 13" fill="none" xmlns="http://www.w3.org/2000/svg">
<path d="M12.312 6.82995L17.9998 11.3658V2.29413L12.312 6.82995Z" fill="#0B63BD"/>
<path d="M0 2.29413V11.3658L5.68778 6.82995L0 2.29413Z" fill="#0B63BD"/>
<path d="M11.7342 7.29797L10.5462 8.23394C10.1142 8.59392 9.57425 8.77392 8.99827 8.77392C8.4223 8.77392 7.88232 8.59392 7.45033 8.23394L6.26238 7.29797L0.214614 12.1218C0.106618 12.2298 0.0346206 12.3738 0.106618 12.5178C0.142616 12.6618 0.286611 12.7698 0.430605 12.7698H17.5659C17.7099 12.7698 17.8539 12.6618 17.8899 12.5178C17.9259 12.3738 17.8899 12.2298 17.7819 12.1218L11.7342 7.29797Z" fill="#0B63BD"/>
<path d="M7.88232 7.69395C8.20631 7.94594 8.60229 8.08993 8.99828 8.08993C9.39426 8.08993 9.79025 7.98194 10.1142 7.69395L17.7819 1.57418C17.8899 1.46619 17.9619 1.32219 17.8899 1.1782C17.8539 1.0342 17.7099 0.926208 17.5299 0.926208H0.430605C0.286611 0.926208 0.142616 1.0342 0.106618 1.1782C0.0346206 1.32219 0.106618 1.46619 0.214614 1.57418L7.88232 7.69395Z" fill="#0B63BD"/>
</svg>
