<svg width="20" height="13" viewBox="0 0 20 13" fill="none" xmlns="http://www.w3.org/2000/svg">
<path d="M10.2531 12.5772C10.2515 12.5772 10.2497 12.5772 10.248 12.5772C9.66699 12.5738 4.53099 12.5337 3.07586 12.1964C2.05891 11.962 1.25614 11.2747 0.982032 10.4029C0.601283 9.17768 0.625521 6.81877 0.628165 6.63041C0.625668 6.44293 0.601136 4.06451 0.980857 2.82922C0.981298 2.82808 0.981592 2.82682 0.982032 2.82569C1.25305 1.96384 2.07389 1.25523 3.07336 1.02028C3.07586 1.01965 3.0785 1.01915 3.081 1.01852C4.51968 0.694428 9.66581 0.654767 10.248 0.651367H10.2584C10.8408 0.654767 15.9905 0.694932 17.4322 1.03275C18.4465 1.26643 19.2487 1.95289 19.5236 2.82355C19.9186 4.05973 19.882 6.44331 19.878 6.64451C19.8808 6.8427 19.9039 9.18045 19.5253 10.4118C19.525 10.4131 19.5246 10.4142 19.5243 10.4154C19.25 11.2872 18.4474 11.9745 17.4293 12.2091C17.428 12.2094 17.4265 12.2097 17.4252 12.2101C15.9867 12.534 10.8404 12.5737 10.2584 12.5772C10.2566 12.5772 10.2549 12.5772 10.2531 12.5772ZM2.43481 3.15985C2.10048 4.25023 2.13206 6.59831 2.13236 6.62198V6.63897C2.12237 7.29018 2.15748 9.17604 2.43496 10.0692C2.56951 10.497 2.96539 10.8358 3.46748 10.9515C4.54112 11.2004 8.72422 11.2787 10.2531 11.2879C11.7859 11.2787 15.9752 11.2025 17.0409 10.9636C17.5414 10.8475 17.9359 10.5098 18.0714 10.0816C18.3491 9.17529 18.384 7.29861 18.3738 6.65157C18.3738 6.64477 18.3738 6.63797 18.374 6.63117C18.3878 5.97216 18.3606 4.06426 18.0727 3.16388C18.0724 3.163 18.0721 3.16212 18.072 3.16124C17.9368 2.73164 17.5408 2.39282 17.0387 2.27711C15.9755 2.02793 11.7856 1.94987 10.2531 1.94068C8.72128 1.94987 4.53613 2.02592 3.46718 2.26464C2.97465 2.38174 2.56981 2.73264 2.43481 3.15985ZM8.33598 9.22502V4.00344L13.6007 6.6143L8.33598 9.22502Z" fill="white"/>
</svg>
