<svg width="19" height="17" viewBox="0 0 19 17" fill="none" xmlns="http://www.w3.org/2000/svg">
<path d="M9.53858 16.4812C9.47863 16.4812 9.41869 16.4812 9.35833 16.481C7.93929 16.4839 6.62812 16.453 5.353 16.3865C4.18396 16.3255 3.11684 15.9793 2.26685 15.3852C1.4467 14.8119 0.886625 14.0369 0.602236 13.0817C0.354726 12.2501 0.341604 11.4338 0.329035 10.6443C0.31992 10.0778 0.310527 9.40657 0.308594 8.72394C0.310527 8.03847 0.31992 7.36721 0.329035 6.80072C0.341604 6.01131 0.354726 5.19502 0.602236 4.36334C0.886625 3.40819 1.4467 2.6331 2.26685 2.05986C3.11684 1.46579 4.18396 1.1195 5.35314 1.05853C6.62826 0.992118 7.9397 0.961101 9.36178 0.96406C10.7812 0.961456 12.092 0.992118 13.3671 1.05853C14.5362 1.1195 15.6033 1.46579 16.4533 2.05986C17.2736 2.6331 17.8335 3.40819 18.1179 4.36334C18.3654 5.1949 18.3785 6.01131 18.3911 6.80072C18.4002 7.36721 18.4097 8.03847 18.4115 8.7211V8.72394C18.4097 9.40657 18.4002 10.0778 18.3911 10.6443C18.3785 11.4337 18.3655 12.25 18.1179 13.0817C17.8335 14.0369 17.2736 14.8119 16.4533 15.3852C15.6033 15.9793 14.5362 16.3255 13.3671 16.3865C12.146 16.4502 10.8916 16.4812 9.53858 16.4812ZM9.35833 15.2687C10.7543 15.2715 12.0361 15.2413 13.2812 15.1765C14.1652 15.1304 14.9316 14.8845 15.5595 14.4456C16.1399 14.0399 16.5396 13.4802 16.7475 12.7819C16.9535 12.0897 16.9654 11.3465 16.9769 10.6277C16.9859 10.065 16.9952 9.39852 16.9972 8.72252C16.9952 8.0464 16.9859 7.38 16.9769 6.8173C16.9654 6.09856 16.9535 5.35532 16.7475 4.66299C16.5396 3.96473 16.1399 3.40499 15.5595 2.99927C14.9316 2.56053 14.1652 2.31463 13.2812 2.26858C12.0361 2.20359 10.7543 2.17363 9.36165 2.17624C7.96595 2.1734 6.68406 2.20359 5.43891 2.26858C4.55494 2.31463 3.78852 2.56053 3.16063 2.99927C2.58025 3.40499 2.18053 3.96473 1.97266 4.66299C1.76658 5.35532 1.75471 6.09844 1.74324 6.8173C1.73426 7.38047 1.72487 8.04735 1.72294 8.72394C1.72487 9.39757 1.73426 10.0646 1.74324 10.6277C1.75471 11.3465 1.76658 12.0897 1.97266 12.7819C2.18053 13.4802 2.58025 14.0399 3.16063 14.4456C3.78852 14.8844 4.55494 15.1303 5.43891 15.1763C6.68406 15.2413 7.96622 15.2716 9.35833 15.2687ZM9.32463 12.5109C6.88765 12.5109 4.9048 10.8115 4.9048 8.72252C4.9048 6.63356 6.88765 4.93409 9.32463 4.93409C11.7618 4.93409 13.7445 6.63356 13.7445 8.72252C13.7445 10.8115 11.7618 12.5109 9.32463 12.5109ZM9.32463 6.14639C7.66747 6.14639 6.31915 7.3021 6.31915 8.72252C6.31915 10.1429 7.66747 11.2986 9.32463 11.2986C10.9819 11.2986 12.3301 10.1429 12.3301 8.72252C12.3301 7.3021 10.9819 6.14639 9.32463 6.14639ZM14.2395 3.7218C13.6537 3.7218 13.1787 4.12882 13.1787 4.63102C13.1787 5.13322 13.6537 5.54024 14.2395 5.54024C14.8254 5.54024 15.3002 5.13322 15.3002 4.63102C15.3002 4.12882 14.8254 3.7218 14.2395 3.7218Z" fill="white"/>
</svg>
