<svg width="18" height="16" viewBox="0 0 18 16" fill="none" xmlns="http://www.w3.org/2000/svg">
<path d="M2.28715 0.960938C0.996316 0.960938 0.152344 1.68747 0.152344 2.6424C0.152344 3.57625 0.971174 4.3235 2.23762 4.3235H2.26211C3.57819 4.3235 4.39724 3.57625 4.39724 2.6424C4.37263 1.68747 3.57819 0.960938 2.28715 0.960938Z" fill="white"/>
<path d="M0.375 5.64844H4.14864V15.3797H0.375V5.64844Z" fill="white"/>
<path d="M13.4128 5.42285C11.3771 5.42285 10.012 7.06251 10.012 7.06251V5.65125H6.23828V15.3825H10.0118V9.9482C10.0118 9.65728 10.0364 9.36681 10.1361 9.15877C10.4089 8.57783 11.0297 7.97599 12.0723 7.97599C13.4378 7.97599 13.9839 8.86839 13.9839 10.1766V15.3825H17.7572V9.80278C17.7572 6.81376 15.8954 5.42285 13.4128 5.42285Z" fill="white"/>
</svg>
