<svg width="17" height="18" viewBox="0 0 17 18" fill="none" xmlns="http://www.w3.org/2000/svg">
<path fill-rule="evenodd" clip-rule="evenodd" d="M14.875 0H2.125C0.953062 0 0 1.00912 0 2.25V15.75C0 16.9909 0.953062 18 2.125 18H8.5V11.8125H6.375V9H8.5V6.75C8.5 5.85489 8.83582 4.99645 9.4336 4.36351C10.0314 3.73058 10.8421 3.375 11.6875 3.375H13.8125V6.1875H12.75C12.1635 6.1875 11.6875 6.129 11.6875 6.75V9H14.3438L13.2812 11.8125H11.6875V18H14.875C16.0469 18 17 16.9909 17 15.75V2.25C17 1.00912 16.0469 0 14.875 0Z" fill="white"/>
</svg>
