<svg width="22" height="22" viewBox="0 0 22 22" fill="none" xmlns="http://www.w3.org/2000/svg">
<path fill-rule="evenodd" clip-rule="evenodd" d="M18.0664 3.07329C16.0779 1.09257 13.4342 0.000881104 10.618 0C4.81451 0 0.0911906 4.69981 0.0885346 10.4781C0.0876492 12.3249 0.572819 14.1276 1.49446 15.7171L0 21.1465L5.58122 19.6891C7.11906 20.5244 8.8508 20.9641 10.6126 20.965H10.6171C16.4196 20.965 21.1438 16.2643 21.1465 10.486C21.1483 7.68675 20.054 5.05313 18.0664 3.07329ZM10.618 19.1948H10.6144C9.04381 19.1948 7.50419 18.7746 6.16023 17.9807L5.84063 17.7921L2.52855 18.6565L3.41301 15.4422L3.20495 15.1127C2.32846 13.7258 1.86631 12.1231 1.86719 10.4781C1.86896 5.67607 5.79547 1.76926 10.6224 1.76926C12.9597 1.76926 15.1571 2.67679 16.8092 4.32269C18.4612 5.96948 19.3705 8.15726 19.3696 10.4843C19.3669 15.288 15.4413 19.1948 10.618 19.1948ZM15.4183 12.672C15.1553 12.5407 13.8619 11.9072 13.6202 11.82C13.3793 11.7328 13.204 11.6887 13.0279 11.9504C12.8517 12.2121 12.3488 12.8024 12.1948 12.9778C12.0416 13.1522 11.8875 13.1743 11.6246 13.043C11.3616 12.9117 10.5135 12.6359 9.50861 11.7433C8.72685 11.049 8.1983 10.1917 8.04514 9.92916C7.89197 9.66659 8.0292 9.52561 8.16023 9.39521C8.27887 9.27802 8.42318 9.08946 8.5551 8.93615C8.6879 8.7846 8.73128 8.67535 8.81981 8.50001C8.90746 8.32555 8.86408 8.17224 8.79768 8.04095C8.73128 7.91055 8.20538 6.62149 7.9867 6.09724C7.77333 5.5862 7.55643 5.6558 7.39441 5.64787C7.24124 5.63994 7.06594 5.63906 6.88976 5.63906C6.71446 5.63906 6.42938 5.70426 6.18857 5.96683C5.94775 6.2294 5.26781 6.86292 5.26781 8.15109C5.26781 9.44014 6.2107 10.6851 6.34173 10.8596C6.47276 11.0341 8.19653 13.6791 10.8357 14.8131C11.4635 15.0827 11.9539 15.244 12.3355 15.3647C12.9659 15.5638 13.5396 15.5356 13.9929 15.4687C14.4984 15.3938 15.5493 14.8351 15.7689 14.2237C15.9885 13.6122 15.9885 13.087 15.9221 12.9787C15.8565 12.8685 15.6812 12.8033 15.4183 12.672Z" fill="#098C21"/>
</svg>
