<svg width="116" height="116" viewBox="0 0 116 116" fill="none" xmlns="http://www.w3.org/2000/svg">
<path d="M57.9996 111.546C87.7409 111.546 111.851 87.5727 111.851 57.9998C111.851 28.4268 87.7409 4.45312 57.9996 4.45312C28.2583 4.45312 4.14819 28.4268 4.14819 57.9998C4.14819 87.5727 28.2583 111.546 57.9996 111.546Z" fill="white"/>
<path d="M58.0003 112.174C43.4412 112.174 29.7706 106.531 19.4532 96.3006C9.16435 86.07 3.48975 72.4483 3.48975 57.9716C3.48975 43.4949 9.16435 29.9017 19.4532 19.6426C29.742 9.41202 43.4412 3.76953 58.0003 3.76953C72.5594 3.76953 86.23 9.41202 96.5475 19.6426C106.836 29.8732 112.511 43.4949 112.511 57.9716C112.511 72.4483 106.836 86.0415 96.5475 96.3006C86.23 106.56 72.5594 112.174 58.0003 112.174ZM58.0003 5.08041C28.6529 5.08041 4.77943 28.8188 4.77943 58.0001C4.77943 87.1814 28.6529 110.92 58.0003 110.92C87.3478 110.92 111.221 87.1814 111.221 58.0001C111.221 28.8188 87.3478 5.08041 58.0003 5.08041Z" fill="#C39730"/>
<path d="M58.0003 115.138C42.6674 115.138 28.2229 109.182 17.3896 98.4096C6.55626 87.6375 0.566406 73.2748 0.566406 58.0287C0.566406 42.7826 6.55626 28.4199 17.3896 17.6479C28.2229 6.87588 42.6674 0.919922 58.0003 0.919922C73.3332 0.919922 87.7776 6.81889 98.6109 17.5909C109.444 28.3629 115.434 42.7256 115.434 57.9717C115.434 73.2178 109.444 87.5806 98.6109 98.3526C87.7776 109.125 73.3332 115.138 58.0003 115.138ZM58.0003 2.11681C27.0192 2.11681 1.79877 27.1945 1.79877 58.0002C1.79877 88.8059 27.0192 113.884 58.0003 113.884C88.9813 113.884 114.202 88.8059 114.202 58.0002C114.202 27.1945 88.9813 2.11681 58.0003 2.11681Z" fill="#C39730"/>
<path d="M33.5827 70.2251C33.5827 63.1862 33.5827 56.0619 33.5827 48.909C36.2767 48.909 38.9134 48.909 41.6361 48.909C41.6361 51.3883 41.6361 53.8391 41.6361 56.3184C41.9226 56.3469 42.1233 56.3753 42.3239 56.3753C45.0465 56.3753 47.7692 56.3753 50.4919 56.3753C51.0364 56.3753 51.5809 56.3184 52.0968 56.2044C53.845 55.8054 54.9914 54.751 55.2494 52.9557C55.3927 51.9867 55.4786 50.9893 55.3353 50.0204C55.0201 47.5412 53.5011 46.3728 50.7785 46.3443C46.7375 46.3158 42.6678 46.3158 38.6268 46.3158C37.2225 46.3158 35.7895 46.3158 34.3852 46.3158C34.1559 46.3158 33.898 46.3158 33.6114 46.3158C33.6114 44.0075 33.6114 41.8132 33.6114 39.5619C33.7547 39.5334 33.8693 39.5049 33.9839 39.5049C39.4579 39.5049 44.9319 39.5049 50.4059 39.5619C52.498 39.5904 54.5902 39.7614 56.5964 40.5023C60.6947 42.0127 63.0448 44.9479 63.4747 49.2795C63.7039 51.6448 63.5033 53.9816 62.5576 56.2044C61.3539 59.0541 59.2331 60.9349 56.3671 62.0178C56.1378 62.1033 55.9085 62.1888 55.6219 62.3028C58.2873 66.7484 60.924 71.137 63.5607 75.5256C61.0959 76.751 58.6885 77.9479 56.1951 79.1733C56.1665 79.1163 56.0232 78.9453 55.9372 78.7458C53.0139 73.7303 50.062 68.6862 47.1387 63.6707C47.0241 63.4712 46.7661 63.1862 46.5942 63.1862C44.9892 63.1577 43.413 63.1577 41.7507 63.1577C41.7507 67.3469 41.7507 71.479 41.7507 75.7536C34.7004 73.5308 27.6502 72.1059 20.256 73.2173C20.256 62.5878 20.256 51.9868 20.256 41.3287C21.4597 41.3287 22.6347 41.3287 23.9244 41.3287C23.9244 50.6189 23.9244 59.852 23.9244 69.0282C27.1343 69.3987 30.3155 69.7976 33.5827 70.2251Z" fill="#C39730"/>
<path d="M73.5333 60.1368C73.5333 60.5358 73.5333 60.7353 73.5333 60.9633C73.5333 64.7819 73.5333 68.6291 73.5906 72.4477C73.5906 73.0177 73.4187 73.1886 72.8741 73.3026C70.5814 73.7586 68.3173 74.3 66.0245 74.7845C65.8525 74.813 65.6806 74.87 65.4513 74.8985C65.4513 63.1006 65.4513 51.3596 65.4513 39.5332C65.8525 39.5332 66.2251 39.5332 66.5977 39.5332C68.6612 39.5332 70.7533 39.5617 72.8168 39.5332C73.4473 39.5332 73.6193 39.7042 73.6193 40.3311C73.5906 45.3182 73.5906 50.3052 73.5906 55.2923C73.5906 55.4063 73.6193 55.5487 73.6479 55.8052C74.5937 54.8078 75.4535 53.9244 76.3133 53.0125C80.383 48.6524 84.4526 44.2923 88.5223 39.9322C88.6942 39.7612 88.9808 39.5902 89.1815 39.5902C92.3627 39.5902 95.5152 39.6187 98.6964 39.6187C98.7251 39.6187 98.7824 39.6472 98.8971 39.7327C93.6237 45.3182 88.3503 50.8467 83.077 56.4322C89.726 64.8389 96.3177 73.1886 102.995 81.6524C102.68 81.6809 102.508 81.7094 102.308 81.7094C100.129 81.7094 97.9513 81.7094 95.7445 81.6809C95.4292 81.6809 95.0567 81.5384 94.7987 81.3389C93.0218 79.971 91.2449 78.6031 89.4967 77.1783C89.0095 76.7793 88.6656 76.2379 88.293 75.7534C85.1118 71.6498 81.9019 67.5462 78.7207 63.4425C78.5774 63.2715 78.4341 63.0721 78.2621 62.9581C76.7432 62.0177 75.2242 61.1057 73.5333 60.1368Z" fill="#C39730"/>
<path d="M90.6433 81.197C88.8951 80.9121 87.2615 80.5131 85.5992 80.4276C82.8479 80.2851 80.0679 80.2281 77.3166 80.3706C73.5622 80.5701 69.8364 81.1685 66.2253 82.1944C62.8721 83.1349 59.6622 84.3602 56.8823 86.5261C55.0194 87.9794 53.5291 89.7748 52.6693 91.9975C52.612 92.14 52.526 92.254 52.3827 92.425C52.2681 92.254 52.1821 92.1685 52.1248 92.0545C50.4052 88.0364 47.2526 85.5001 43.3549 83.7618C39.1133 81.881 34.6137 81.026 30.0569 80.4276C26.9043 80.0001 23.7231 79.7722 20.5705 80.0286C18.2491 80.2281 15.9563 80.6841 13.6349 81.026C13.4343 81.0545 13.2623 81.1115 13.0044 81.026C14.1221 80.2281 15.2685 79.4587 16.3576 78.6038C20.2553 75.4975 24.7835 75.0131 29.5123 75.5261C34.2412 76.039 38.8267 77.0934 43.1543 79.0597C46.5648 80.5986 49.6314 82.6789 51.9242 85.6711C52.0101 85.7851 52.0674 85.8991 52.1534 85.9846C52.2967 85.8706 52.3827 85.8421 52.44 85.7566C55.4206 82.1944 59.347 80.0001 63.5886 78.3473C68.2888 76.495 73.1609 75.5545 78.205 75.6115C81.3289 75.64 84.1949 76.381 86.7169 78.3473C87.978 79.3162 89.2963 80.2281 90.6433 81.197Z" fill="#C39730"/>
<path d="M13.9506 77.2356C13.9506 66.6631 13.9506 56.29 13.9506 45.917C15.1256 45.917 16.272 45.917 17.5044 45.917C17.5044 46.4869 17.5044 47.0284 17.5044 47.5698C17.533 56.404 17.533 65.2382 17.5617 74.0724C17.5617 74.5284 17.447 74.8134 17.0458 75.0698C16.0714 75.7253 15.0969 76.4377 13.9506 77.2356Z" fill="#C39730"/>
<path d="M30.7444 28.1346C30.7444 26.9092 30.7444 25.8263 30.7444 24.6864C27.248 25.5128 23.8375 26.3107 20.427 27.1087C20.427 27.2226 20.427 27.3081 20.427 27.4221C23.5509 28.0776 26.6461 28.7045 29.7987 29.36C29.5694 30.1579 29.3974 30.8703 29.1682 31.6397C29.0249 31.6112 28.8529 31.6112 28.6809 31.5543C25.4997 30.4144 22.3472 29.2745 19.166 28.1346C18.908 28.0491 18.6501 27.9636 18.4208 27.8211C18.2202 27.6501 17.9336 27.4221 17.9336 27.2226C17.9336 27.0232 18.2488 26.7382 18.4781 26.6527C20.2837 25.9973 22.0606 25.3418 23.8948 24.7719C31.031 22.5206 38.1673 20.2978 45.3322 18.075C47.5676 17.3625 49.8031 17.391 52.0385 18.1035C60.7224 20.8962 69.4063 23.689 78.0901 26.4817C78.1761 26.5102 78.2621 26.5387 78.3481 26.5672C78.6633 26.7952 79.1505 26.9662 79.2078 27.2511C79.2938 27.7926 78.7493 27.9921 78.2907 28.1631C75.0522 29.3315 71.8137 30.4714 68.5751 31.6397C67.9446 31.8677 67.3141 32.0957 66.6549 32.2952C66.483 32.3522 66.2537 32.3522 66.1104 32.2382C65.3653 31.6682 64.6488 31.0413 63.875 30.4144C68.0306 29.189 72.3869 28.448 76.7145 27.5931C76.7145 27.5361 76.7145 27.4791 76.7431 27.4221C76.4279 27.3081 76.1126 27.1657 75.7687 27.0802C71.4697 25.9403 67.1708 24.8289 62.8432 23.7175C59.7193 22.9195 56.5954 22.0076 53.4142 21.3807C47.4243 20.1838 41.5778 20.7822 36.0465 23.461C34.0116 24.4584 32.2634 25.8548 31.031 27.8211C31.0024 27.8496 30.9164 27.9066 30.7444 28.1346Z" fill="#C39730"/>
<path d="M34.4412 37.909C34.4412 36.8546 34.4126 35.8857 34.4699 34.9453C34.4699 34.7173 34.7278 34.4323 34.9571 34.2899C37.0779 32.694 39.4853 31.7821 42.0647 31.4401C47.6533 30.6707 53.2133 30.8132 58.63 32.4375C60.1203 32.8935 61.5246 33.6629 62.9576 34.2899C63.3875 34.4608 63.5308 34.7743 63.5308 35.2588C63.5021 36.3417 63.5308 37.4531 63.5308 38.65C53.8438 35.5722 44.2428 35.0308 34.4412 37.909Z" fill="#C39730"/>
<path d="M30.6593 47.0855C29.7422 46.2591 28.8251 45.4612 27.9366 44.5777C27.7647 44.4068 27.736 43.9508 27.822 43.6658C28.3092 41.5 28.8251 39.3057 29.3696 37.1399C29.4842 36.684 29.5416 36.2565 29.1117 35.943C29.0543 35.9145 29.0257 35.829 28.997 35.772C28.5385 35.0311 28.6531 34.0337 29.2836 33.5207C29.7995 33.0933 30.516 33.0648 31.0032 33.4923C31.6337 34.0052 31.863 35.1166 31.2611 35.7435C30.6306 36.4275 30.6593 37.1684 30.6593 37.9378C30.6593 40.7876 30.6593 43.6658 30.6593 46.5156C30.6593 46.7435 30.6593 46.9715 30.6593 47.0855Z" fill="#C39730"/>
<path d="M34.556 29.0746C41.4057 26.1678 48.5133 26.3958 55.6782 27.5927C48.5706 27.1367 41.549 27.6212 34.556 29.0746Z" fill="#C39730"/>
<path d="M33.5815 30.4989C33.0656 31.0689 32.5784 31.6388 32.0339 32.1518C31.8906 32.2943 31.604 32.3228 31.4034 32.2658C31.2314 32.2373 31.0021 32.0378 30.9735 31.8953C30.8875 31.2114 30.8588 30.5274 30.8015 29.7295C31.8046 30.0145 32.7217 30.2424 33.5815 30.4989Z" fill="#C39730"/>
<path d="M69.9791 91.5988C69.6638 91.2568 69.5205 90.7724 69.5205 90.1739V86.1273C69.5205 85.5003 69.6638 85.0159 69.9791 84.7024C70.2943 84.3604 70.7529 84.1895 71.3261 84.1895C71.9279 84.1895 72.3578 84.3604 72.6731 84.7024C72.9883 85.0444 73.1316 85.5288 73.1316 86.1273V86.7827H71.9852V86.0418C71.9852 85.5288 71.7846 85.2724 71.3547 85.2724C70.9248 85.2724 70.7242 85.5288 70.7242 86.0418V90.2594C70.7242 90.7724 70.9248 91.0003 71.3547 91.0003C71.7846 91.0003 71.9852 90.7439 71.9852 90.2594V88.749H71.3834V87.6376H73.1316V90.1739C73.1316 90.8009 72.9883 91.2853 72.6731 91.5988C72.3578 91.9407 71.8993 92.1117 71.3261 92.1117C70.7242 92.1117 70.2943 91.9407 69.9791 91.5988Z" fill="#C39730"/>
<path d="M74.221 84.2744H76.0266C76.6571 84.2744 77.1157 84.4169 77.4023 84.7019C77.6889 84.9868 77.8322 85.4428 77.8322 86.0413V86.5257C77.8322 87.3236 77.5742 87.8366 77.0297 88.0361V88.0646C77.3163 88.1501 77.5456 88.3211 77.6602 88.606C77.7748 88.891 77.8322 89.233 77.8322 89.6889V91.0568C77.8322 91.2848 77.8322 91.4558 77.8608 91.5983C77.8895 91.7407 77.9181 91.8547 77.9755 91.9972H76.7431C76.6858 91.8832 76.6571 91.7407 76.6571 91.6553C76.6285 91.5413 76.6285 91.3418 76.6285 91.0568V89.6604C76.6285 89.3185 76.5711 89.062 76.4565 88.9195C76.3419 88.777 76.1412 88.72 75.8546 88.72H75.4248V92.0257H74.1924V84.2744H74.221ZM75.8833 87.5801C76.1412 87.5801 76.3132 87.5231 76.4278 87.3806C76.5425 87.2666 76.5998 87.0387 76.5998 86.7537V86.1552C76.5998 85.8703 76.5425 85.6708 76.4565 85.5568C76.3705 85.4428 76.1986 85.3573 75.9979 85.3573H75.4534V87.5516H75.8833V87.5801Z" fill="#C39730"/>
<path d="M79.3515 91.5988C79.0362 91.2568 78.8643 90.7724 78.8643 90.1739V86.1273C78.8643 85.5003 79.0362 85.0444 79.3515 84.7024C79.6667 84.3604 80.1253 84.1895 80.7271 84.1895C81.329 84.1895 81.7875 84.3604 82.1028 84.7024C82.418 85.0444 82.59 85.5288 82.59 86.1273V90.1739C82.59 90.8009 82.418 91.2568 82.1028 91.5988C81.7875 91.9407 81.329 92.1117 80.7271 92.1117C80.1253 92.1117 79.6667 91.9407 79.3515 91.5988ZM81.3576 90.2309V86.0133C81.3576 85.5003 81.157 85.2439 80.7271 85.2439C80.2972 85.2439 80.0966 85.5003 80.0966 86.0133V90.2309C80.0966 90.7439 80.2972 91.0003 80.7271 91.0003C81.157 91.0003 81.3576 90.7439 81.3576 90.2309Z" fill="#C39730"/>
<path d="M84.0793 91.5983C83.764 91.2563 83.6207 90.7718 83.6207 90.1734V84.2744H84.8531V90.2589C84.8531 90.5153 84.9104 90.7148 85.025 90.8288C85.1397 90.9428 85.283 90.9998 85.4836 90.9998C85.6842 90.9998 85.8275 90.9428 85.9421 90.8288C86.0568 90.7148 86.1141 90.5153 86.1141 90.2589V84.2744H87.2892V90.1734C87.2892 90.8003 87.1459 91.2848 86.8306 91.5983C86.5153 91.9402 86.0568 92.1112 85.4836 92.1112C84.8531 92.1112 84.3945 91.9402 84.0793 91.5983Z" fill="#C39730"/>
<path d="M88.4077 84.2744H90.2133C90.8151 84.2744 91.2737 84.4454 91.5889 84.7589C91.9042 85.0723 92.0475 85.5568 92.0475 86.1837V86.9532C92.0475 87.5801 91.9042 88.0646 91.5889 88.378C91.2737 88.6915 90.8438 88.8625 90.2133 88.8625H89.6401V91.9972H88.4077V84.2744ZM90.1846 87.7511C90.3852 87.7511 90.5285 87.6941 90.6432 87.5801C90.7291 87.4661 90.7865 87.2951 90.7865 87.0102V86.0983C90.7865 85.8418 90.7291 85.6423 90.6432 85.5283C90.5572 85.4143 90.3852 85.3573 90.1846 85.3573H89.6114V87.7226H90.1846V87.7511Z" fill="#C39730"/>
</svg>
