<svg width="21" height="22" viewBox="0 0 21 22" fill="none" xmlns="http://www.w3.org/2000/svg">
<path d="M18.8959 19.6301V19.6295H18.9001V13.4681C18.9001 10.4539 18.2512 8.13196 14.7274 8.13196C13.0333 8.13196 11.8966 9.06163 11.4325 9.94279H11.3836V8.41336H8.04248V19.6295H11.5215V14.0756C11.5215 12.6134 11.7987 11.1992 13.6096 11.1992C15.3939 11.1992 15.4204 12.8681 15.4204 14.1692V19.6301H18.8959Z" fill="#0B63BD"/>
<path d="M2.37744 8.41394H5.86071V19.63H2.37744V8.41394Z" fill="#0B63BD"/>
<path d="M4.11757 2.83008C3.00373 2.83008 2.1001 3.73371 2.1001 4.84755C2.1001 5.96139 3.00373 6.88392 4.11757 6.88392C5.23141 6.88392 6.13504 5.96139 6.13504 4.84755C6.1342 3.73371 5.23057 2.83008 4.11757 2.83008Z" fill="#0B63BD"/>
</svg>
