<svg width="19" height="19" viewBox="0 0 19 19" fill="none" xmlns="http://www.w3.org/2000/svg">
<g clip-path="url(#clip0_1_4097)">
<path d="M2.565 0.158203C1.86835 0.158203 1.235 0.411549 0.76 0.886549C0.253346 1.3932 0 2.02651 0 2.69151C0 3.38817 0.285 4.02151 0.76 4.49651C1.235 4.97151 1.9 5.25651 2.53335 5.22486C2.53335 5.22486 2.565 5.22486 2.59669 5.22486C3.23004 5.22486 3.83169 4.97151 4.30669 4.49651C4.78169 4.02151 5.06669 3.38817 5.06669 2.69151C5.09835 2.02651 4.81335 1.39317 4.33835 0.918166C3.86335 0.411512 3.23 0.158203 2.565 0.158203ZM3.86335 4.0532C3.515 4.40155 3.04 4.6232 2.53335 4.59155C2.05835 4.59155 1.55169 4.40155 1.20335 4.0532C0.823346 3.70486 0.633346 3.1982 0.633346 2.69155C0.633346 2.18489 0.823346 1.70989 1.20335 1.32989C1.55169 0.981549 2.02669 0.791549 2.565 0.791549C3.04 0.791549 3.515 0.981549 3.86335 1.32989C4.24335 1.70989 4.43335 2.18489 4.43335 2.69155C4.43335 3.1982 4.24335 3.70486 3.86335 4.0532Z" fill="white"/>
<path d="M3.79975 5.8584H1.23475C0.728098 5.8584 0.316406 6.27005 0.316406 6.8084V17.8917C0.316406 18.3984 0.759752 18.8417 1.26641 18.8417H3.79975C4.30641 18.8417 4.74975 18.3984 4.74975 17.9234V6.8084C4.74975 6.30171 4.30641 5.8584 3.79975 5.8584ZM4.11641 17.9234C4.11641 18.0817 3.95806 18.2084 3.79975 18.2084H1.26641C1.10806 18.2084 0.949752 18.0501 0.949752 17.8917V6.8084C0.949752 6.65005 1.07641 6.49174 1.23475 6.49174H3.79975C3.9581 6.49174 4.11641 6.65009 4.11641 6.8084V17.9234Z" fill="white"/>
<path d="M14.5658 5.5415H13.9008C12.6658 5.5415 11.4941 6.07985 10.7341 6.93485V6.4915C10.7341 6.17485 10.4175 5.85816 10.1008 5.85816H6.93413C6.64913 5.85816 6.30078 6.1115 6.30078 6.45981V18.2715C6.30078 18.6198 6.64913 18.8415 6.93413 18.8415H10.4175C10.7025 18.8415 11.0508 18.6198 11.0508 18.2715V11.4315C11.0508 10.3865 11.8108 9.56312 12.7925 9.56312C13.2991 9.56312 13.7741 9.75312 14.1225 10.1015C14.4391 10.3865 14.5658 10.8298 14.5658 11.3998V18.2082C14.5658 18.5248 14.8825 18.8415 15.1992 18.8415H18.3658C18.6825 18.8415 18.9992 18.5248 18.9992 18.2082V10.0382C18.9991 7.50485 17.0675 5.5415 14.5658 5.5415ZM18.3658 18.1765L18.3341 18.2082H15.2308L15.1991 11.3998C15.1991 10.6398 15.0091 10.0698 14.5975 9.6582C14.1225 9.1832 13.4891 8.92985 12.8241 8.92985C11.4941 8.9615 10.4491 10.0382 10.4491 11.4315V18.2082H6.96578V6.4915H10.1008L10.1324 6.52316V8.51816L10.9874 7.66316L11.0191 7.6315C11.6524 6.74485 12.7607 6.17485 13.9324 6.17485H14.5974C16.7191 6.17485 18.3658 7.88485 18.3658 10.0382V18.1765Z" fill="white"/>
</g>
<defs>
<clipPath id="clip0_1_4097">
<rect width="19" height="19" fill="white"/>
</clipPath>
</defs>
</svg>
