<svg width="17" height="18" viewBox="0 0 17 18" fill="none" xmlns="http://www.w3.org/2000/svg">
<g clip-path="url(#clip0_530_2476)">
<path d="M16.9489 5.72562C16.9075 4.82083 16.7638 4.20294 16.5537 3.66235C16.3403 3.09518 16.0057 2.58144 15.5733 2.1568C15.1488 1.72438 14.6349 1.38963 14.0677 1.17614C13.527 0.966156 12.9093 0.822578 12.0045 0.781464C11.098 0.73996 10.8084 0.730103 8.5 0.730103C6.1916 0.730103 5.90199 0.73996 4.99551 0.781204C4.09073 0.822578 3.47297 0.966286 2.93225 1.1764C2.36507 1.38976 1.85133 1.72438 1.4267 2.1568C0.994278 2.58131 0.659523 3.09505 0.446037 3.66222C0.236053 4.20294 0.0924759 4.82083 0.0513611 5.72549C0.00985718 6.63209 0 6.92158 0 9.22997C0 11.5385 0.00985718 11.8281 0.0513611 12.7346C0.0926056 13.6392 0.236313 14.2571 0.446426 14.7979C0.659782 15.3649 0.994408 15.8788 1.42683 16.3033C1.85133 16.7357 2.3652 17.0703 2.93238 17.2837C3.47297 17.4939 4.09086 17.6375 4.99564 17.6789C5.90224 17.7202 6.19173 17.73 8.50013 17.73C10.8085 17.73 11.0981 17.7202 12.0046 17.6789C12.9094 17.6375 13.5272 17.4939 14.0679 17.2837C15.2096 16.8422 16.1122 15.9396 16.5537 14.7979C16.7639 14.2571 16.9075 13.6392 16.9489 12.7346C16.9901 11.828 17 11.5385 17 9.2301C17 6.92158 16.9901 6.63209 16.9489 5.72562ZM15.4188 12.6649C15.3811 13.4937 15.2426 13.9438 15.1262 14.2433C14.8402 14.9846 14.2544 15.5705 13.513 15.8565C13.2135 15.9728 12.7635 16.1113 11.9347 16.1491C11.0386 16.1901 10.7697 16.1986 8.5 16.1986C6.23013 16.1986 5.96139 16.1901 5.06516 16.1491C4.23651 16.1113 3.78645 15.9728 3.48685 15.8565C3.11772 15.7201 2.78374 15.5029 2.50956 15.2205C2.2272 14.9464 2.00996 14.6125 1.87364 14.2433C1.7573 13.9438 1.61878 13.4937 1.58104 12.6649C1.54018 11.7687 1.53149 11.4998 1.53149 9.23023C1.53149 6.96049 1.54018 6.69175 1.58104 5.7954C1.61891 4.96661 1.7573 4.51656 1.87364 4.21708C2.00996 3.84782 2.22733 3.51385 2.50956 3.23966C2.78374 2.95731 3.11772 2.74006 3.48698 2.60387C3.78645 2.4874 4.23651 2.34901 5.06529 2.31114C5.96152 2.27029 6.23038 2.2616 8.5 2.2616H8.49987C10.7695 2.2616 11.0384 2.27029 11.9347 2.31127C12.7635 2.34901 13.2134 2.48753 13.513 2.60387C13.8821 2.74019 14.2161 2.95744 14.4903 3.23966C14.7727 3.51385 14.9899 3.84782 15.1261 4.21708C15.2426 4.51656 15.3811 4.96661 15.4188 5.7954C15.4597 6.69162 15.4684 6.96049 15.4684 9.2301C15.4684 11.4998 15.4598 11.7686 15.4188 12.6649Z" fill="url(#paint0_linear_530_2476)"/>
<path d="M8.50004 4.86526C6.08944 4.86526 4.13525 6.81958 4.13525 9.23018C4.13525 11.6408 6.08944 13.595 8.50004 13.595C10.9108 13.595 12.865 11.6408 12.865 9.23018C12.865 6.81958 10.9108 4.86526 8.50004 4.86526ZM8.50004 12.0635C6.93534 12.0633 5.66675 10.7949 5.66688 9.23005C5.66688 7.66535 6.93534 6.39676 8.50017 6.39676C10.065 6.39689 11.3335 7.66535 11.3335 9.23005C11.3335 10.7949 10.0649 12.0635 8.50004 12.0635Z" fill="url(#paint1_linear_530_2476)"/>
<path d="M14.0571 4.69282C14.0571 5.2561 13.6005 5.71278 13.0372 5.71278C12.4738 5.71278 12.0171 5.2561 12.0171 4.69282C12.0171 4.1294 12.4738 3.67273 13.0372 3.67273C13.6005 3.67273 14.0571 4.1294 14.0571 4.69282Z" fill="url(#paint2_linear_530_2476)"/>
</g>
<defs>
<linearGradient id="paint0_linear_530_2476" x1="1.42661" y1="16.3034" x2="15.5734" y2="2.15658" gradientUnits="userSpaceOnUse">
<stop stop-color="#FFD600"/>
<stop offset="0.5" stop-color="#FF0100"/>
<stop offset="1" stop-color="#D800B9"/>
</linearGradient>
<linearGradient id="paint1_linear_530_2476" x1="5.4137" y1="12.3165" x2="11.5865" y2="6.14371" gradientUnits="userSpaceOnUse">
<stop stop-color="#FF6400"/>
<stop offset="0.5" stop-color="#FF0100"/>
<stop offset="1" stop-color="#FD0056"/>
</linearGradient>
<linearGradient id="paint2_linear_530_2476" x1="12.3159" y1="5.41399" x2="13.7584" y2="3.97153" gradientUnits="userSpaceOnUse">
<stop stop-color="#F30072"/>
<stop offset="1" stop-color="#E50097"/>
</linearGradient>
<clipPath id="clip0_530_2476">
<rect width="17" height="17" fill="white" transform="translate(0 0.730103)"/>
</clipPath>
</defs>
</svg>
