<svg width="101" height="15" viewBox="0 0 101 15" fill="none" xmlns="http://www.w3.org/2000/svg">
<mask id="mask0_1_4198" style="mask-type:luminance" maskUnits="userSpaceOnUse" x="0" y="0" width="101" height="15">
<path d="M100.792 0.908203H0.210938V14.2929H100.792V0.908203Z" fill="white"/>
</mask>
<g mask="url(#mask0_1_4198)">
<path d="M2.50036 11.4089L1.74845 11.9145L1.42773 11.1432L2.17964 10.6377L2.50036 11.4089Z" fill="#F7D909"/>
<mask id="mask1_1_4198" style="mask-type:luminance" maskUnits="userSpaceOnUse" x="7" y="5" width="4" height="5">
<path d="M9.72968 5.56445L7.40625 7.12528L8.29892 9.30006L10.6223 7.7377L9.72968 5.56445Z" fill="white"/>
</mask>
<g mask="url(#mask1_1_4198)">
<path d="M7.40625 9.01855L10.6223 9.20182V9.29651H7.40625V9.01855Z" fill="#E7C012"/>
<path d="M7.40625 8.93457L10.6223 9.11784V9.19878L7.40625 9.01551V8.93457Z" fill="#E7C012"/>
<path d="M7.40625 8.8623L10.6223 9.04557V9.12652L7.40625 8.94325V8.8623Z" fill="#E7C112"/>
<path d="M7.40625 8.7793L10.6223 8.96256V9.04351L7.40625 8.86024V8.7793Z" fill="#E8C211"/>
<path d="M7.40625 8.69238L10.6223 8.87718V8.95812L7.40625 8.77485V8.69238Z" fill="#E8C311"/>
<path d="M7.40625 8.6123L10.6223 8.79557V8.87804L7.40625 8.69325V8.6123Z" fill="#E9C411"/>
<path d="M7.40625 8.53711L10.6223 8.72038V8.80132L7.40625 8.61805V8.53711Z" fill="#E9C510"/>
<path d="M7.40625 8.45215L10.6223 8.63542V8.71636L7.40625 8.53309V8.45215Z" fill="#EAC610"/>
<path d="M7.40625 8.36719L10.6223 8.55045V8.6314L7.40625 8.44813V8.36719Z" fill="#EAC710"/>
<path d="M7.40625 8.29004L10.6223 8.47483V8.55578L7.40625 8.37251V8.29004Z" fill="#EBC810"/>
<path d="M7.40625 8.20996L10.6223 8.39323V8.4757L7.40625 8.2909V8.20996Z" fill="#EBC90F"/>
<path d="M7.40625 8.125L10.6223 8.30827V8.38921L7.40625 8.20594V8.125Z" fill="#ECCA0F"/>
<path d="M7.40625 8.04199L10.6223 8.22526V8.3062L7.40625 8.12294V8.04199Z" fill="#ECCB0F"/>
<path d="M7.40625 7.96777L10.6223 8.15104V8.23198L7.40625 8.04872V7.96777Z" fill="#ECCC0E"/>
<path d="M7.40625 7.88379L10.6223 8.06706V8.14953L7.40625 7.96626V7.88379Z" fill="#EDCD0E"/>
<path d="M7.40625 7.7998L10.6223 7.98307V8.06402L7.40625 7.88075V7.7998Z" fill="#EDCE0E"/>
<path d="M7.40625 7.7168L10.6223 7.90006V7.98101L7.40625 7.79774V7.7168Z" fill="#EECF0D"/>
<path d="M7.40625 7.64453L10.6223 7.8278V7.90874L7.40625 7.72547V7.64453Z" fill="#EED00D"/>
<path d="M7.40625 7.55859L10.6223 7.74339V7.82433L7.40625 7.64106V7.55859Z" fill="#EFD20D"/>
<path d="M7.40625 7.47559L10.6223 7.65885V7.74132L7.40625 7.55653V7.47559Z" fill="#EFD30D"/>
<path d="M7.40625 7.38965L10.6223 7.57292V7.65386L7.40625 7.47059V7.38965Z" fill="#F0D40C"/>
<path d="M7.40625 7.31738L10.6223 7.50065V7.58159L7.40625 7.39833V7.31738Z" fill="#F0D50C"/>
<path d="M7.40625 7.23535L10.6223 7.41862V7.49956L7.40625 7.3163V7.23535Z" fill="#F1D60C"/>
<path d="M7.40625 7.15039L10.6223 7.33519V7.41613L7.40625 7.23286V7.15039Z" fill="#F1D70B"/>
<path d="M7.40625 7.06543L10.6223 7.2487V7.33117L7.40625 7.14637V7.06543Z" fill="#F1D80B"/>
<path d="M7.40625 6.99121L10.6223 7.17448V7.25542L7.40625 7.07215V6.99121Z" fill="#F2D90B"/>
<path d="M7.40625 6.9082L10.6223 7.09147V7.17241L7.40625 6.98915V6.9082Z" fill="#F2DA0A"/>
<path d="M7.40625 6.8252L10.6223 7.00846V7.08941L7.40625 6.90614V6.8252Z" fill="#F3DB0A"/>
<path d="M7.40625 6.74316L10.6223 6.92643V7.00892L7.40625 6.82565V6.74316Z" fill="#F3DC0A"/>
<path d="M7.40625 6.66602L10.6223 6.84928V6.93023L7.40625 6.74696V6.66602Z" fill="#F4DD0A"/>
<path d="M7.40625 6.58398L10.6223 6.76725V6.8482L7.40625 6.66493V6.58398Z" fill="#F4DE09"/>
<path d="M7.40625 6.49805L10.6223 6.68131V6.76226L7.40625 6.57899V6.49805Z" fill="#F5DF09"/>
<path d="M7.40625 6.4209L10.6223 6.60569V6.68664L7.40625 6.50337V6.4209Z" fill="#F5E009"/>
<path d="M7.40625 6.34082L10.6223 6.52409V6.60656L7.40625 6.42176V6.34082Z" fill="#F6E108"/>
<path d="M7.40625 6.25879L10.6223 6.44206V6.523L7.40625 6.33973V6.25879Z" fill="#F6E208"/>
<path d="M10.6223 6.44261L7.40625 6.25934V5.56445H10.6223V6.44261Z" fill="#F6E208"/>
</g>
<path d="M7.02885 7.38184L2.51562 10.4164L2.83278 11.1892L7.34957 8.15309L7.02885 7.38184Z" fill="#565656"/>
<mask id="mask2_1_4198" style="mask-type:luminance" maskUnits="userSpaceOnUse" x="1" y="5" width="4" height="5">
<path d="M3.60077 5.85254L1.27734 7.4149L2.32146 9.95468L4.64489 8.39233L3.60077 5.85254Z" fill="white"/>
</mask>
<g mask="url(#mask2_1_4198)">
<path d="M4.64389 5.9516L4.33984 5.85254H4.64389V5.9516Z" fill="#565656"/>
<path d="M4.64476 6.09079L3.91602 5.85254H4.34008L4.64476 5.95181V6.09079Z" fill="#565656"/>
<path d="M4.64499 6.22824L3.49219 5.85254H3.91625L4.64499 6.09079V6.22824Z" fill="#565656"/>
<path d="M4.64523 6.36722L3.06836 5.85254H3.49242L4.64523 6.22824V6.36722Z" fill="#565656"/>
<path d="M4.64546 6.5062L2.64453 5.85254H3.06859L4.64546 6.36722V6.5062Z" fill="#565656"/>
<path d="M4.64765 6.64365L2.22266 5.85254H2.64672L4.64765 6.5062V6.64365Z" fill="#565656"/>
<path d="M4.6461 6.78262L1.79883 5.85254H2.22111L4.6461 6.64365V6.78262Z" fill="#565656"/>
<path d="M4.64496 6.92007L1.5625 5.91516L1.59101 5.85254H1.79769L4.64496 6.78262V6.92007Z" fill="#565656"/>
<path d="M4.64568 7.05894L1.50977 6.03569L1.56322 5.91504L4.64568 6.91996V7.05894Z" fill="#565656"/>
<path d="M4.6464 7.19488L1.45703 6.15483L1.51048 6.03418L4.6464 7.05742V7.19488Z" fill="#565656"/>
<path d="M4.64321 7.34211L1.40039 6.28374L1.45384 6.16309L4.64321 7.20313V7.34211Z" fill="#565656"/>
<path d="M4.64784 7.47903L1.35156 6.40385L1.40502 6.2832L4.64784 7.34158V7.47903Z" fill="#565656"/>
<path d="M4.6427 7.61747L1.29297 6.52397L1.34642 6.40332L4.6427 7.47849V7.61747Z" fill="#565656"/>
<path d="M4.64489 7.75494L1.27734 6.65533V6.56064L1.29516 6.52246L4.64489 7.61596V7.75494Z" fill="#565656"/>
<path d="M4.64489 7.89331L1.27734 6.79523V6.65625L4.64489 7.75586V7.89331Z" fill="#565656"/>
<path d="M4.64489 8.03198L1.27734 6.9339V6.79492L4.64489 7.893V8.03198Z" fill="#565656"/>
<path d="M4.64489 8.17205L1.27734 7.07397V6.93652L4.64489 8.0346V8.17205Z" fill="#565656"/>
<path d="M4.64489 8.30249L1.27734 7.20441V7.06543L4.64489 8.16351V8.30249Z" fill="#565656"/>
<path d="M4.64489 8.44061L1.27734 7.34253V7.20508L4.64489 8.30316V8.44061Z" fill="#565656"/>
<path d="M4.64489 8.58081L1.27734 7.48273V7.34375L4.64489 8.44183V8.58081Z" fill="#565656"/>
<path d="M4.64489 8.72241L1.27734 7.6228V7.48535L4.64489 8.58343V8.72241Z" fill="#565656"/>
<path d="M4.64489 8.86206L1.27734 7.76398V7.625L4.64489 8.72461V8.86206Z" fill="#565656"/>
<path d="M4.64489 9.00073L1.27734 7.90112V7.76367L4.64489 8.86175V9.00073Z" fill="#565656"/>
<path d="M4.64489 9.14038L1.27734 8.0423V7.90332L4.64489 9.00293V9.14038Z" fill="#565656"/>
<path d="M4.64489 9.24986L4.63776 9.26818L1.27734 8.17316V8.03418L4.64489 9.13226V9.24986Z" fill="#565656"/>
<path d="M4.63776 9.26983L4.58431 9.39048L1.27734 8.31226V8.1748L4.63776 9.26983Z" fill="#565656"/>
<path d="M4.58431 9.3917L4.52908 9.51235L1.27734 8.45245V8.31348L4.58431 9.3917Z" fill="#565656"/>
<path d="M4.52908 9.514L4.47562 9.63465L1.27734 8.59155V8.4541L4.52908 9.514Z" fill="#565656"/>
<path d="M4.47562 9.63587L4.42217 9.75805L1.27734 8.73175V8.59277L4.47562 9.63587Z" fill="#565656"/>
<path d="M4.42217 9.7597L4.36872 9.88035L1.27734 8.87085V8.7334L4.42217 9.7597Z" fill="#565656"/>
<path d="M4.36872 9.87962L4.33308 9.96056H4.1941L1.27734 9.0091V8.87012L4.36872 9.87962Z" fill="#565656"/>
<path d="M3.77004 9.95147L1.27734 9.13898V9L4.1941 9.95147H3.77004Z" fill="#565656"/>
<path d="M3.34598 9.95507L1.27734 9.28003V9.14258L3.77004 9.95507H3.34598Z" fill="#565656"/>
<path d="M2.92192 9.95629L1.27734 9.42023V9.28125L3.34598 9.95629H2.92192Z" fill="#565656"/>
<path d="M2.49786 9.95598L1.27734 9.55737V9.41992L2.92192 9.95598H2.49786Z" fill="#565656"/>
<path d="M1.27734 9.5625L2.49786 9.96111H1.27734V9.5625Z" fill="#565656"/>
</g>
<mask id="mask3_1_4198" style="mask-type:luminance" maskUnits="userSpaceOnUse" x="0" y="7" width="12" height="8">
<path d="M10.6245 7.7334L0.871094 14.2913H5.81907L11.6971 10.3389L10.6245 7.7334Z" fill="white"/>
</mask>
<g mask="url(#mask3_1_4198)">
<path d="M1.36286 7.7334H0.871094V14.2898H1.36286V7.7334Z" fill="#F6CC08"/>
<path d="M1.85505 7.7334H1.36328V14.2898H1.85505V7.7334Z" fill="#F6CD08"/>
<path d="M2.34724 7.7334H1.85547V14.2898H2.34724V7.7334Z" fill="#F6CE08"/>
<path d="M2.84138 7.7334H2.34961V14.2898H2.84138V7.7334Z" fill="#F6CF08"/>
<path d="M3.33357 7.7334H2.8418V14.2898H3.33357V7.7334Z" fill="#F6D008"/>
<path d="M3.82185 7.7334H3.33008V14.2898H3.82185V7.7334Z" fill="#F6D108"/>
<path d="M4.31794 7.7334H3.82617V14.2898H4.31794V7.7334Z" fill="#F6D208"/>
<path d="M4.80818 7.7334H4.31641V14.2898H4.80818V7.7334Z" fill="#F6D308"/>
<path d="M5.30427 7.7334H4.8125V14.2898H5.30427V7.7334Z" fill="#F6D408"/>
<path d="M5.79255 7.7334H5.30078V14.2898H5.79255V7.7334Z" fill="#F6D508"/>
<path d="M6.28083 7.7334H5.78906V14.2898H6.28083V7.7334Z" fill="#F6D608"/>
<path d="M6.77302 7.7334H6.28125V14.2898H6.77302V7.7334Z" fill="#F6D808"/>
<path d="M7.26716 7.7334H6.77539V14.2898H7.26716V7.7334Z" fill="#F6D908"/>
<path d="M7.75935 7.7334H7.26758V14.2898H7.75935V7.7334Z" fill="#F6DA08"/>
<path d="M8.25153 7.7334H7.75977V14.2898H8.25153V7.7334Z" fill="#F6DB08"/>
<path d="M8.74372 7.7334H8.25195V14.2898H8.74372V7.7334Z" fill="#F6DC08"/>
<path d="M9.23786 7.7334H8.74609V14.2898H9.23786V7.7334Z" fill="#F6DD08"/>
<path d="M9.72614 7.7334H9.23438V14.2898H9.72614V7.7334Z" fill="#F6DE08"/>
<path d="M10.2222 7.7334H9.73047V14.2898H10.2222V7.7334Z" fill="#F6DF08"/>
<path d="M10.7105 7.7334H10.2188V14.2898H10.7105V7.7334Z" fill="#F6E008"/>
<path d="M11.2027 7.7334H10.7109V14.2898H11.2027V7.7334Z" fill="#F6E108"/>
<path d="M11.6968 7.7334H11.2051V14.2898H11.6968V7.7334Z" fill="#F6E208"/>
</g>
<mask id="mask4_1_4198" style="mask-type:luminance" maskUnits="userSpaceOnUse" x="0" y="0" width="11" height="8">
<path d="M6.02129 0.908203L0.210938 4.81486L1.28 7.41727L10.9621 0.908203H6.02129Z" fill="white"/>
</mask>
<g mask="url(#mask4_1_4198)">
<path d="M10.9647 1.31597L9.88499 2.03988L8.85156 0.908203H10.9647V1.31597Z" fill="#565656"/>
<path d="M9.88382 2.03988L9.64862 2.19719L8.47266 0.908203H8.85039L9.88382 2.03988Z" fill="#565656"/>
<path d="M9.64924 2.19719L9.41404 2.35449L8.09375 0.908203H8.47327L9.64924 2.19719Z" fill="#565656"/>
<path d="M9.41075 2.35449L9.17555 2.51332L7.71094 0.908203H8.09045L9.41075 2.35449Z" fill="#565656"/>
<path d="M9.17604 2.51332L8.94085 2.67063L7.33191 0.908203H7.71143L9.17604 2.51332Z" fill="#565656"/>
<path d="M8.9417 2.67063L8.70651 2.82793L6.95325 0.908203H7.33276L8.9417 2.67063Z" fill="#565656"/>
<path d="M8.70522 2.82793L8.46824 2.98524L6.57422 0.908203H6.95195L8.70522 2.82793Z" fill="#565656"/>
<path d="M8.46885 2.98524L8.23366 3.14407L6.19531 0.908203H6.57483L8.46885 2.98524Z" fill="#565656"/>
<path d="M8.23427 3.14407L7.99908 3.30138L5.81641 0.908203H6.19592L8.23427 3.14407Z" fill="#565656"/>
<path d="M7.99986 3.30138L7.76466 3.45868L5.43945 0.90973L5.44302 0.908203H5.81719L7.99986 3.30138Z" fill="#565656"/>
<path d="M5.43891 0.908203L5.20312 1.06627L7.52805 3.6142L7.76385 3.45613L5.43891 0.908203Z" fill="#565656"/>
<path d="M5.20648 1.07129L4.9707 1.22936L7.29563 3.77727L7.53141 3.6192L5.20648 1.07129Z" fill="#565656"/>
<path d="M4.97016 1.22559L4.73438 1.38365L7.0593 3.93158L7.29508 3.77351L4.97016 1.22559Z" fill="#565656"/>
<path d="M4.73383 1.38672L4.49805 1.54479L6.82297 4.0927L7.05875 3.93463L4.73383 1.38672Z" fill="#565656"/>
<path d="M4.4975 1.53809L4.26172 1.69616L6.58664 4.24407L6.82244 4.086L4.4975 1.53809Z" fill="#565656"/>
<path d="M4.26508 1.70215L4.0293 1.86022L6.35422 4.40813L6.59 4.25006L4.26508 1.70215Z" fill="#565656"/>
<path d="M4.02875 1.85449L3.79297 2.01256L6.11789 4.56048L6.35368 4.40241L4.02875 1.85449Z" fill="#565656"/>
<path d="M3.79438 2.01465L3.55859 2.17272L5.88352 4.72063L6.1193 4.56257L3.79438 2.01465Z" fill="#565656"/>
<path d="M3.55805 2.16699L3.32227 2.32506L5.64719 4.87298L5.88297 4.71491L3.55805 2.16699Z" fill="#565656"/>
<path d="M3.32172 2.33105L3.08594 2.48912L5.41086 5.03705L5.64665 4.87896L3.32172 2.33105Z" fill="#565656"/>
<path d="M3.08539 2.48926L2.84961 2.64733L5.17454 5.19525L5.41032 5.03719L3.08539 2.48926Z" fill="#565656"/>
<path d="M2.85297 2.64355L2.61719 2.80162L4.94211 5.34954L5.1779 5.19147L2.85297 2.64355Z" fill="#565656"/>
<path d="M2.61664 2.80664L2.38086 2.96471L4.70579 5.51262L4.94157 5.35455L2.61664 2.80664Z" fill="#565656"/>
<path d="M2.38424 2.95898L2.14844 3.11705L4.47338 5.66497L4.70916 5.5069L2.38424 2.95898Z" fill="#565656"/>
<path d="M2.1479 3.12012L1.91211 3.27819L4.23704 5.8261L4.47283 5.66803L2.1479 3.12012Z" fill="#565656"/>
<path d="M1.91156 3.27148L1.67578 3.42955L4.00071 5.97747L4.2365 5.8194L1.91156 3.27148Z" fill="#565656"/>
<path d="M1.67719 3.4375L1.44141 3.59557L3.76633 6.14348L4.00213 5.98541L1.67719 3.4375Z" fill="#565656"/>
<path d="M1.44086 3.58789L1.20508 3.74596L3.53001 6.29389L3.76579 6.1358L1.44086 3.58789Z" fill="#565656"/>
<path d="M1.20454 3.75L0.96875 3.90807L3.29368 6.45598L3.52946 6.29791L1.20454 3.75Z" fill="#565656"/>
<path d="M0.972113 3.90723L0.736328 4.0653L3.06126 6.61321L3.29704 6.45514L0.972113 3.90723Z" fill="#565656"/>
<path d="M0.731879 4.06348L0.496094 4.22155L2.82102 6.76946L3.0568 6.61139L0.731879 4.06348Z" fill="#565656"/>
<path d="M0.499457 4.22461L0.263672 4.38268L2.58861 6.93059L2.82439 6.77252L0.499457 4.22461Z" fill="#565656"/>
<path d="M2.5896 6.9259L2.35441 7.08321L0.210938 4.73433V4.41208L0.264391 4.37695L2.5896 6.9259Z" fill="#565656"/>
<path d="M2.35441 7.09009L2.11743 7.2474L0.210938 5.15662V4.74121L2.35441 7.09009Z" fill="#565656"/>
<path d="M2.11743 7.24117L1.88224 7.4L0.210938 5.56732V5.15039L2.11743 7.24117Z" fill="#565656"/>
<path d="M1.88224 7.4069L1.85908 7.42217H1.51876L0.210938 5.98963V5.57422L1.88224 7.4069Z" fill="#565656"/>
<path d="M1.13924 7.41594L0.210938 6.39881V5.9834L1.51876 7.41594H1.13924Z" fill="#565656"/>
<path d="M0.210938 6.40137L1.13924 7.4185H0.210938V6.40137Z" fill="#565656"/>
</g>
<path d="M58.5884 6.71186C57.4196 6.59274 56.9634 6.3942 56.9634 6.00323C56.9634 5.52979 57.5158 5.24572 58.4423 5.24572C59.2619 5.24572 59.9532 5.60157 60.1867 5.93603L60.274 6.05974L61.7831 5.39386L61.7047 5.25794C61.1613 4.30953 60.0174 3.80859 58.396 3.80859C56.7639 3.81928 55.1175 4.48974 55.1175 5.96352C55.1175 7.63431 56.7888 8.02987 58.4245 8.19633C59.9408 8.33531 60.1172 8.75225 60.1172 9.05311C60.1172 9.86407 58.845 9.92822 58.4566 9.92822C57.4427 9.92822 56.6623 9.5571 56.3701 8.93704L56.2953 8.77974L54.7148 9.48226L54.7772 9.61361C55.3456 10.814 56.5429 11.3974 58.4334 11.3974C60.1475 11.3974 61.9773 10.7819 61.9773 9.05617C61.9773 7.33039 60.3506 6.90124 58.592 6.71645L58.5884 6.71186Z" fill="#565656"/>
<path d="M68.568 6.82869L66.0414 3.85059H63.9336V11.363H65.8935V6.47132L68.2811 9.26768H68.7818L71.2299 6.47132V11.363H73.1899V3.85059H71.0963L68.568 6.82869Z" fill="#565656"/>
<path d="M77.9792 3.84277L74.0469 11.3552H76.1743L76.8924 9.99905H81.0332L81.7406 11.3552H83.8805L79.9481 3.84277H77.9775H77.9792ZM80.2332 8.41225H77.6959L78.9646 5.91981L80.2332 8.41225Z" fill="#565656"/>
<path d="M93.5117 3.84277V5.39902H96.1719V11.3552H98.1318V5.39902H100.792V3.84277H93.5117Z" fill="#565656"/>
<path d="M92.9772 11.3644L90.2653 8.74824C91.5161 8.43058 92.2271 7.58602 92.2271 6.39631C92.2271 5.20659 91.2239 3.86263 89.0181 3.85194C88.3535 3.85194 87.6889 3.84888 87.0243 3.84736C86.3597 3.8443 85.6933 3.84277 85.0287 3.84277H84.8398V11.3659H86.7998V8.96358H88.0453L90.4898 11.3659H92.9772V11.3644ZM90.2671 6.42685C90.2671 6.90487 89.9393 7.41497 89.0181 7.41497H86.7998V5.43873H89.0181C89.9393 5.43873 90.2671 5.97021 90.2671 6.42685Z" fill="#565656"/>
<path d="M16.719 6.1123H14.7715V11.369H16.719V6.1123Z" fill="#565656"/>
<path d="M24.7436 11.3659L20.6242 6.83004V11.3659H18.666V3.85346H20.2286L24.0559 8.00601V3.84277H26.0158V11.3659H24.7436Z" fill="#565656"/>
<path d="M27.3145 5.41074H29.9746V11.3669H31.9346V5.41074H34.593V3.85449H27.3145V5.41074Z" fill="#565656"/>
<path d="M35.8691 11.3669H42.5241V9.70837H37.8166V8.41023H42.3566V6.8219H37.8166V5.49321H42.5241V3.85449H35.8691V11.3669Z" fill="#565656"/>
<path d="M52.2389 11.3644L49.5271 8.74824C50.7779 8.43058 51.4888 7.58602 51.4888 6.39631C51.4888 5.20659 50.4856 3.86263 48.2798 3.85194C47.6152 3.85194 46.9506 3.84888 46.286 3.84736C45.6214 3.8443 44.955 3.84277 44.2904 3.84277H44.1016V11.3659H46.0615V8.96358H47.307L49.7516 11.3659H52.2389V11.3644ZM49.5288 6.42685C49.5288 6.90487 49.201 7.41497 48.2798 7.41497H46.0615V5.43873H48.2798C49.201 5.43873 49.5288 5.97021 49.5288 6.42685Z" fill="#565656"/>
<path d="M16.717 3.84277H14.7695V5.51204H16.717V3.84277Z" fill="#F6D808"/>
</g>
</svg>
