<svg width="155" height="47" viewBox="0 0 155 47" fill="none" xmlns="http://www.w3.org/2000/svg">
<g clip-path="url(#clip0_397_2532)">
<path d="M12.7618 2.40994C15.7915 1.17686 19.1453 0.782108 22.3776 1.24976C26.8766 1.88246 31.0958 4.2654 34.0076 7.77758C35.5498 9.62204 36.7366 11.7684 37.4739 14.064C38.3879 16.8905 38.6054 19.9371 38.1362 22.8709C37.7194 25.4966 36.7352 28.0302 35.2653 30.2385C34.1413 31.933 32.7376 33.437 31.1374 34.6825C30.9997 34.7905 30.8783 34.917 30.7569 35.0429C28.8321 37.0145 26.2995 38.3528 23.6101 38.881C23.2657 38.9518 22.9185 39.0075 22.5713 39.0584C22.6852 39.5481 22.8503 40.024 23.0392 40.4896C22.9137 40.6147 22.7882 40.7413 22.6627 40.8678C22.3237 40.6766 21.8483 40.7839 21.6717 41.1457C21.4432 41.5445 21.7215 42.103 22.1723 42.1621C22.5372 42.2316 22.8551 41.9874 23.0836 41.7295C23.2295 42.3327 23.1825 42.9887 22.8823 43.5375C22.2924 44.651 21.2051 45.415 20.0599 45.8655C19.8956 45.9191 19.7216 46.0333 19.5477 45.9501C18.3425 45.5271 17.1905 44.7692 16.5357 43.6386C16.1946 43.0699 16.1203 42.3739 16.2806 41.7344C16.5091 42.0211 16.8767 42.2522 17.2525 42.1477C17.6495 42.0514 17.8848 41.5652 17.7088 41.1917C17.5601 40.8224 17.0875 40.6643 16.743 40.852C16.6073 40.7282 16.4784 40.5969 16.3495 40.4655C16.6428 39.9573 16.9169 39.4353 17.1134 38.8803C16.402 38.74 15.7076 38.5268 15.0119 38.3301C14.0979 38.6644 13.0803 38.7221 12.1486 38.4264C10.7217 37.9994 9.5724 36.789 9.18772 35.342C6.31756 33.3758 4.01216 30.5837 2.62005 27.3789C1.39096 24.5723 0.869177 21.4584 1.10245 18.4001C1.3439 15.1231 2.47204 11.9197 4.3266 9.21835C6.39736 6.18207 9.36846 3.77987 12.7618 2.40994ZM17.4524 1.72841C14.1341 2.13966 10.9434 3.51579 8.3474 5.6374C5.42132 8.00934 3.25165 11.3166 2.25446 14.9677C1.36913 18.1786 1.38346 21.6344 2.29402 24.8378C3.38466 28.7268 5.81146 32.2129 9.05608 34.5841C8.97491 33.6764 9.19317 32.7541 9.64811 31.9694C9.4278 31.759 9.21636 31.5396 9.01583 31.3099C9.06426 31.2742 9.11269 31.2384 9.1618 31.2033C9.36915 31.3856 9.59423 31.5465 9.82136 31.7047C10.2859 31.039 10.927 30.5039 11.6643 30.1731C10.2026 29.0184 8.98719 27.5467 8.1346 25.8824C7.00577 23.7264 6.50104 21.2431 6.69611 18.8127C6.88709 16.2386 7.86791 13.7332 9.46123 11.7134C11.1425 9.56427 13.5011 7.9612 16.1135 7.21296C18.2715 6.59058 20.5885 6.539 22.7705 7.06854C24.9831 7.60221 27.0478 8.73557 28.6963 10.3166C30.0959 11.6522 31.2002 13.3027 31.8952 15.1162C32.6339 17.0315 32.9081 19.1242 32.7014 21.1674C32.462 23.6075 31.514 25.967 30.0141 27.8961C28.4126 29.9675 26.187 31.5444 23.7029 32.3408C23.4307 32.4151 23.1906 32.5829 23.0269 32.814C22.6054 33.402 22.441 34.1357 22.3728 34.8469C25.1004 35.4672 28.0129 35.3496 30.6443 34.3744C33.4899 32.2363 35.6766 29.2172 36.8327 25.8343C37.7986 23.0195 38.0618 19.9646 37.6089 17.0226C37.2113 14.4264 36.24 11.9231 34.7934 9.73964C32.7642 6.66416 29.7938 4.22826 26.3855 2.86933C23.5671 1.73529 20.4617 1.3481 17.4524 1.72841ZM17.5881 7.41721C15.1538 7.83122 12.8573 9.00859 11.0771 10.7306C9.19522 12.5352 7.89042 14.9443 7.42115 17.5212C7.01737 19.6834 7.18925 21.9521 7.92316 24.0249C8.72323 26.3198 10.1999 28.3658 12.1131 29.8478C12.1834 29.8953 12.257 29.9819 12.3518 29.9386C13.0851 29.7515 13.8647 29.7522 14.5938 29.9592C15.769 30.2804 16.7976 31.1153 17.348 32.2122C19.8724 32.7087 22.5481 32.391 24.8863 31.3099C27.1016 30.2955 29.0067 28.6113 30.3005 26.5344C31.8304 24.1047 32.4811 21.1338 32.121 18.2797C31.8714 16.2173 31.0972 14.2236 29.8988 12.5345C28.5804 10.6681 26.7531 9.17021 24.6653 8.26448C22.4554 7.2948 19.9617 7.00114 17.5881 7.41721ZM10.2756 32.0038C10.5075 32.1441 10.7408 32.2824 10.9768 32.4165C11.5572 31.6166 12.5237 31.1112 13.5114 31.1387C13.9881 31.1373 14.4519 31.2735 14.8844 31.4688C15.4519 31.706 16.035 31.9041 16.6305 32.0554C15.9327 30.9963 14.6982 30.3182 13.4343 30.3272C12.1909 30.3148 10.9754 30.9716 10.2756 32.0038ZM11.4624 32.6819C12.1581 33.0326 12.8627 33.3662 13.5803 33.6702C13.7876 33.763 14.0359 33.8435 14.1382 34.069C14.3142 34.3998 14.115 34.8579 13.7487 34.9411C13.4786 35.025 13.2358 34.8434 13.0175 34.7114C12.3587 34.2795 11.7346 33.796 11.1337 33.2857C10.852 33.9425 10.8908 34.7265 11.2066 35.364C11.5027 35.963 12.0442 36.3942 12.6206 36.7016C14.2807 37.6163 16.1121 38.196 17.9748 38.5048C19.4461 38.7538 20.95 38.7318 22.4267 38.5468C23.9784 38.348 25.5063 37.9134 26.9052 37.2016C27.9549 36.6741 28.9221 35.9892 29.7965 35.2031C27.4324 35.8605 24.9163 35.9224 22.5181 35.4149C20.0054 34.8991 17.6454 33.8022 15.4723 32.4515C14.9717 32.1723 14.5017 31.7941 13.9206 31.706C13.0032 31.5293 12.0163 31.9254 11.4624 32.6819ZM10.0519 32.358C9.66585 33.0966 9.50624 33.9569 9.63652 34.7843C9.81181 36.0483 10.6569 37.1872 11.8035 37.7236C12.5401 38.0819 13.3838 38.1651 14.1853 38.0282C13.3436 37.6637 12.4903 37.3034 11.7325 36.7766C11.2257 36.4093 10.8035 35.9073 10.5853 35.3131C10.294 34.5429 10.3438 33.6605 10.6849 32.9151C10.4748 32.728 10.2668 32.5389 10.0519 32.358ZM16.711 32.5898C17.1823 32.8518 17.6638 33.0932 18.1467 33.3318C18.2559 33.1798 18.3793 33.0395 18.5171 32.9144C17.908 32.8511 17.3098 32.7149 16.711 32.5898ZM19.7803 32.9687C19.3315 32.9653 18.8834 33.1798 18.6269 33.556C19.6582 34.034 20.7304 34.4232 21.8285 34.7148C21.9002 33.9961 22.0911 33.2747 22.4915 32.6675C21.6007 32.8593 20.6908 32.9618 19.7803 32.9687ZM17.1018 40.2186C17.4176 40.2551 17.7388 40.3589 17.9646 40.5948C18.4543 41.0666 18.44 41.9517 17.9319 42.4035C17.6208 42.6896 17.172 42.7577 16.7689 42.6855C16.8985 43.3044 17.2812 43.8346 17.7354 44.2569C18.2838 44.7651 18.9427 45.1537 19.6493 45.3916C20.0913 45.305 20.4992 45.0608 20.888 44.8325C21.6621 44.3353 22.3994 43.6249 22.5904 42.6841C22.1553 42.7721 21.6696 42.6607 21.3627 42.3251C20.8948 41.8389 20.9303 40.9565 21.452 40.5233C21.6996 40.3046 22.0345 40.2234 22.3571 40.2227C22.2303 39.8617 22.1041 39.4993 22.0209 39.1251C20.5694 39.273 19.0989 39.2482 17.6604 38.9883C17.5097 39.4133 17.3214 39.8246 17.1018 40.2186Z" fill="#002147"/>
<path d="M16.1452 2.83751C16.3287 2.77767 16.5149 2.72609 16.7017 2.67383C16.5606 3.4035 16.3982 4.12973 16.2686 4.86077C16.3621 5.28509 16.5053 5.69635 16.6172 6.11655C16.4548 6.16469 16.2918 6.21351 16.1309 6.26578C16.0054 5.8951 15.916 5.51273 15.8035 5.13723C15.7741 5.00588 15.6684 4.91648 15.5825 4.82226C15.1875 4.41719 14.8056 3.99975 14.4093 3.59606C14.3527 3.53279 14.2838 3.47364 14.2572 3.38974C14.4216 3.33541 14.5887 3.2914 14.7537 3.23913C15.1323 3.62288 15.4979 4.01969 15.8723 4.40757C15.961 3.88421 16.064 3.36292 16.1452 2.83751Z" fill="#002147"/>
<path d="M23.9088 3.11875C24.5342 2.98808 25.2313 3.3175 25.4932 3.91238C25.824 4.66887 25.573 5.62342 24.9564 6.15502C24.5554 6.50645 23.9545 6.57453 23.4716 6.36409C22.9559 6.15434 22.6162 5.61723 22.6006 5.06293C22.5501 4.23216 23.046 3.28586 23.9088 3.11875ZM23.9708 3.58846C23.4948 3.73976 23.2287 4.23767 23.1469 4.706C23.0678 5.1262 23.1708 5.6303 23.5486 5.87375C23.9081 6.12545 24.4326 6.03261 24.7048 5.69288C25.0458 5.27612 25.2218 4.67849 25.0485 4.15376C24.9094 3.71775 24.4053 3.44885 23.9708 3.58846Z" fill="#002147"/>
<path d="M19.5386 3.72865C19.8482 3.60005 20.2125 3.91502 20.1279 4.24375C20.0767 4.57042 19.6341 4.72309 19.3967 4.49271C19.1402 4.28708 19.2248 3.827 19.5386 3.72865Z" fill="#002147"/>
<path d="M10.8959 4.93251C11.5998 4.56458 12.303 4.19596 13.0062 3.82666C13.0737 3.96077 13.1413 4.09487 13.2081 4.22898C12.9339 4.36996 12.6624 4.51438 12.3903 4.6588C12.8248 5.49231 13.2483 6.33202 13.689 7.16209C13.5369 7.24943 13.3827 7.33265 13.2279 7.4138C12.7927 6.57616 12.3596 5.73714 11.9265 4.89813C11.6523 5.04392 11.3781 5.18972 11.1019 5.33139C11.033 5.19866 10.9641 5.06524 10.8959 4.93251Z" fill="#002147"/>
<path d="M26.0951 7.31864C26.6428 6.37234 27.1973 5.43085 27.7491 4.4873C28.2682 4.79403 28.7865 5.1035 29.3056 5.41091C29.2299 5.5402 29.1535 5.66949 29.0778 5.79878C28.7088 5.57596 28.3371 5.35864 27.966 5.13857C27.8139 5.39716 27.6659 5.65918 27.5077 5.91501C27.8535 6.13233 28.2122 6.32833 28.5567 6.54908C28.481 6.6715 28.408 6.79529 28.3357 6.91908C27.9858 6.71414 27.6373 6.50713 27.2894 6.29875C27.0391 6.72583 26.7894 7.15359 26.5398 7.58066C26.3925 7.49126 26.2445 7.40323 26.0951 7.31864Z" fill="#002147"/>
<path d="M9.10898 6.204C9.25017 6.10222 9.38863 5.997 9.52913 5.89453C10.1764 6.77137 10.8442 7.63171 11.4983 8.50373C11.3605 8.60964 11.2234 8.71555 11.087 8.82284C10.4261 7.95081 9.75831 7.08428 9.10898 6.204Z" fill="#002147"/>
<path d="M92.9364 6.69363C93.9309 6.488 95.0386 6.71976 95.7963 7.42467C95.6524 7.62136 95.4914 7.80429 95.3434 7.99823C94.9083 7.67982 94.3988 7.44805 93.8579 7.4116C93.39 7.37584 92.8791 7.4508 92.5108 7.76509C92.1548 8.06219 92.032 8.5931 92.1936 9.02499C92.2905 9.26776 92.4876 9.45413 92.7004 9.5958C93.4125 10.0579 94.2562 10.2725 94.9465 10.7725C95.4007 11.0985 95.7636 11.5867 95.8468 12.1527C95.9423 12.8013 95.7793 13.5041 95.3441 14.002C95.029 14.3706 94.5829 14.6051 94.1164 14.711C93.0401 14.9566 91.8656 14.6608 91.015 13.9559C91.1576 13.7455 91.3015 13.535 91.4379 13.3198C91.9836 13.6595 92.5858 13.9511 93.2358 13.9938C93.6642 14.0089 94.1253 13.9408 94.4731 13.6678C94.8619 13.3631 95.001 12.8212 94.9226 12.346C94.8496 11.9499 94.5502 11.6445 94.2289 11.4293C93.4589 10.9176 92.5156 10.7016 91.8171 10.0765C91.1085 9.45482 91.0566 8.28363 91.5927 7.53471C91.9085 7.08907 92.4112 6.8071 92.9364 6.69363Z" fill="#002147"/>
<path d="M122.439 6.65301C123.259 6.55122 124.126 6.72453 124.805 7.21143C125.751 7.87164 126.262 9.01738 126.358 10.1501C126.474 11.4299 126.182 12.8232 125.277 13.7723C124.267 14.854 122.524 15.0947 121.239 14.3926C120.228 13.8555 119.592 12.7764 119.406 11.6617C119.199 10.4066 119.388 9.02838 120.15 7.98649C120.686 7.24513 121.537 6.75616 122.439 6.65301ZM122.189 7.50921C121.724 7.63163 121.306 7.91497 121.01 8.29528C120.593 8.82069 120.392 9.48847 120.325 10.1501C120.254 10.8845 120.319 11.6465 120.605 12.3315C120.808 12.8246 121.136 13.2737 121.577 13.5756C122.431 14.1787 123.704 14.101 124.461 13.3686C124.949 12.9044 125.211 12.2476 125.33 11.5922C125.459 10.8213 125.449 10.0118 125.202 9.26565C125.019 8.71754 124.691 8.20725 124.22 7.86889C123.643 7.44594 122.874 7.33041 122.189 7.50921Z" fill="#002147"/>
<path d="M48.1523 6.76995C48.4613 6.76926 48.771 6.77339 49.0806 6.76514C49.099 8.55871 49.0772 10.3523 49.0915 12.1458C49.0936 12.6087 49.1966 13.1045 49.5328 13.4429C50.0014 13.9181 50.721 14.0426 51.3581 13.9497C51.8833 13.8761 52.388 13.5612 52.6199 13.0694C52.7925 12.6967 52.8047 12.2751 52.8177 11.8708C52.8313 10.1693 52.8129 8.46793 52.8279 6.76651C53.1335 6.77201 53.4384 6.76995 53.7446 6.76995C53.7446 7.94389 53.7439 9.11713 53.7446 10.2911C53.7324 11.0709 53.7781 11.8556 53.6771 12.6314C53.6096 13.1671 53.3988 13.7015 52.9971 14.0715C52.4207 14.6244 51.5927 14.8163 50.8165 14.7867C49.983 14.764 49.1106 14.4325 48.6066 13.7352C48.2314 13.2221 48.1626 12.5619 48.1564 11.9437C48.1476 10.2189 48.1544 8.49475 48.1523 6.76995Z" fill="#002147"/>
<path d="M56.7479 6.7699C57.0672 6.7699 57.3871 6.76921 57.7069 6.77127C58.9647 8.92383 60.2061 11.0874 61.4774 13.2317C61.4829 11.0778 61.4631 8.92383 61.4597 6.7699C61.7468 6.77059 62.0354 6.76646 62.3239 6.7754C62.3123 9.39836 62.3287 12.022 62.315 14.645C61.989 14.6381 61.663 14.6463 61.3376 14.6374C60.0935 12.4876 58.8426 10.3419 57.5842 8.20104C57.5876 10.3488 57.606 12.4972 57.6026 14.645C57.3175 14.6401 57.0324 14.6415 56.7479 14.6422C56.7473 12.0179 56.7473 9.39423 56.7479 6.7699Z" fill="#002147"/>
<path d="M65.5812 14.6475C65.571 12.0211 65.571 9.39397 65.5819 6.76758C65.8922 6.77446 66.2039 6.77102 66.515 6.7717C66.5156 9.39535 66.5156 12.0197 66.515 14.6433C66.2039 14.6433 65.8922 14.6399 65.5812 14.6475Z" fill="#002147"/>
<path d="M68.5912 6.76993C68.9172 6.76993 69.2439 6.76993 69.57 6.76993C70.3312 9.08685 71.0876 11.4052 71.8508 13.7214C72.629 11.4024 73.4121 9.08479 74.1978 6.76855C74.4993 6.77062 74.8021 6.76924 75.1043 6.76993C74.1903 9.39358 73.2736 12.0165 72.3617 14.6409C72.0022 14.6429 71.6421 14.6422 71.2826 14.6416C70.3871 12.0172 69.4874 9.39426 68.5912 6.76993Z" fill="#002147"/>
<path d="M77.2286 6.77308C78.6425 6.76689 80.0565 6.77858 81.4711 6.76758C81.4806 7.03097 81.4786 7.29506 81.4738 7.55845C80.3668 7.55364 79.2591 7.55845 78.1521 7.5557C78.1501 8.42223 78.1514 9.28806 78.1514 10.1539C79.1936 10.1573 80.2358 10.1463 81.2787 10.1594C81.2712 10.409 81.2712 10.6587 81.2794 10.9083C80.2372 10.9345 79.1943 10.9131 78.1514 10.9193C78.1487 11.8897 78.1555 12.8601 78.1487 13.8298C79.2891 13.8414 80.4296 13.8304 81.5707 13.8353C81.5693 14.1048 81.5693 14.3737 81.57 14.6426C80.1226 14.642 78.6753 14.6461 77.2279 14.6406C77.232 12.0183 77.2306 9.39604 77.2286 6.77308Z" fill="#002147"/>
<path d="M84.0522 14.637C84.0679 12.0133 84.044 9.38898 84.0645 6.76465C84.9177 6.78115 85.7717 6.75433 86.625 6.78872C87.1604 6.81691 87.7279 6.94208 88.1276 7.32926C88.7735 7.91864 88.9454 8.91514 88.6657 9.72734C88.4304 10.3951 87.7702 10.8284 87.0942 10.9295C87.5614 10.9948 87.8827 11.3868 88.0682 11.7953C88.5102 12.7361 88.916 13.6927 89.3389 14.6425C89.0156 14.6431 88.693 14.6383 88.3704 14.6466C87.9966 13.8454 87.6678 13.0229 87.2866 12.2244C87.1004 11.8483 86.8644 11.4315 86.4347 11.3084C85.9606 11.1819 85.4634 11.2286 84.9791 11.2176C84.9784 12.3592 84.9784 13.5008 84.9784 14.6418C84.6695 14.6411 84.3605 14.6459 84.0522 14.637ZM84.9791 7.52664C84.9784 8.50595 84.9784 9.48595 84.9791 10.4653C85.5718 10.4563 86.1761 10.5058 86.7573 10.3566C87.127 10.2631 87.4748 10.0368 87.6665 9.69708C87.9454 9.21636 87.9284 8.5761 87.6296 8.10845C87.3773 7.73296 86.9196 7.5624 86.4851 7.53971C85.9838 7.51151 85.4804 7.53352 84.9791 7.52664Z" fill="#002147"/>
<path d="M98.4642 6.771C98.7773 6.771 99.0904 6.771 99.4041 6.771C99.4048 9.39464 99.4048 12.0183 99.4041 14.6426C99.0904 14.6426 98.7773 14.6426 98.4642 14.6419C98.4642 12.0183 98.4642 9.39464 98.4642 6.771Z" fill="#002147"/>
<path d="M101.505 6.77186C103.365 6.77048 105.223 6.77117 107.083 6.77117C107.082 7.0325 107.082 7.29452 107.083 7.55585C106.311 7.55517 105.54 7.55723 104.769 7.55517C104.766 9.91748 104.769 12.2805 104.768 14.6428C104.457 14.6435 104.147 14.638 103.838 14.649C103.814 12.2839 103.842 9.91748 103.825 7.55242C103.052 7.56067 102.278 7.55379 101.505 7.55585C101.505 7.29452 101.505 7.03319 101.505 6.77186Z" fill="#002147"/>
<path d="M108.175 6.77026C108.535 6.77095 108.894 6.76476 109.254 6.77508C109.88 8.00403 110.53 9.2206 111.161 10.4475C111.814 9.23711 112.411 7.99509 113.04 6.77026C113.379 6.76889 113.718 6.76958 114.059 6.77026C113.249 8.32588 112.439 9.88081 111.629 11.4357C111.573 11.5279 111.577 11.6366 111.577 11.7404C111.581 12.7073 111.578 13.6743 111.579 14.6412C111.268 14.6412 110.957 14.6453 110.648 14.6371C110.649 13.6021 110.664 12.565 110.64 11.5306C109.837 9.93514 108.988 8.36164 108.175 6.77026Z" fill="#002147"/>
<path d="M128.951 6.771C130.334 6.771 131.716 6.771 133.1 6.771C133.099 7.03233 133.099 7.29435 133.1 7.55568C132.027 7.55637 130.955 7.55568 129.883 7.55568C129.883 8.42152 129.884 9.28667 129.882 10.1525C130.89 10.158 131.899 10.1456 132.908 10.158C132.901 10.4097 132.901 10.6614 132.907 10.9124C131.899 10.9276 130.89 10.9145 129.883 10.9193C129.884 12.1606 129.883 13.4013 129.883 14.6426C129.572 14.6426 129.261 14.6426 128.951 14.6426C128.951 12.0183 128.951 9.39464 128.951 6.771Z" fill="#002147"/>
<path d="M6.67099 8.78222C6.75761 8.18734 7.29577 7.72176 7.87553 7.64404C7.90963 7.79053 7.9376 7.93839 7.9642 8.08625C7.60133 8.14883 7.22551 8.39159 7.15185 8.7774C7.10206 9.01948 7.34829 9.24368 7.58292 9.18109C8.02013 9.08825 8.4055 8.78841 8.86726 8.80422C9.42042 8.80835 9.86854 9.40254 9.72462 9.94171C9.57252 10.5221 9.02141 10.9272 8.44847 11.018C8.41368 10.8715 8.37753 10.725 8.34002 10.5792C8.68856 10.4816 9.08893 10.322 9.21716 9.94652C9.33311 9.6735 9.10257 9.32414 8.80178 9.35715C8.34684 9.39566 7.96488 9.72026 7.50312 9.73196C7.01953 9.75259 6.59187 9.26431 6.67099 8.78222Z" fill="#002147"/>
<path d="M30.1578 7.95715C30.4374 7.80311 30.818 8.04174 30.803 8.36428C30.8173 8.70539 30.389 8.9399 30.1134 8.74115C29.8242 8.57129 29.8515 8.09264 30.1578 7.95715Z" fill="#002147"/>
<path d="M32.6333 9.9183C32.9545 9.83096 33.3072 9.82889 33.6182 9.95887C34.2907 10.2271 34.7054 11.0544 34.4599 11.7531C34.2252 12.4264 33.5698 12.8947 32.887 13.0123C32.3632 13.1072 31.7998 12.8769 31.4956 12.4353C31.2262 12.0729 31.13 11.5784 31.2773 11.1466C31.4792 10.5352 32.0317 10.0923 32.6333 9.9183ZM32.8393 10.4018C32.3366 10.5551 31.8352 10.9224 31.7132 11.4636C31.5883 11.9931 32.0494 12.5729 32.5971 12.5268C33.1312 12.4821 33.6605 12.1761 33.9326 11.7043C34.1686 11.3006 34.022 10.7408 33.6359 10.4884C33.4026 10.3323 33.1012 10.3282 32.8393 10.4018Z" fill="#002147"/>
<path d="M15.5843 10.1176C15.6218 10.1135 15.6975 10.1052 15.7357 10.1011C16.1006 10.599 16.4621 11.1017 16.797 11.6209C16.6265 11.6622 16.4539 11.6952 16.2827 11.7337C16.4737 12.0776 16.7131 12.3912 16.9287 12.7199C17.2527 12.4826 17.5582 12.2186 17.8481 11.9407C17.7165 11.8713 17.58 11.8114 17.4525 11.7351C17.4668 11.6409 17.5596 11.5996 17.6257 11.5467C17.9463 11.3238 18.2655 11.0983 18.5827 10.8699C18.6707 10.8053 18.7669 10.7448 18.8808 10.7441C18.6345 11.5762 18.3487 12.3953 18.0868 13.2226C17.2738 12.9434 16.4021 12.9214 15.5516 12.9138C14.7829 12.9379 13.9917 12.9592 13.2605 13.2254C12.9856 12.4036 12.7176 11.5797 12.4584 10.7523C12.6705 10.7393 12.8158 10.9201 12.9856 11.0178C13.3082 11.2606 13.6841 11.4394 13.9671 11.7323C13.83 11.797 13.6881 11.8541 13.564 11.9428C13.815 12.2302 14.1192 12.4654 14.3995 12.7233C14.628 12.3994 14.8756 12.0831 15.0516 11.7255C14.8825 11.6938 14.7133 11.6656 14.5469 11.6216C14.8688 11.1045 15.2426 10.6217 15.5843 10.1176Z" fill="#002147"/>
<path d="M22.9335 11.1338C23.1756 10.7879 23.4205 10.4441 23.6605 10.0968C23.889 10.0913 23.9572 10.3478 24.0841 10.4929C24.3297 10.8794 24.6468 11.2219 24.8453 11.6366C24.6796 11.6661 24.5145 11.6936 24.3501 11.7273C24.5261 12.0795 24.7785 12.3841 24.9865 12.717C25.318 12.49 25.6154 12.2143 25.9107 11.9426C25.7756 11.8683 25.6365 11.8016 25.4974 11.7363C25.6351 11.5458 25.8534 11.444 26.0355 11.3044C26.2981 11.127 26.5437 10.9234 26.8165 10.7618C26.8499 10.7611 26.9154 10.7584 26.9481 10.757C26.6862 11.5802 26.4134 12.3999 26.1494 13.2218C25.3528 12.948 24.4988 12.924 23.6653 12.913C22.8768 12.9315 22.07 12.9597 21.3176 13.2224C21.0516 12.3999 20.7808 11.5795 20.5189 10.7563C20.759 10.7425 20.9248 10.9592 21.1205 11.0678C21.4172 11.2955 21.7773 11.4495 22.0222 11.7377C21.8824 11.7982 21.7439 11.8628 21.6096 11.9357C21.881 12.1922 22.147 12.4577 22.4355 12.6943L22.486 12.6902C22.7159 12.3944 22.9055 12.0705 23.1217 11.7652C22.9716 11.6744 22.7929 11.6696 22.6252 11.6393C22.6879 11.4481 22.8216 11.2961 22.9335 11.1338Z" fill="#002147"/>
<path d="M4.77124 11.3202C4.92198 11.0815 5.15729 10.869 5.45058 10.8574C5.98737 10.7948 6.57463 11.2954 6.42526 11.8662C6.67967 11.739 6.96683 11.7975 7.23761 11.816C7.54863 11.8449 7.86034 11.8669 8.17136 11.8992C8.07246 12.0547 7.98311 12.2156 7.89922 12.38C7.46951 12.358 7.04117 12.2754 6.6101 12.2926C6.33591 12.3098 6.23155 12.6014 6.11492 12.8063C6.51461 13.0202 6.90953 13.2424 7.30718 13.4611C7.22533 13.613 7.14212 13.7643 7.05549 13.9136C6.10401 13.3861 5.14911 12.8641 4.1908 12.3483C4.37973 12.0031 4.56048 11.6524 4.77124 11.3202ZM5.24869 11.4502C5.05293 11.6262 4.95199 11.8793 4.81421 12.0987C5.11978 12.2679 5.42671 12.4343 5.73432 12.6C5.85437 12.369 6.01056 12.1393 6.02147 11.8697C6.02898 11.5031 5.54607 11.2177 5.24869 11.4502Z" fill="#002147"/>
<path d="M35.644 13.2012C35.7122 13.3855 35.7736 13.5719 35.8364 13.7575C35.5594 14.111 35.2314 14.4226 34.9729 14.7905C35.4073 14.8826 35.8411 14.9796 36.2729 15.0883C36.3234 15.2643 36.3807 15.439 36.4373 15.6137C35.8405 15.4645 35.2423 15.32 34.6441 15.1777C34.2233 15.69 33.7922 16.1941 33.3789 16.7133C33.3038 16.529 33.2418 16.3399 33.1906 16.1487C33.5166 15.7822 33.8311 15.406 34.1448 15.0291C33.6762 14.9088 33.1981 14.8249 32.7323 14.6956C32.6279 14.5402 32.6047 14.3359 32.5365 14.1612C33.1865 14.3077 33.8297 14.4879 34.4824 14.6213C34.8562 14.1372 35.2661 13.6819 35.644 13.2012Z" fill="#002147"/>
<path d="M14.3123 13.5445C15.1157 13.4344 15.9315 13.4317 16.7377 13.508C17.0938 13.5527 17.4607 13.5905 17.7895 13.7446C17.8918 13.7755 17.9839 13.922 17.8584 13.9901C17.6428 14.1345 17.3768 14.171 17.1272 14.2198C16.3107 14.3436 15.4779 14.3498 14.656 14.2762C14.2959 14.237 13.9283 14.1957 13.592 14.0541C13.5006 14.0231 13.4481 13.9385 13.3881 13.8697C13.6377 13.6366 13.9924 13.6022 14.3123 13.5445Z" fill="#002147"/>
<path d="M21.5907 13.7593C21.9406 13.5832 22.3403 13.5495 22.723 13.5021C23.6056 13.4285 24.5032 13.4305 25.3769 13.5942C25.6054 13.654 25.8946 13.6829 26.016 13.9195C25.7405 14.1471 25.3749 14.1891 25.0359 14.2434C24.1287 14.3555 23.2052 14.3548 22.3001 14.2235C22.0361 14.1691 21.7435 14.1409 21.5239 13.9683C21.4318 13.9044 21.5171 13.7909 21.5907 13.7593Z" fill="#002147"/>
<path d="M2.93506 16.0541C3.11376 15.4475 3.29587 14.8416 3.4698 14.2344C3.6144 14.2708 3.759 14.3093 3.90292 14.3492C3.77128 14.7894 3.63827 15.2288 3.50595 15.6683C3.79788 15.7432 4.08708 15.8264 4.37764 15.9076C4.49496 15.508 4.58499 15.1002 4.72686 14.7096C4.86123 14.7522 4.9956 14.7935 5.13065 14.8348C5.01947 15.2316 4.90761 15.6277 4.79711 16.0245C5.12587 16.1105 5.45326 16.2054 5.78134 16.2955C5.89934 15.8636 6.02552 15.4344 6.14147 15.0019C6.28812 15.039 6.43408 15.0789 6.58073 15.1181C6.42112 15.7226 6.25197 16.3237 6.08827 16.9268C5.03857 16.6304 3.98545 16.3477 2.93506 16.0541Z" fill="#002147"/>
<path d="M13.5775 15.6367C14.8059 15.6367 16.0343 15.6374 17.2627 15.6367C17.7559 15.6457 18.2859 15.636 18.7231 15.9008C19.2244 16.2 19.4379 16.8107 19.4406 17.3725C19.4481 19.6434 19.4399 21.9142 19.4447 24.1844C19.4461 24.3274 19.4392 24.4705 19.4195 24.6121C19.2803 24.4031 19.326 24.1177 19.1548 23.9217C18.8622 23.5248 18.324 23.4884 17.8746 23.4746C16.4429 23.4705 15.0112 23.4712 13.5802 23.474C13.5748 20.862 13.5796 18.2494 13.5775 15.6367ZM14.0509 16.8808C14.085 16.9186 14.1525 16.995 14.1859 17.0328C14.2077 17.2852 14.2016 17.5403 14.1921 17.7941C14.2071 17.9 14.085 17.9351 14.0304 18.0011C14.3435 17.9908 14.6913 18.0575 14.9717 17.8801C15.2963 17.6861 15.3113 17.1139 14.9492 16.9516C14.6654 16.8354 14.3489 16.8918 14.0509 16.8808ZM15.7063 16.9076C15.2909 17.0796 15.25 17.7583 15.6592 17.9619C16.0275 18.1744 16.5466 17.8814 16.5186 17.4434C16.5602 17.019 16.0725 16.7199 15.7063 16.9076ZM16.6216 16.8822C16.6768 16.9482 16.8071 16.9819 16.7873 17.0912C16.7887 17.3216 16.7737 17.552 16.7478 17.781C16.7519 17.8856 16.6516 17.9358 16.5916 18.0038C16.7498 18.0052 16.9101 18.01 17.0663 17.9763C17.0233 17.9516 16.9367 17.9021 16.8931 17.8773C16.8678 17.6593 16.8849 17.4392 16.8924 17.2205C17.0288 17.4633 17.097 17.737 17.2177 17.9873C17.2382 17.9846 17.2791 17.9798 17.2996 17.9777C17.4264 17.7054 17.5001 17.411 17.6399 17.1449C17.6461 17.3897 17.6447 17.6352 17.6413 17.8807C17.6004 17.9103 17.5192 17.9681 17.4783 17.997C17.6768 18.0038 17.8746 18.0032 18.073 18.0025C18.0376 17.964 17.966 17.8869 17.9298 17.8484C17.9053 17.5768 17.8978 17.3024 17.9059 17.0293C17.9435 16.9915 18.0185 16.9166 18.0567 16.8787C17.9093 16.8794 17.7627 16.8801 17.6161 16.8794C17.5294 17.1064 17.4421 17.3333 17.3576 17.561C17.2518 17.3354 17.1522 17.1071 17.054 16.8787C16.9094 16.8794 16.7655 16.8801 16.6216 16.8822ZM18.1419 16.8822C18.3582 16.9908 18.2886 17.2425 18.3009 17.4385C18.2886 17.6366 18.3582 17.8856 18.1453 18.0018C18.3445 18.0025 18.5437 18.0025 18.7428 18.0038C18.7074 17.9653 18.6364 17.889 18.6003 17.8512C18.5798 17.5781 18.5826 17.3024 18.5989 17.0293C18.6351 16.9963 18.7081 16.9296 18.7449 16.8959C18.5444 16.8739 18.3425 16.8753 18.1419 16.8822ZM14.7418 18.9522C14.8025 19.021 14.9267 19.0554 14.9321 19.1606C14.956 19.4219 14.9396 19.6846 14.926 19.946C14.8878 19.9769 14.81 20.0381 14.7718 20.0691C14.9328 20.0794 15.0944 20.0787 15.2547 20.056C14.911 19.9625 15.0869 19.5416 15.0446 19.2851C15.2704 19.5361 15.4641 19.8146 15.6749 20.0787C15.7104 20.0856 15.7806 20.0993 15.8154 20.1055C15.857 19.7562 15.7888 19.3979 15.8652 19.054L16.0173 19.0065C15.8652 18.9178 15.6858 18.9563 15.5194 18.955C15.8249 19.0622 15.7028 19.4144 15.7281 19.6612C15.5255 19.4329 15.3427 19.1881 15.1511 18.9515C15.0146 18.9522 14.8782 18.9515 14.7418 18.9522ZM16.0528 19.0292C16.3406 19.3105 16.3167 19.807 16.5745 20.0979L16.6502 20.0801C16.8528 19.7128 16.8753 19.2266 17.217 18.9522C17.0622 18.9522 16.9067 18.9522 16.7519 18.9515C16.7887 18.9845 16.8617 19.0506 16.8985 19.0836C16.844 19.2878 16.7696 19.4859 16.6973 19.6846C16.5909 19.4859 16.52 19.2706 16.4443 19.0595C16.4845 19.034 16.5664 18.9832 16.6066 18.957C16.4074 18.9522 16.2083 18.9522 16.0098 18.9446C16.02 18.9653 16.0418 19.0079 16.0528 19.0292ZM17.4176 18.9914C17.2532 19.0863 17.2041 19.3476 17.348 19.4818C17.4633 19.5801 17.6092 19.6324 17.7245 19.7307C17.8036 19.8359 17.7429 20.0127 17.6024 20.0147C17.421 19.9989 17.361 19.7954 17.2252 19.7025C17.2375 19.8167 17.258 19.9295 17.2791 20.0422C17.4476 20.089 17.6358 20.1358 17.8016 20.0519C17.9851 19.9755 18.0635 19.728 17.9605 19.5588C17.8514 19.3979 17.6297 19.3745 17.5117 19.2259C17.4428 19.0987 17.6086 18.9611 17.7245 19.0334C17.8111 19.1049 17.8752 19.1998 17.9503 19.283C17.9414 19.1764 17.9319 19.0698 17.9216 18.9632C17.7552 18.9364 17.5697 18.8924 17.4176 18.9914ZM14.6027 21.0367C14.6443 21.0635 14.7275 21.1171 14.7691 21.144C14.78 21.4362 14.7786 21.7292 14.7711 22.0215C14.7145 22.0586 14.6586 22.0958 14.6027 22.1329C14.808 22.1508 15.0133 22.1487 15.2193 22.148C15.1722 22.0923 15.1074 22.0497 15.076 21.983C15.0549 21.7058 15.0699 21.428 15.0726 21.1508C15.1265 21.1089 15.1804 21.0669 15.2343 21.0236C15.0235 21.0216 14.8127 21.0209 14.6027 21.0367ZM15.2834 21.0312C15.3366 21.0663 15.3891 21.1013 15.443 21.1364C15.4546 21.4294 15.4716 21.7251 15.4403 22.0167C15.4 22.0456 15.3195 22.1026 15.2793 22.1308C15.5705 22.1618 15.8631 22.1405 16.1551 22.1522C16.1817 22.0387 16.2042 21.9252 16.2233 21.8104C16.1046 21.9685 15.9695 22.1095 15.7533 22.0497C15.7472 21.7732 15.7342 21.4954 15.7526 21.2189C15.7499 21.1199 15.8577 21.0807 15.9129 21.0181C15.7028 21.0243 15.4928 21.0222 15.2834 21.0312ZM16.243 21.0291C16.2969 21.069 16.3508 21.1096 16.4047 21.1502C16.4081 21.4294 16.4224 21.7093 16.4027 21.9885C16.3631 22.027 16.2833 22.1054 16.2437 22.1446C16.5357 22.148 16.8276 22.148 17.1202 22.1467C17.1407 22.0353 17.1598 21.9232 17.1761 21.8117C17.0588 21.9679 16.9258 22.1061 16.7123 22.0566C16.7034 21.7787 16.6912 21.5002 16.7089 21.2231C16.7041 21.1226 16.8119 21.0814 16.8678 21.0181C16.6591 21.0243 16.4511 21.0236 16.243 21.0291ZM16.9749 21.0202C17.0438 21.0876 17.1332 21.1433 17.1686 21.2396C17.2941 21.5387 17.3998 21.8468 17.5158 22.1508C17.5479 22.1556 17.6133 22.1666 17.6454 22.1714C17.775 21.8599 17.88 21.5373 18.0219 21.2313C18.0621 21.1392 18.1522 21.0862 18.2224 21.0202C18.0608 21.0243 17.8991 21.0236 17.7375 21.0229C17.7798 21.0539 17.863 21.1144 17.9053 21.1453C17.8336 21.3565 17.7634 21.5683 17.6924 21.7794C17.6024 21.5704 17.524 21.3565 17.4421 21.144C17.4803 21.1137 17.5567 21.0525 17.5949 21.0222C17.3876 21.0236 17.1809 21.0257 16.9749 21.0202Z" fill="#002147"/>
<path d="M20.5447 16.0129C20.9369 15.6794 21.4765 15.6498 21.9662 15.6388C23.2683 15.6347 24.5703 15.6381 25.8724 15.6374C25.8751 18.2473 25.8676 20.8572 25.8758 23.4664C24.6174 23.4802 23.359 23.4685 22.0999 23.4726C21.6163 23.4795 21.1095 23.4368 20.6505 23.6232C20.362 23.738 20.1485 24.0138 20.1075 24.324C20.0714 24.4079 20.1069 24.5468 20.0025 24.586C19.9854 24.498 19.9773 24.4099 19.9779 24.3205C19.982 22.0284 19.9773 19.7362 19.98 17.444C19.9773 16.9214 20.126 16.3533 20.5447 16.0129ZM20.7125 16.8808C20.7705 16.9262 20.8244 16.9757 20.8742 17.03C20.8837 17.2797 20.8633 17.5293 20.8374 17.7776C20.8421 17.8814 20.7439 17.9337 20.6846 18.0032C20.8305 18.0025 20.9758 18.0025 21.1218 18.0039L21.1252 17.9543C21.089 17.9344 21.0167 17.8931 20.9806 17.8732C20.9581 17.6552 20.9738 17.4358 20.984 17.2185C21.1163 17.4619 21.1859 17.7322 21.3046 17.9818C21.325 17.9818 21.3666 17.9805 21.3871 17.9798C21.5133 17.7068 21.5904 17.4124 21.7288 17.1449C21.7343 17.3904 21.7343 17.6359 21.7295 17.8814C21.6893 17.9103 21.6095 17.9688 21.5692 17.9977C21.7677 18.0032 21.9662 18.0032 22.1647 18.0025C22.1285 17.964 22.0555 17.8869 22.0194 17.8484C21.9941 17.5747 21.9887 17.2989 21.9935 17.0245C22.0337 16.9888 22.1142 16.9166 22.1544 16.8808C22.0044 16.8801 21.855 16.8801 21.7049 16.8794C21.6204 17.1002 21.5372 17.3216 21.4539 17.5431C21.3298 17.334 21.2411 17.1071 21.1491 16.8829C21.0031 16.8794 20.8578 16.8801 20.7125 16.8808ZM22.2411 16.8801C22.2752 16.92 22.344 16.9998 22.3782 17.0404C22.3952 17.3086 22.3959 17.5802 22.3775 17.8491C22.3406 17.8869 22.2663 17.9633 22.2295 18.0018C22.4327 18.0025 22.636 18.0018 22.8399 18.0032C22.8024 17.9653 22.7274 17.8904 22.6899 17.8526C22.6694 17.5809 22.6708 17.3065 22.6885 17.0349C22.726 16.9957 22.8004 16.9186 22.8372 16.8794C22.6387 16.8794 22.4395 16.8794 22.2411 16.8801ZM22.8665 16.8842C22.9327 16.9303 22.9941 16.9826 23.05 17.041C23.08 17.2652 23.0684 17.4929 23.0616 17.7184C23.0793 17.845 23.007 17.9344 22.8958 17.9846C23.0623 18.0135 23.2328 18.0121 23.3972 17.9722C23.346 17.9536 23.2437 17.9165 23.1919 17.8973C23.1666 17.6724 23.1639 17.4454 23.1741 17.2192C23.3317 17.3925 23.4708 17.5823 23.6134 17.7693C23.7048 17.8828 23.7846 18.0375 23.9524 18.0334C23.9599 17.7184 23.9408 17.4028 23.9653 17.0885C23.9565 16.9812 24.0751 16.9461 24.1338 16.8801C23.9687 16.8794 23.8044 16.8801 23.6407 16.8836C23.7041 16.9276 23.7662 16.9736 23.8276 17.0218C23.8589 17.2102 23.8473 17.4035 23.8528 17.594C23.6523 17.3595 23.4667 17.1119 23.2683 16.8753C23.1339 16.8787 23.0002 16.8808 22.8665 16.8842ZM24.0526 18.0025C24.2075 18.0032 24.3623 18.0011 24.5171 17.9963C24.4762 17.9702 24.3944 17.9165 24.3527 17.8897C24.3766 17.8147 24.4005 17.7398 24.4237 17.6648C24.5164 17.6627 24.6092 17.6614 24.702 17.6593C24.7286 17.7384 24.7538 17.8175 24.7804 17.8973C24.7449 17.922 24.6733 17.9715 24.6372 17.9963C24.837 18.0045 25.0375 18.0032 25.2381 18.0011C25.1699 17.9323 25.0792 17.8794 25.0471 17.7831C24.9202 17.4798 24.8357 17.1607 24.704 16.8595L24.6228 16.8664C24.3828 17.2164 24.3923 17.7198 24.0526 18.0025ZM21.4792 18.9144C21.4758 19.0423 21.473 19.1702 21.4724 19.2981C21.5488 19.1599 21.6402 19.0299 21.812 19.0237C21.8202 19.3325 21.8202 19.642 21.81 19.9508C21.765 19.979 21.6749 20.0361 21.6299 20.0649C21.8557 20.0801 22.0821 20.0801 22.3079 20.0636C22.2602 20.0354 22.164 19.9804 22.1156 19.9528C22.1053 19.6427 22.1046 19.3325 22.1149 19.023C22.2833 19.0265 22.372 19.1647 22.4573 19.2906C22.458 19.1695 22.4532 19.0485 22.4436 18.9275C22.1237 18.9543 21.7963 18.9818 21.4792 18.9144ZM22.548 18.9563C22.6026 18.9997 22.6578 19.043 22.7137 19.0856C22.7083 19.3662 22.7308 19.6475 22.7028 19.9274C22.6674 19.9638 22.5964 20.0361 22.5609 20.0725C22.7635 20.0759 22.9661 20.0773 23.1694 20.067C23.1298 20.0374 23.0507 19.9769 23.0111 19.9467C23.007 19.6826 22.9961 19.4178 23.0111 19.1544C22.9995 19.0526 23.1127 19.0162 23.1653 18.9508C22.9593 18.9515 22.7533 18.9502 22.548 18.9563ZM23.565 19.0059C23.2648 19.1785 23.1885 19.6331 23.4081 19.8999C23.6072 20.1482 24.0144 20.1654 24.2463 19.9542C24.4892 19.728 24.4953 19.2858 24.245 19.0629C24.0622 18.8986 23.7744 18.8896 23.565 19.0059ZM21.2009 21.0216C21.2889 21.0931 21.4069 21.1612 21.3694 21.2966C21.338 21.5827 21.411 21.9197 21.2036 22.1515C21.3516 22.148 21.5037 22.1618 21.6477 22.1171C21.3271 22.0449 21.5017 21.6364 21.4826 21.4067C21.6367 21.6439 21.6879 21.9307 21.827 22.1762C22.0132 21.8998 22.0801 21.5649 22.2179 21.2643C22.1797 21.5545 22.3516 21.9383 22.0821 22.148C22.2765 22.148 22.4702 22.1467 22.6639 22.1439C22.6285 22.113 22.5569 22.0524 22.5214 22.0222C22.4736 21.7347 22.4934 21.4397 22.4818 21.1488C22.5405 21.1068 22.5991 21.0649 22.6585 21.0236C22.503 21.0236 22.3481 21.0243 22.1933 21.0277C22.1108 21.2533 22.0242 21.4775 21.9416 21.7024C21.8284 21.4796 21.7363 21.2471 21.6306 21.0209C21.4874 21.0236 21.3441 21.0236 21.2009 21.0216ZM22.7178 21.0229C22.7567 21.0559 22.8345 21.1206 22.874 21.1536C22.8774 21.4321 22.8924 21.7113 22.8706 21.9899C22.827 22.0277 22.7403 22.1033 22.6967 22.1412C23.0022 22.1501 23.3085 22.1494 23.6147 22.1446C23.6332 22.0304 23.6502 21.9163 23.6645 21.8028C23.5922 21.8785 23.5295 21.9624 23.4572 22.0373C23.3651 22.0497 23.2723 22.0559 23.1803 22.0552C23.1728 21.9018 23.17 21.7478 23.17 21.5937C23.3187 21.5903 23.4204 21.6838 23.4967 21.8001C23.5008 21.6488 23.5029 21.4975 23.5002 21.3469C23.4156 21.45 23.3112 21.5229 23.1734 21.5277C23.17 21.3902 23.1694 21.2533 23.168 21.1172C23.3576 21.0725 23.4804 21.1935 23.5752 21.3413C23.5738 21.2368 23.5725 21.133 23.5718 21.0298C23.2867 21.0209 23.0022 21.0243 22.7178 21.0229ZM23.6584 22.146C23.8037 22.1474 23.949 22.1474 24.0942 22.1453C24.0479 22.1033 24.0015 22.0628 23.9544 22.0229C23.9776 21.95 24.0001 21.8785 24.024 21.8062C24.1181 21.8069 24.2136 21.8076 24.3084 21.8083C24.3643 21.928 24.3718 22.0497 24.2798 22.1535C24.466 22.148 24.6529 22.146 24.8397 22.1384C24.7613 22.071 24.6651 22.0126 24.6358 21.906C24.5117 21.5958 24.4169 21.274 24.2859 20.9665C23.9544 21.2801 24.0172 21.8454 23.6584 22.146Z" fill="#002147"/>
<path d="M10.8571 16.153C11.0345 15.8937 11.4703 15.8854 11.6347 16.1619C11.7445 16.393 12.0248 16.3875 12.2329 16.4666C12.2322 16.4047 12.2315 16.2816 12.2308 16.2197C12.4095 16.219 12.5889 16.219 12.7683 16.219C12.7704 18.9788 12.7676 21.7393 12.7697 24.4998C14.749 24.4977 16.7284 24.4998 18.7078 24.4991C18.7985 24.7323 18.9158 24.9902 19.1709 25.0768C19.5181 25.1958 19.911 25.1958 20.2588 25.0796C20.518 24.9963 20.6408 24.7357 20.7315 24.4991C22.717 24.4957 24.7032 24.5053 26.6887 24.4943C26.6819 21.7359 26.6873 18.9774 26.686 16.219C26.8647 16.219 27.0434 16.219 27.2221 16.2183C27.2241 19.159 27.2228 22.0997 27.2228 25.0404C25.169 25.0417 23.1153 25.0376 21.0616 25.0417C20.7294 25.6339 19.9853 25.781 19.3667 25.6792C18.9595 25.6332 18.5877 25.3945 18.3756 25.041C16.3287 25.0404 14.2825 25.0369 12.2356 25.0431C12.2308 24.8464 12.2315 24.6504 12.2315 24.4537C12.0671 24.5211 11.9034 24.5913 11.7438 24.669C11.6674 24.9097 11.4458 25.1201 11.1791 25.0699C10.8415 25.0342 10.6409 24.603 10.8353 24.3203C10.9772 24.0769 11.2978 24.0411 11.5317 24.1628C11.7663 24.0645 12.001 23.9641 12.2329 23.8589C12.2315 23.6436 12.2315 23.429 12.2315 23.2151C12.0726 23.2633 11.9144 23.3121 11.7575 23.3651C11.6599 23.5838 11.4396 23.7695 11.1879 23.711C10.836 23.6635 10.6587 23.189 10.8933 22.9194C11.0577 22.6952 11.381 22.6918 11.5972 22.841C11.8093 22.7798 12.0194 22.7145 12.2308 22.6505C12.2322 22.4284 12.2315 22.2063 12.2322 21.9841C12.0705 22.011 11.9089 22.0378 11.7479 22.0667C11.6279 22.251 11.4239 22.4119 11.1914 22.3541C10.8387 22.3025 10.6689 21.8253 10.9063 21.5584C11.089 21.3177 11.4451 21.3411 11.6558 21.5296C11.8482 21.4993 12.0399 21.4656 12.2315 21.4319C12.2315 21.2056 12.2315 20.9787 12.2322 20.7524C12.063 20.7579 11.8946 20.7641 11.7261 20.7724C11.5467 21.022 11.1559 21.0997 10.9397 20.8549C10.673 20.5984 10.8299 20.0922 11.1934 20.0338C11.3973 19.9753 11.5658 20.1184 11.7241 20.2229C11.8932 20.2305 12.0624 20.2153 12.2315 20.2098C12.2315 19.9643 12.2315 19.7195 12.2329 19.4747C12.0528 19.4643 11.8727 19.4561 11.6927 19.4513C11.5576 19.5799 11.3803 19.694 11.1852 19.6418C10.8687 19.5881 10.688 19.1844 10.8626 18.9114C11.0031 18.646 11.3987 18.582 11.6074 18.8027C11.7657 18.9802 12.0228 18.9004 12.2315 18.93C12.2315 18.7037 12.2315 18.4781 12.2322 18.2533C12.0344 18.2161 11.838 18.1783 11.6395 18.148C11.4922 18.2546 11.3066 18.3427 11.1245 18.2718C10.8278 18.1866 10.6873 17.7918 10.8646 17.5373C11.0202 17.2733 11.4376 17.2279 11.6286 17.4755C11.7588 17.6845 12.0235 17.6494 12.2322 17.6997C12.2315 17.4775 12.2315 17.2554 12.2308 17.0326C12.018 16.9727 11.8107 16.8936 11.5951 16.8455C11.4294 16.882 11.2623 16.9913 11.089 16.9136C10.7848 16.8194 10.6566 16.4033 10.8571 16.153Z" fill="#002147"/>
<path d="M14.4905 16.963C14.9386 16.9203 15.0109 17.5579 14.779 17.8281C14.7176 17.9079 14.5225 17.9691 14.5 17.8288C14.47 17.5413 14.4912 17.2511 14.4905 16.963Z" fill="#002147"/>
<path d="M15.8422 16.9694C16.0148 16.8703 16.1526 17.087 16.1737 17.2362C16.2051 17.4542 16.2413 17.7334 16.0769 17.9067C15.8975 18.023 15.7393 17.8043 15.7147 17.6433C15.6758 17.4219 15.6485 17.1269 15.8422 16.9694Z" fill="#002147"/>
<path d="M24.4486 17.5539C24.4882 17.4473 24.5291 17.342 24.5714 17.2368C24.6055 17.3462 24.6403 17.4562 24.6751 17.5662C24.5993 17.5621 24.5236 17.558 24.4486 17.5539Z" fill="#002147"/>
<path d="M33.5345 17.8588C34.619 17.7735 35.7022 17.6724 36.788 17.5947C36.8235 18.1985 36.8835 18.801 36.9285 19.4041C36.7798 19.4165 36.6318 19.4282 36.4838 19.4406C36.449 19.0094 36.4129 18.5782 36.3808 18.1463C36.0834 18.1676 35.7867 18.1985 35.4887 18.2102C35.5037 18.6208 35.5507 19.0293 35.5794 19.4385C35.4334 19.4495 35.2882 19.4619 35.1436 19.4722C35.1135 19.0658 35.0788 18.66 35.046 18.2542C34.5556 18.2989 34.0652 18.3368 33.5741 18.3732C33.5611 18.2013 33.5482 18.0301 33.5345 17.8588Z" fill="#002147"/>
<path d="M2.61243 17.6538C3.68601 18.0864 4.75549 18.53 5.82771 18.9667C5.82157 19.1475 5.81407 19.3284 5.80588 19.51C4.70639 19.8442 3.60552 20.1743 2.50398 20.5023C2.50466 20.3222 2.50534 20.142 2.5033 19.9625C3.3859 19.706 4.27259 19.4646 5.15519 19.2087C4.31965 18.8339 3.44933 18.5396 2.60015 18.195C2.60424 18.0149 2.60833 17.834 2.61243 17.6538Z" fill="#002147"/>
<path d="M23.7581 19.0374C23.8611 18.9783 23.9798 19.0512 24.0275 19.1474C24.1264 19.3407 24.1244 19.5711 24.0909 19.7815C24.0773 19.8971 23.9995 20.0195 23.87 20.0153C23.679 19.97 23.6224 19.7506 23.6053 19.58C23.5937 19.3937 23.5937 19.1598 23.7581 19.0374Z" fill="#002147"/>
<path d="M34.4726 20.8498C35.2672 20.6415 36.2597 20.9379 36.6348 21.7191C36.9185 22.3284 36.733 23.1351 36.1785 23.5237C35.4432 24.0202 34.3601 23.8627 33.751 23.23C33.3704 22.8208 33.2974 22.182 33.5082 21.6737C33.6767 21.2652 34.0498 20.9571 34.4726 20.8498ZM34.6868 21.3423C34.2414 21.4007 33.8465 21.7845 33.8533 22.2514C33.8185 22.6888 34.1875 23.0292 34.5681 23.1606C34.9937 23.3181 35.506 23.3518 35.9036 23.1021C36.3292 22.8422 36.4513 22.1895 36.1273 21.8016C35.7849 21.3883 35.1949 21.2687 34.6868 21.3423Z" fill="#002147"/>
<path d="M24.0482 21.7099C24.0857 21.5965 24.1253 21.4844 24.1649 21.3716C24.2003 21.4816 24.2365 21.5917 24.274 21.7017C24.2174 21.7038 24.1048 21.7079 24.0482 21.7099Z" fill="#002147"/>
<path d="M54.3341 21.6198C56.7302 21.368 59.245 22.0702 61.0744 23.676C62.1241 24.5845 62.9378 25.7681 63.4145 27.0782C64.3121 29.5546 64.0441 32.4438 62.6718 34.6933C61.7094 36.286 60.1952 37.5198 58.4627 38.1676C55.7215 39.1965 52.4707 38.832 50.0807 37.1058C48.4492 35.9435 47.2706 34.1589 46.8375 32.1927C46.268 29.6406 46.8348 26.8175 48.4772 24.7709C49.8945 22.9697 52.0717 21.8371 54.3341 21.6198ZM54.5353 22.4485C53.6296 22.5585 52.7524 22.912 52.0335 23.48C51.1311 24.1856 50.4866 25.1801 50.0685 26.2412C49.4955 27.7019 49.3073 29.2947 49.3884 30.8572C49.4566 32.1707 49.7179 33.4911 50.2929 34.6795C50.7771 35.6857 51.5144 36.5879 52.4755 37.1622C53.5245 37.8011 54.7952 38.0088 56.0032 37.8637C56.9444 37.7529 57.8584 37.3809 58.5943 36.7757C59.4838 36.0543 60.114 35.0523 60.5205 33.9863C61.0969 32.4692 61.2653 30.8173 61.1521 29.2046C61.0573 27.8828 60.7599 26.5569 60.1372 25.3823C59.6154 24.3981 58.8351 23.5323 57.8461 23.0138C56.8387 22.4739 55.6608 22.3123 54.5353 22.4485Z" fill="#002147"/>
<path d="M107.131 21.6269C109.579 21.3525 112.158 22.0781 114.007 23.7424C114.999 24.622 115.772 25.7478 116.241 26.9925C117.219 29.5955 116.893 32.6731 115.345 34.9852C114.23 36.666 112.486 37.8963 110.553 38.4169C107.877 39.15 104.848 38.6294 102.653 36.8915C100.939 35.5587 99.8012 33.5135 99.5495 31.3472C99.2378 28.8597 99.9771 26.2216 101.678 24.3689C103.074 22.8119 105.066 21.8415 107.131 21.6269ZM107.399 22.4481C106.636 22.5416 105.892 22.8016 105.248 23.2259C104.308 23.8345 103.604 24.7588 103.132 25.7698C102.523 27.0764 102.258 28.5261 102.233 29.9635C102.214 31.4565 102.416 32.9743 103.004 34.3539C103.455 35.4143 104.164 36.3868 105.125 37.0291C106.039 37.6494 107.152 37.9314 108.248 37.9066C109.302 37.8942 110.362 37.5799 111.22 36.9541C112.192 36.2561 112.885 35.2245 113.329 34.1193C113.94 32.5885 114.124 30.9091 114.017 29.2696C113.928 27.9244 113.629 26.573 112.994 25.3785C112.479 24.4081 111.714 23.5546 110.744 23.034C109.729 22.4804 108.536 22.3105 107.399 22.4481Z" fill="#002147"/>
<path d="M2.69666 22.1123C3.77228 21.959 4.84586 21.7905 5.9208 21.6357C5.94536 21.8077 5.96991 21.9796 5.99447 22.1515C4.92089 22.3145 3.84731 22.4775 2.77237 22.6322C2.74713 22.4589 2.72189 22.2849 2.69666 22.1123Z" fill="#002147"/>
<path d="M64.7155 21.8445C67.128 21.8452 69.5404 21.8439 71.9536 21.8452C71.9523 22.0467 71.9522 22.2482 71.9516 22.4497C71.4325 22.5577 70.9135 22.6671 70.3937 22.7702C70.2628 22.8039 70.1072 22.8245 70.0254 22.9456C69.9933 23.1024 70.1052 23.2337 70.1823 23.3568C71.4318 25.1538 72.6739 26.9557 73.9248 28.752C73.9719 28.8785 74.0858 28.8098 74.1281 28.7217C75.411 26.9137 76.6974 25.1085 77.9777 23.2991C78.0861 23.1773 78.1441 22.9538 77.9408 22.8954C77.3938 22.7042 76.8195 22.5976 76.2595 22.449C76.2582 22.2475 76.2582 22.046 76.2582 21.8445C78.1973 21.8439 80.1364 21.8445 82.0762 21.8445C82.0755 22.0467 82.0756 22.2489 82.0742 22.4518C81.4235 22.6334 80.751 22.7413 80.1166 22.9779C79.5628 23.1849 79.2163 23.6856 78.8698 24.136C77.4341 25.9592 75.9976 27.7816 74.5639 29.6061C76.2732 31.8728 77.9783 34.1423 79.6863 36.4104C79.9618 36.8141 80.2981 37.2027 80.768 37.3746C81.328 37.5809 81.9166 37.693 82.4882 37.8615C82.4882 38.0609 82.4882 38.2611 82.4916 38.4612C80.0784 38.4694 77.6646 38.4619 75.2521 38.4646C75.2514 38.2645 75.2514 38.0644 75.2501 37.8649C75.8578 37.7212 76.4819 37.6414 77.0807 37.4633C77.2942 37.3932 77.1824 37.1497 77.0855 37.0259C75.9001 35.3362 74.7092 33.6506 73.521 31.9629C73.3191 31.6851 73.1363 31.3928 72.9153 31.1301C71.6378 32.8528 70.4094 34.6148 69.151 36.3526C68.9641 36.6325 68.7349 36.8856 68.5821 37.1862C68.5173 37.365 68.7445 37.4317 68.8693 37.475C69.3761 37.6139 69.8897 37.7246 70.3971 37.8622C70.3978 38.0637 70.3978 38.2659 70.3896 38.4674C68.4532 38.4619 66.5175 38.4639 64.5818 38.466C64.5791 38.2645 64.5791 38.063 64.5804 37.8615C65.1281 37.726 65.6765 37.5933 66.2208 37.4441C66.656 37.3244 67.0611 37.083 67.3483 36.7281C69.0241 34.621 70.6856 32.5007 72.3649 30.3963C70.8275 28.3173 69.2703 26.2535 67.7248 24.18C67.3817 23.7323 67.0775 23.2042 66.5339 22.9779C65.9487 22.7393 65.3225 22.623 64.7168 22.449C64.7148 22.2475 64.7148 22.046 64.7155 21.8445Z" fill="#002147"/>
<path d="M84.7316 21.846C88.8848 21.8426 93.0379 21.8453 97.1917 21.8446C97.191 23.2311 97.191 24.6168 97.1917 26.0026C96.9612 26.0033 96.732 26.0033 96.5028 26.0026C96.2416 25.1601 95.9783 24.3184 95.7164 23.4766C95.6345 23.2201 95.5274 22.9491 95.3024 22.7868C95.1005 22.6417 94.842 22.6307 94.6032 22.6321C92.9151 22.6376 91.2263 22.6266 89.5382 22.6376C89.545 25.0205 89.5389 27.4028 89.5409 29.785C90.7291 29.7857 91.9172 29.785 93.1061 29.7857C93.4499 29.7788 93.8291 29.8284 94.1353 29.6317C94.4014 29.4611 94.5234 29.1503 94.608 28.858C94.7362 28.4137 94.8631 27.9688 94.9934 27.5245C95.2198 27.5259 95.447 27.5259 95.6748 27.5211C95.6884 29.3683 95.6761 31.2155 95.6809 33.0627C95.4517 33.0634 95.2232 33.0634 94.9954 33.0654C94.8522 32.5132 94.7199 31.9582 94.5801 31.4053C94.5193 31.1639 94.415 30.9177 94.2097 30.7664C93.9935 30.5979 93.7097 30.5711 93.4465 30.5697C92.1444 30.569 90.843 30.5697 89.5409 30.5697C89.5423 32.6102 89.5382 34.6506 89.543 36.6911C89.5198 37.0061 89.7135 37.3224 90.0279 37.3939C90.7168 37.5631 91.4139 37.7 92.1048 37.8616C92.1048 38.0597 92.1055 38.2584 92.1123 38.4578C89.6528 38.4737 87.1925 38.4599 84.733 38.4647C84.7323 38.2632 84.7323 38.0624 84.7323 37.8623C85.2507 37.7385 85.7677 37.6106 86.2854 37.4847C86.5248 37.4187 86.7901 37.3609 86.9654 37.1684C87.11 37.0047 87.1134 36.7709 87.1161 36.5632C87.1134 32.2546 87.1182 27.9454 87.1141 23.6361C87.1414 23.3205 86.9443 23.0199 86.6407 22.9347C86.0132 22.7407 85.3673 22.6121 84.7323 22.4464C84.7323 22.2463 84.7323 22.0461 84.7316 21.846Z" fill="#002147"/>
<path d="M118.672 21.8443C120.813 21.8443 122.955 21.8443 125.096 21.8443C126.398 21.845 127.729 21.8243 128.989 22.2033C130.236 22.5677 131.286 23.5347 131.774 24.7451C132.229 25.831 132.197 27.1225 131.635 28.1623C131.062 29.2496 130.009 30.0047 128.878 30.4146C128.595 30.5281 128.29 30.5748 128.014 30.7041C128.6 31.0198 128.998 31.5686 129.408 32.0775C130.611 33.6221 131.771 35.2004 132.949 36.765C133.219 37.1261 133.614 37.3908 134.055 37.483C134.623 37.6047 135.19 37.7354 135.757 37.8605C135.756 38.06 135.757 38.2601 135.761 38.4602C134.409 38.4664 133.057 38.4678 131.706 38.4595C131.264 38.4582 130.957 38.093 130.718 37.7636C129.438 35.9604 128.159 34.1565 126.881 32.3519C126.497 31.8313 126.071 31.2454 125.403 31.0996C124.772 30.973 124.123 31.0569 123.485 31.0301C123.48 32.9213 123.48 34.8126 123.484 36.7038C123.463 37.0222 123.669 37.3324 123.986 37.3984C124.67 37.5641 125.361 37.7024 126.047 37.8612C126.046 38.0627 126.046 38.2642 126.045 38.4657C123.589 38.4637 121.133 38.4623 118.677 38.4664C118.67 38.2642 118.67 38.0627 118.672 37.8612C119.309 37.6962 119.958 37.5738 120.585 37.3743C120.877 37.2904 121.071 37.0043 121.052 36.6997C121.056 32.3443 121.054 27.9877 121.053 23.6323C121.075 23.3208 120.887 23.0196 120.584 22.935C119.955 22.7417 119.309 22.6118 118.672 22.4474C118.671 22.2459 118.671 22.0451 118.672 21.8443ZM123.482 22.6331C123.485 25.1728 123.474 27.7126 123.487 30.2523C124.204 30.2406 124.921 30.2551 125.638 30.2447C126.349 30.2331 127.078 30.121 127.713 29.7792C128.204 29.5171 128.617 29.1059 128.874 28.6066C129.233 27.9264 129.341 27.1424 129.345 26.3798C129.349 25.5531 129.125 24.7093 128.627 24.0443C128.054 23.2678 127.138 22.7851 126.189 22.6867C125.289 22.5918 124.383 22.6482 123.482 22.6331Z" fill="#002147"/>
<path d="M137.085 21.8446C139.179 21.8446 141.275 21.8446 143.37 21.8446C144.922 21.8466 146.495 21.8033 148.021 22.143C149.277 22.403 150.476 22.9642 151.451 23.808C153.113 25.2219 154.04 27.3772 154.189 29.5408C154.329 31.6383 153.898 33.859 152.599 35.548C151.84 36.5377 150.8 37.2921 149.653 37.759C148.435 38.237 147.12 38.3849 145.823 38.4454C142.912 38.4894 140 38.4495 137.089 38.4674C137.083 38.2645 137.082 38.063 137.085 37.8608C137.703 37.7061 138.328 37.5713 138.941 37.3952C139.254 37.3196 139.49 37.0307 139.464 36.7C139.471 32.3886 139.464 28.0773 139.468 23.7653C139.467 23.5467 139.464 23.297 139.306 23.1285C139.138 22.9566 138.898 22.8974 138.676 22.8376C138.145 22.7104 137.616 22.5749 137.085 22.4491C137.083 22.2476 137.083 22.0461 137.085 21.8446ZM141.895 22.6327C141.895 27.391 141.896 32.1493 141.895 36.9076C141.902 37.1105 141.889 37.3402 142.02 37.5108C142.168 37.6813 142.414 37.6717 142.621 37.6806C143.44 37.6772 144.258 37.6868 145.077 37.6738C146.122 37.6435 147.19 37.5424 148.164 37.1305C149.17 36.7103 149.965 35.8781 150.483 34.9256C151.099 33.7847 151.357 32.4829 151.44 31.1961C151.515 29.8723 151.439 28.5285 151.105 27.2425C150.816 26.14 150.309 25.0734 149.515 24.2495C148.838 23.5363 147.947 23.0336 146.982 22.8507C145.307 22.5178 143.59 22.6691 141.895 22.6327Z" fill="#002147"/>
<path d="M3.15759 24.5809C4.18547 24.2261 5.20858 23.8574 6.23442 23.4971C6.29307 23.6525 6.34969 23.8093 6.40562 23.9668C5.80948 24.6923 5.22631 25.4289 4.62473 26.1496C5.3716 25.8429 6.12324 25.5417 6.87693 25.2494C6.9274 25.4021 6.98128 25.5527 7.03585 25.704C6.02775 26.1049 5.00942 26.4797 4.00336 26.8868C3.93515 26.73 3.87581 26.5698 3.82329 26.4075C4.41533 25.6909 4.99918 24.9667 5.58849 24.2474C4.83071 24.5053 4.07907 24.7817 3.32197 25.0417C3.26672 24.8883 3.21148 24.7343 3.15759 24.5809Z" fill="#002147"/>
<path d="M32.8768 24.5591C33.8658 25.0027 34.8514 25.4552 35.8383 25.9043C35.6323 26.3444 35.4925 26.8251 35.1951 27.215C34.8118 27.691 33.966 27.5211 33.7273 26.9799C33.6728 26.8574 33.67 26.722 33.6578 26.5913C33.1032 26.7612 32.5119 26.6546 31.941 26.6862C32.0126 26.5205 32.0849 26.3554 32.1517 26.1883C32.5774 26.1553 33.0064 26.2069 33.4306 26.1553C33.7144 26.123 33.803 25.8107 33.8999 25.5872C33.4866 25.407 33.08 25.2138 32.6687 25.0309C32.7383 24.8741 32.8072 24.7166 32.8768 24.5591ZM34.0725 26.5205C34.0943 26.8856 34.5861 27.1174 34.8691 26.8836C35.0533 26.6979 35.1263 26.4359 35.2422 26.2069C34.9332 26.048 34.612 25.9166 34.2975 25.7708C34.2014 26.0115 34.0581 26.2516 34.0725 26.5205Z" fill="#002147"/>
<path d="M19.0926 27.2771C19.2794 27.0268 19.437 26.753 19.6409 26.5165C19.8149 26.4621 19.8763 26.6506 19.9636 26.7579C20.2378 27.1698 20.5454 27.5591 20.8059 27.9792C20.7275 28.1402 20.4635 28.0673 20.3155 28.1512C20.5372 28.4785 20.7357 28.8238 20.9921 29.1257C21.2895 28.8692 21.5951 28.6223 21.8843 28.3568C21.754 28.2695 21.6108 28.2041 21.4696 28.1381C21.7451 27.8403 22.1196 27.6588 22.4347 27.4078C22.5868 27.3211 22.715 27.1409 22.904 27.156C22.6912 27.9889 22.3733 28.7949 22.1319 29.6208C21.3516 29.3705 20.5256 29.3265 19.7132 29.3175C18.8975 29.3265 18.0695 29.3691 17.2871 29.6208C17.0457 28.8499 16.7885 28.0831 16.5409 27.3142C16.4898 27.2399 16.53 27.079 16.6385 27.1671C17.1016 27.4738 17.5681 27.7784 18.0122 28.1134C17.871 28.1959 17.7271 28.2729 17.5872 28.3575C17.8655 28.6174 18.1486 28.8719 18.4303 29.1277C18.6772 28.8189 18.8852 28.4813 19.1001 28.1512C18.9357 28.0975 18.7645 28.068 18.5946 28.0411C18.7174 27.7599 18.9261 27.5315 19.0926 27.2771Z" fill="#002147"/>
<path d="M6.67134 27.4688C6.96463 27.2714 7.3309 27.1153 7.68285 27.248C8.23942 27.4544 8.62138 28.065 8.58045 28.6599C8.55658 29.01 8.27557 29.2596 8.01433 29.4542C7.4448 29.8682 6.87391 30.2795 6.29892 30.6852C6.20207 30.5401 6.10385 30.3964 6.00495 30.2534C6.54038 29.8731 7.07171 29.4872 7.60646 29.1056C7.79334 28.9618 8.02934 28.825 8.08663 28.5767C8.14802 28.1593 7.80221 27.6896 7.36432 27.7102C7.19721 27.7288 7.05602 27.8298 6.91756 27.9172C6.34599 28.3092 5.77373 28.7005 5.20147 29.0904C5.10394 28.9494 5.0064 28.8078 4.90955 28.6668C5.49749 28.2693 6.0793 27.8608 6.67134 27.4688Z" fill="#002147"/>
<path d="M30.6786 28.5099C30.9098 28.1798 31.1669 27.8697 31.4172 27.5547C32.2637 28.239 33.1135 28.9198 33.9607 29.6041C33.6087 30.0263 33.3073 30.5029 32.87 30.8427C32.4485 31.1776 31.8388 31.1741 31.3722 30.9376C30.8702 30.6817 30.4487 30.2017 30.373 29.6261C30.3116 29.2286 30.4555 28.8318 30.6786 28.5099ZM30.9118 29.0023C30.7488 29.3441 30.8518 29.7595 31.0905 30.038C31.3886 30.395 31.8469 30.6941 32.3292 30.5855C32.7732 30.4857 33.016 30.0607 33.2977 29.7416C32.6818 29.241 32.0679 28.7369 31.4418 28.2507C31.2317 28.4735 31.0455 28.7252 30.9118 29.0023Z" fill="#002147"/>
<path d="M18.7001 29.9062C19.5629 29.8333 20.4387 29.8367 21.2933 29.9873C21.5082 30.0361 21.7435 30.0698 21.9195 30.2136C22.0238 30.2947 21.9058 30.4075 21.824 30.4412C21.4638 30.6063 21.0628 30.6427 20.674 30.6854C19.8207 30.7548 18.9552 30.7486 18.1101 30.5987C17.8925 30.5471 17.6497 30.5127 17.4785 30.3552C17.4116 30.2418 17.5446 30.1682 17.6292 30.1297C17.9682 29.988 18.3379 29.9467 18.7001 29.9062Z" fill="#002147"/>
<path d="M17.496 35.6472C17.7661 35.4794 18.1522 35.6926 18.1617 36.0103C18.1979 36.3432 17.8057 36.6086 17.5151 36.4442C17.1986 36.304 17.187 35.8026 17.496 35.6472Z" fill="#002147"/>
<path d="M22.0574 36.3907C22.3554 36.2202 22.7572 36.5008 22.706 36.8412C22.6842 37.1741 22.2538 37.3659 21.996 37.1555C21.7286 36.976 21.7661 36.5242 22.0574 36.3907Z" fill="#002147"/>
</g>
<defs>
<clipPath id="clip0_397_2532">
<rect x="0.888062" y="0.728027" width="153.534" height="45.6716" rx="10" fill="white"/>
</clipPath>
</defs>
</svg>
