<svg width="17" height="17" viewBox="0 0 17 17" fill="none" xmlns="http://www.w3.org/2000/svg">
<path d="M8.09805 0.730103C3.63017 0.730103 0 4.35404 0 8.81425C0 12.1315 1.98263 14.9749 4.85883 16.2294C4.8309 15.6718 4.85883 14.9749 4.99846 14.3616C5.16602 13.6926 6.03166 9.95717 6.03166 9.95717C6.03166 9.95717 5.78033 9.42754 5.78033 8.67486C5.78033 7.47616 6.47844 6.58413 7.34408 6.58413C8.07012 6.58413 8.43314 7.14165 8.43314 7.81067C8.43314 8.53547 7.95843 9.65051 7.7071 10.6819C7.51164 11.5461 8.12595 12.243 8.99162 12.243C10.5275 12.243 11.5607 10.2638 11.5607 7.95003C11.5607 6.16593 10.3599 4.85576 8.18182 4.85576C5.72447 4.85576 4.18866 6.6956 4.18866 8.73056C4.18866 9.42747 4.38412 9.92926 4.7192 10.3195C4.85883 10.4868 4.88676 10.5704 4.8309 10.7655C4.80297 10.9049 4.69127 11.2673 4.66334 11.4067C4.60748 11.6018 4.43995 11.6854 4.24449 11.6018C3.09959 11.1279 2.59694 9.90134 2.59694 8.50752C2.59694 6.22167 4.52371 3.46191 8.37728 3.46191C11.4769 3.46191 13.5154 5.69203 13.5154 8.08939C13.5154 11.2673 11.7561 13.6368 9.15918 13.6368C8.29351 13.6368 7.45581 13.1629 7.17655 12.6332C7.17655 12.6332 6.70184 14.501 6.61807 14.8634C6.45051 15.4767 6.11542 16.1178 5.80827 16.5917C6.53431 16.8147 7.31618 16.9262 8.09805 16.9262C12.5659 16.9262 16.1961 13.3023 16.1961 8.84207C16.1961 4.38186 12.566 0.730103 8.09805 0.730103Z" fill="#CB1F24"/>
</svg>
