<svg width="150" height="153" viewBox="0 0 150 153" fill="none" xmlns="http://www.w3.org/2000/svg">
<path d="M74.9994 142.43C111.453 142.43 141.005 112.912 141.005 76.5C141.005 40.0878 111.453 10.5699 74.9994 10.5699C38.5457 10.5699 8.99414 40.0878 8.99414 76.5C8.99414 112.912 38.5457 142.43 74.9994 142.43Z" fill="white"/>
<path d="M74.9995 138.565C109.316 138.565 137.136 110.778 137.136 76.5C137.136 42.2222 109.316 14.4346 74.9995 14.4346C40.6826 14.4346 12.8633 42.2222 12.8633 76.5C12.8633 110.778 40.6826 138.565 74.9995 138.565Z" fill="white"/>
<path d="M75.0003 139.292C58.2014 139.292 42.4276 132.752 30.5228 120.894C18.6511 109.036 12.1035 93.2467 12.1035 76.467C12.1035 59.6872 18.6511 43.9313 30.5228 32.0402C42.3945 20.182 58.2014 13.6418 75.0003 13.6418C91.7993 13.6418 107.573 20.182 119.478 32.0402C131.35 43.8983 137.897 59.6872 137.897 76.467C137.897 93.2467 131.35 109.003 119.478 120.894C107.573 132.785 91.7993 139.292 75.0003 139.292ZM75.0003 15.1613C41.1379 15.1613 13.5916 42.6762 13.5916 76.5C13.5916 110.324 41.1379 137.839 75.0003 137.839C108.863 137.839 136.409 110.324 136.409 76.5C136.409 42.6762 108.863 15.1613 75.0003 15.1613Z" fill="#C39730"/>
<path d="M75.0003 142.727C57.3085 142.727 40.6418 135.824 28.1418 123.338C15.6418 110.852 8.73047 94.2047 8.73047 76.533C8.73047 58.8614 15.6418 42.2137 28.1418 29.728C40.6418 17.2422 57.3085 10.3387 75.0003 10.3387C92.6921 10.3387 109.359 17.1762 121.859 29.6619C134.359 42.1477 141.27 58.7953 141.27 76.467C141.27 94.1386 134.359 110.786 121.859 123.272C109.359 135.758 92.6921 142.727 75.0003 142.727ZM75.0003 11.726C39.253 11.726 10.1524 40.7934 10.1524 76.5C10.1524 112.207 39.253 141.274 75.0003 141.274C110.748 141.274 139.848 112.207 139.848 76.5C139.848 40.7934 110.748 11.726 75.0003 11.726Z" fill="#C39730"/>
<path d="M46.8262 90.6703C46.8262 82.5117 46.8262 74.2539 46.8262 65.9631C49.9347 65.9631 52.977 65.9631 56.1185 65.9631C56.1185 68.8368 56.1185 71.6775 56.1185 74.5512C56.4492 74.5842 56.6807 74.6172 56.9122 74.6172C60.0537 74.6172 63.1953 74.6172 66.3368 74.6172C66.9651 74.6172 67.5934 74.5512 68.1886 74.419C70.2058 73.9566 71.5286 72.7344 71.8262 70.6535C71.9915 69.5304 72.0908 68.3744 71.9254 67.2513C71.5617 64.3776 69.809 63.0233 66.6675 62.9903C62.0048 62.9572 57.309 62.9573 52.6463 62.9573C51.0259 62.9573 49.3725 62.9573 47.7521 62.9573C47.4876 62.9573 47.19 62.9573 46.8593 62.9573C46.8593 60.2817 46.8593 57.7383 46.8593 55.1289C47.0246 55.0959 47.1569 55.0628 47.2892 55.0628C53.6053 55.0628 59.9214 55.0628 66.2376 55.1289C68.6516 55.1619 71.0656 55.3601 73.3804 56.2189C78.1093 57.9696 80.8209 61.3718 81.3169 66.3925C81.5815 69.1341 81.35 71.8426 80.2587 74.419C78.8699 77.7221 76.4228 79.9022 73.1159 81.1574C72.8513 81.2565 72.5868 81.3556 72.2561 81.4877C75.3315 86.6405 78.3738 91.7273 81.4161 96.8141C78.5722 98.2345 75.7945 99.6218 72.9175 101.042C72.8844 100.976 72.7191 100.778 72.6199 100.547C69.2468 94.7332 65.8408 88.8867 62.4677 83.0732C62.3355 82.842 62.0378 82.5117 61.8394 82.5117C59.9876 82.4786 58.1688 82.4786 56.2508 82.4786C56.2508 87.3342 56.2508 92.1237 56.2508 97.0784C48.1159 94.5019 39.981 92.8504 31.4492 94.1386C31.4492 81.818 31.4492 69.5304 31.4492 57.1768C32.8381 57.1768 34.1939 57.1768 35.682 57.1768C35.682 67.9449 35.682 78.647 35.682 89.283C39.3857 89.7124 43.0564 90.1749 46.8262 90.6703Z" fill="#C39730"/>
<path d="M92.9231 78.9773C92.9231 79.4398 92.9231 79.671 92.9231 79.9352C92.9231 84.3614 92.9231 88.8206 92.9892 93.2467C92.9892 93.9074 92.7908 94.1056 92.1625 94.2377C89.517 94.7662 86.9045 95.3938 84.259 95.9553C84.0606 95.9883 83.8622 96.0544 83.5977 96.0874C83.5977 82.4126 83.5977 68.8038 83.5977 55.0958C84.0606 55.0958 84.4905 55.0958 84.9204 55.0958C87.3014 55.0958 89.7154 55.1289 92.0963 55.0958C92.8238 55.0958 93.0223 55.294 93.0223 56.0207C92.9892 61.8012 92.9892 67.5816 92.9892 73.362C92.9892 73.4942 93.0223 73.6593 93.0553 73.9566C94.1466 72.8005 95.1387 71.7765 96.1307 70.7196C100.826 65.6658 105.522 60.612 110.218 55.5583C110.416 55.3601 110.747 55.1619 110.979 55.1619C114.649 55.1619 118.287 55.1949 121.957 55.1949C121.991 55.1949 122.057 55.228 122.189 55.3271C116.104 61.8012 110.02 68.2092 103.935 74.6833C111.607 84.4275 119.213 94.1056 126.918 103.916C126.554 103.949 126.356 103.982 126.124 103.982C123.611 103.982 121.098 103.982 118.551 103.949C118.188 103.949 117.758 103.784 117.46 103.552C115.41 101.967 113.36 100.381 111.342 98.7299C110.78 98.2675 110.383 97.6399 109.953 97.0784C106.283 92.3219 102.579 87.5654 98.9085 82.8089C98.7432 82.6107 98.5778 82.3795 98.3794 82.2474C96.6268 81.1574 94.8741 80.1004 92.9231 78.9773Z" fill="#C39730"/>
<path d="M112.665 103.387C110.648 103.057 108.763 102.595 106.845 102.495C103.671 102.33 100.463 102.264 97.2884 102.429C92.9564 102.661 88.6574 103.354 84.4908 104.543C80.6217 105.633 76.918 107.054 73.7103 109.564C71.5609 111.249 69.8413 113.33 68.8492 115.906C68.7831 116.071 68.6839 116.203 68.5185 116.402C68.3863 116.203 68.2871 116.104 68.2209 115.972C66.2368 111.315 62.5992 108.375 58.1019 106.36C53.2077 104.18 48.0159 103.189 42.758 102.495C39.1204 102 35.4498 101.736 31.8122 102.033C29.1336 102.264 26.4881 102.793 23.8095 103.189C23.5781 103.222 23.3797 103.288 23.082 103.189C24.3717 102.264 25.6945 101.372 26.9511 100.381C31.4484 96.7811 36.6733 96.2196 42.1297 96.8141C47.586 97.4087 52.877 98.6308 57.8704 100.91C61.8056 102.694 65.3439 105.105 67.9894 108.573C68.0886 108.705 68.1548 108.837 68.254 108.937C68.4193 108.804 68.5185 108.771 68.5847 108.672C72.0238 104.543 76.5543 102 81.4484 100.084C86.8717 97.9372 92.4934 96.8471 98.3135 96.9132C101.918 96.9462 105.225 97.805 108.135 100.084C109.59 101.207 111.111 102.264 112.665 103.387Z" fill="#C39730"/>
<path d="M24.1738 98.796C24.1738 86.5414 24.1738 74.5181 24.1738 62.4948C25.5296 62.4948 26.8524 62.4948 28.2744 62.4948C28.2744 63.1554 28.2744 63.783 28.2744 64.4106C28.3074 74.6503 28.3074 84.8899 28.3405 95.1295C28.3405 95.658 28.2082 95.9883 27.7453 96.2856C26.6209 97.0453 25.4966 97.8711 24.1738 98.796Z" fill="#C39730"/>
<path d="M43.5513 41.8834C43.5513 40.4631 43.5513 39.2079 43.5513 37.8867C39.5169 38.8446 35.5817 39.7694 31.6465 40.6943C31.6465 40.8264 31.6465 40.9255 31.6465 41.0576C35.251 41.8174 38.8224 42.544 42.46 43.3038C42.1955 44.2286 41.997 45.0544 41.7325 45.9462C41.5671 45.9132 41.3687 45.9132 41.1703 45.8471C37.4997 44.5259 33.8621 43.2047 30.1915 41.8834C29.8939 41.7843 29.5962 41.6852 29.3317 41.5201C29.1002 41.3219 28.7695 41.0576 28.7695 40.8264C28.7695 40.5952 29.1333 40.2649 29.3978 40.1658C31.4812 39.4061 33.5314 38.6464 35.6478 37.9857C43.882 35.3763 52.1161 32.7999 60.3833 30.2234C62.9627 29.3977 65.542 29.4307 68.1214 30.2565C78.1412 33.4935 88.1611 36.7306 98.1809 39.9676C98.2801 40.0006 98.3793 40.0337 98.4785 40.0667C98.8423 40.331 99.4044 40.5291 99.4706 40.8595C99.5698 41.487 98.9415 41.7183 98.4124 41.9164C94.6756 43.2707 90.9388 44.592 87.2021 45.9462C86.4746 46.2105 85.747 46.4747 84.9865 46.706C84.788 46.772 84.5235 46.772 84.3582 46.6399C83.4984 45.9793 82.6716 45.2526 81.7788 44.5259C86.5738 43.1056 91.6002 42.2468 96.5936 41.2558C96.5936 41.1898 96.5936 41.1237 96.6267 41.0576C96.2629 40.9255 95.8992 40.7604 95.5023 40.6613C90.542 39.34 85.5817 38.0518 80.5883 36.7636C76.9838 35.8387 73.3793 34.7817 69.7087 34.055C62.7973 32.6677 56.0513 33.3614 49.669 36.4663C47.3211 37.6224 45.3039 39.2409 43.882 41.5201C43.8489 41.5531 43.7497 41.6192 43.5513 41.8834Z" fill="#C39730"/>
<path d="M47.8169 53.2131C47.8169 51.9909 47.7838 50.8679 47.8499 49.7778C47.8499 49.5136 48.1475 49.1833 48.4121 49.0181C50.8592 47.1684 53.637 46.1114 56.6132 45.715C63.0616 44.8232 69.4769 44.9883 75.7269 46.8711C77.4465 47.3996 79.0669 48.2914 80.7203 49.0181C81.2163 49.2163 81.3817 49.5797 81.3817 50.1412C81.3486 51.3964 81.3817 52.6846 81.3817 54.0719C70.2044 50.5045 59.1264 49.8769 47.8169 53.2131Z" fill="#C39730"/>
<path d="M43.453 63.8491C42.3948 62.8912 41.3366 61.9663 40.3114 60.9424C40.113 60.7442 40.08 60.2157 40.1792 59.8854C40.7413 57.375 41.3366 54.8316 41.9649 52.3212C42.0972 51.7927 42.1633 51.2973 41.6673 50.9339C41.6011 50.9009 41.5681 50.8018 41.535 50.7358C41.0059 49.8769 41.1382 48.7209 41.8657 48.1263C42.4609 47.6308 43.2876 47.5978 43.8498 48.0933C44.5773 48.6878 44.8419 49.976 44.1474 50.7027C43.4199 51.4955 43.453 52.3543 43.453 53.2461C43.453 56.5492 43.453 59.8854 43.453 63.1885C43.453 63.4527 43.453 63.717 43.453 63.8491Z" fill="#C39730"/>
<path d="M47.9492 42.9734C55.8527 39.6043 64.0537 39.8685 72.3209 41.2558C64.1199 40.7273 56.018 41.2889 47.9492 42.9734Z" fill="#C39730"/>
<path d="M46.8249 44.625C46.2296 45.2856 45.6675 45.9462 45.0391 46.5408C44.8738 46.706 44.5431 46.739 44.3116 46.6729C44.1132 46.6399 43.8487 46.4087 43.8156 46.2435C43.7164 45.4508 43.6833 44.658 43.6172 43.7332C44.7746 44.0635 45.8328 44.3277 46.8249 44.625Z" fill="#C39730"/>
<path d="M88.8221 115.444C88.4583 115.047 88.293 114.486 88.293 113.792V109.102C88.293 108.375 88.4583 107.813 88.8221 107.45C89.1858 107.054 89.7149 106.856 90.3763 106.856C91.0707 106.856 91.5668 107.054 91.9305 107.45C92.2943 107.846 92.4596 108.408 92.4596 109.102V109.861H91.1369V109.003C91.1369 108.408 90.9054 108.111 90.4094 108.111C89.9133 108.111 89.6819 108.408 89.6819 109.003V113.891C89.6819 114.486 89.9133 114.75 90.4094 114.75C90.9054 114.75 91.1369 114.453 91.1369 113.891V112.141H90.4424V110.852H92.4596V113.792C92.4596 114.519 92.2943 115.08 91.9305 115.444C91.5668 115.84 91.0377 116.038 90.3763 116.038C89.6819 116.038 89.1858 115.84 88.8221 115.444Z" fill="#C39730"/>
<path d="M93.7167 106.955H95.8C96.5275 106.955 97.0566 107.12 97.3873 107.45C97.718 107.78 97.8833 108.309 97.8833 109.003V109.564C97.8833 110.489 97.5857 111.084 96.9574 111.315V111.348C97.2881 111.447 97.5526 111.645 97.6849 111.975C97.8172 112.306 97.8833 112.702 97.8833 113.231V114.816C97.8833 115.08 97.8833 115.278 97.9164 115.444C97.9495 115.609 97.9825 115.741 98.0487 115.906H96.6267C96.5606 115.774 96.5275 115.609 96.5275 115.51C96.4944 115.378 96.4944 115.146 96.4944 114.816V113.198C96.4944 112.801 96.4283 112.504 96.296 112.339C96.1638 112.174 95.9323 112.108 95.6016 112.108H95.1056V115.939H93.6836V106.955H93.7167ZM95.6347 110.786C95.9323 110.786 96.1307 110.72 96.263 110.555C96.3952 110.423 96.4614 110.159 96.4614 109.828V109.135C96.4614 108.804 96.3952 108.573 96.296 108.441C96.1968 108.309 95.9984 108.21 95.7669 108.21H95.1386V110.753H95.6347V110.786Z" fill="#C39730"/>
<path d="M99.6364 115.444C99.2726 115.047 99.0742 114.486 99.0742 113.792V109.102C99.0742 108.375 99.2726 107.846 99.6364 107.45C100 107.054 100.529 106.856 101.224 106.856C101.918 106.856 102.447 107.054 102.811 107.45C103.175 107.846 103.373 108.408 103.373 109.102V113.792C103.373 114.519 103.175 115.047 102.811 115.444C102.447 115.84 101.918 116.038 101.224 116.038C100.529 116.038 100 115.84 99.6364 115.444ZM101.951 113.858V108.97C101.951 108.375 101.72 108.078 101.224 108.078C100.728 108.078 100.496 108.375 100.496 108.97V113.858C100.496 114.453 100.728 114.75 101.224 114.75C101.72 114.75 101.951 114.453 101.951 113.858Z" fill="#C39730"/>
<path d="M105.092 115.444C104.728 115.047 104.562 114.486 104.562 113.792V106.955H105.984V113.891C105.984 114.188 106.051 114.42 106.183 114.552C106.315 114.684 106.48 114.75 106.712 114.75C106.943 114.75 107.109 114.684 107.241 114.552C107.373 114.42 107.439 114.188 107.439 113.891V106.955H108.795V113.792C108.795 114.519 108.63 115.08 108.266 115.444C107.902 115.84 107.373 116.038 106.712 116.038C105.984 116.038 105.455 115.84 105.092 115.444Z" fill="#C39730"/>
<path d="M110.086 106.955H112.169C112.864 106.955 113.393 107.153 113.757 107.516C114.12 107.88 114.286 108.441 114.286 109.168V110.06C114.286 110.786 114.12 111.348 113.757 111.711C113.393 112.074 112.897 112.273 112.169 112.273H111.508V115.906H110.086V106.955ZM112.136 110.984C112.368 110.984 112.533 110.918 112.665 110.786C112.765 110.654 112.831 110.456 112.831 110.126V109.069C112.831 108.771 112.765 108.54 112.665 108.408C112.566 108.276 112.368 108.21 112.136 108.21H111.475V110.951H112.136V110.984Z" fill="#C39730"/>
</svg>
