<svg width="20" height="21" viewBox="0 0 20 21" fill="none" xmlns="http://www.w3.org/2000/svg">
<path d="M5.39902 2.5554C5.85715 3.10165 7.8859 6.3054 7.79277 6.8379C7.7484 7.0879 7.53527 7.27915 6.92465 7.79102C6.6241 8.02774 6.3426 8.28771 6.08277 8.56852C6.20706 9.08303 6.39167 9.58106 6.63277 10.0523C7.53246 11.9002 9.02581 13.3931 10.874 14.2923C11.3452 14.5334 11.8433 14.718 12.3578 14.8423C12.6386 14.5824 12.8986 14.301 13.1353 14.0004C13.6471 13.3904 13.8371 13.1766 14.0884 13.1323C14.6221 13.0391 17.8246 15.0698 18.3709 15.526C18.5971 15.7173 18.749 15.891 18.749 16.1135C18.749 16.7585 15.1415 19.676 14.674 19.676C14.6359 19.676 10.8803 19.6135 6.05465 14.8704C1.31152 10.0448 1.24902 6.28915 1.24902 6.25102C1.24902 5.78352 4.16652 2.17602 4.81152 2.17602C5.03402 2.17602 5.20777 2.3279 5.39902 2.5554Z" fill="#C39730"/>
<path d="M10.6245 6.55145L10.6245 5.30145C11.9501 5.30294 13.221 5.8302 14.1584 6.76756C15.0958 7.70492 15.623 8.97583 15.6245 10.3015L14.3745 10.3015C14.3735 9.3072 13.9781 8.35394 13.2751 7.6509C12.572 6.94785 11.6188 6.55245 10.6245 6.55145Z" fill="#C39730"/>
<path d="M10.624 3.42639L10.624 2.17639C12.7781 2.17887 14.8433 3.03569 16.3665 4.55889C17.8897 6.08208 18.7465 8.14727 18.749 10.3014L17.499 10.3014C17.4969 8.47869 16.7719 6.73125 15.483 5.44241C14.1942 4.15356 12.4467 3.42854 10.624 3.42639Z" fill="#C39730"/>
</svg>
