<svg width="31" height="30" viewBox="0 0 31 30" fill="none" xmlns="http://www.w3.org/2000/svg">
<path d="M8.61937 2.6424C9.30161 3.45586 12.3228 8.22684 12.1841 9.01983C12.118 9.39213 11.8006 9.67694 10.8913 10.4392C10.4437 10.7917 10.0245 11.1789 9.6376 11.5971C9.82269 12.3633 10.0976 13.1049 10.4567 13.8066C11.7965 16.5586 14.0203 18.7818 16.7727 20.1208C17.4744 20.4798 18.216 20.7547 18.9822 20.9398C19.4004 20.5529 19.7876 20.1337 20.1401 19.6861C20.9024 18.7777 21.1853 18.4594 21.5595 18.3933C22.3543 18.2546 27.1234 21.2786 27.9369 21.9581C28.2738 22.2429 28.5 22.5016 28.5 22.833C28.5 23.7935 23.1278 28.1382 22.4316 28.1382C22.3748 28.1382 16.782 28.0451 9.59572 20.9817C2.53233 13.7955 2.43925 8.20265 2.43925 8.14587C2.43925 7.44968 6.78395 2.07744 7.74448 2.07744C8.07582 2.07744 8.33457 2.30361 8.61937 2.6424Z" fill="white"/>
<path d="M16.4017 8.59335L16.4017 6.73187C18.3758 6.73409 20.2684 7.51928 21.6643 8.91518C23.0602 10.3111 23.8454 12.2037 23.8477 14.1778L21.9862 14.1778C21.9847 12.6972 21.3959 11.2776 20.3489 10.2306C19.3019 9.18366 17.8824 8.59483 16.4017 8.59335Z" fill="white"/>
<path d="M16.4004 3.93958L16.4004 2.0781C19.6083 2.0818 22.6837 3.35776 24.952 5.62608C27.2203 7.8944 28.4963 10.9698 28.5 14.1777L26.6385 14.1777C26.6353 11.4634 25.5556 8.86114 23.6363 6.94181C21.717 5.02247 19.1147 3.94279 16.4004 3.93958Z" fill="white"/>
</svg>
