<svg width="18" height="19" viewBox="0 0 18 19" fill="none" xmlns="http://www.w3.org/2000/svg">
<g clip-path="url(#clip0_530_2491)">
<path d="M16.0418 5.43988C15.0659 5.43988 14.1655 5.09957 13.4424 4.52547C12.6131 3.86734 12.0173 2.90195 11.8069 1.78926C11.7548 1.51433 11.7267 1.23062 11.724 0.93988H8.93627V8.95832L8.93293 13.3504C8.93293 14.5246 8.20651 15.5202 7.19955 15.8704C6.90731 15.972 6.5917 16.0202 6.26306 16.0012C5.84357 15.9769 5.45047 15.8437 5.10881 15.6285C4.38172 15.1708 3.88876 14.3404 3.8754 13.3905C3.85436 11.9058 4.99458 10.6954 6.404 10.6954C6.68221 10.6954 6.94939 10.7432 7.19955 10.83V8.63839V7.85054C6.9357 7.80941 6.66718 7.78797 6.39565 7.78797C4.85297 7.78797 3.41016 8.46297 2.37882 9.67902C1.5993 10.598 1.13172 11.7705 1.05958 12.9999C0.965062 14.615 1.52649 16.1502 2.61528 17.283C2.77526 17.4493 2.94325 17.6036 3.11893 17.746C4.05241 18.5022 5.19364 18.9121 6.39565 18.9121C6.66718 18.9121 6.9357 18.891 7.19955 18.8499C8.3224 18.6748 9.35842 18.1337 10.176 17.283C11.1806 16.2378 11.7357 14.8502 11.7417 13.3732L11.7274 6.81449C12.2066 7.20367 12.7307 7.5257 13.2931 7.77566C14.1678 8.16414 15.0953 8.36101 16.0498 8.36066V6.22984V5.43918C16.0505 5.43988 16.0425 5.43988 16.0418 5.43988Z" fill="black"/>
</g>
<defs>
<clipPath id="clip0_530_2491">
<rect width="17.1" height="18" fill="white" transform="translate(0 0.926208)"/>
</clipPath>
</defs>
</svg>
