<svg width="27" height="27" viewBox="0 0 27 27" fill="none" xmlns="http://www.w3.org/2000/svg">
<path d="M22.4247 4.72857C20.2833 2.57492 17.4382 1.25359 14.4031 1.00315C11.3679 0.752707 8.34272 1.58965 5.87369 3.36287C3.40466 5.1361 1.65449 7.72875 0.939156 10.6727C0.223824 13.6167 0.590474 16.718 1.97291 19.4168L0.618485 25.9561C0.603983 26.0214 0.603421 26.089 0.616836 26.1545C0.63025 26.2201 0.657343 26.2821 0.696364 26.3366C0.752245 26.4191 0.832124 26.4826 0.925312 26.5187C1.0185 26.5548 1.12055 26.5618 1.21782 26.5386L7.65133 25.02C10.3576 26.3587 13.4538 26.699 16.3888 25.9803C19.3238 25.2616 21.9071 23.5306 23.6789 21.0953C25.4507 18.6599 26.2961 15.6784 26.0646 12.6813C25.8331 9.68428 24.5396 6.86615 22.4145 4.72857H22.4247ZM20.4134 20.6795C18.9324 22.1497 17.0253 23.1213 14.9603 23.4577C12.8952 23.7941 10.7761 23.4785 8.90078 22.5551L8.00009 22.1106L4.04856 23.04V22.9895L4.88153 19.0261L4.44134 18.1641C3.48249 16.2942 3.14393 14.1702 3.47425 12.097C3.80457 10.0238 4.78679 8.10796 6.27997 6.62436C8.15486 4.7618 10.6966 3.71559 13.3467 3.71559C15.9968 3.71559 18.5385 4.7618 20.4134 6.62436L20.4574 6.68497C22.3079 8.55345 23.3409 11.0735 23.3314 13.696C23.3219 16.3185 22.2706 18.8311 20.4066 20.6862L20.4134 20.6795Z" fill="white"/>
<path d="M20.0665 17.7969C19.5823 18.5546 18.8137 19.4806 17.8554 19.7129C16.1624 20.117 13.5856 19.7129 10.3587 16.7463L10.3181 16.7093C7.51104 14.103 6.7661 11.9311 6.93202 10.2104C7.03022 9.23051 7.84964 8.34828 8.5404 7.7691C8.65022 7.67701 8.78019 7.61174 8.9199 7.57852C9.05962 7.5453 9.20521 7.54503 9.34505 7.57775C9.48488 7.61047 9.61508 7.67527 9.72524 7.76696C9.8354 7.85865 9.92246 7.9747 9.97947 8.10583L11.019 10.4427C11.0869 10.5932 11.1123 10.7591 11.0926 10.9228C11.0729 11.0865 11.0089 11.2418 10.9073 11.3721L10.379 12.0456C10.2692 12.1854 10.2038 12.3545 10.1912 12.5315C10.1785 12.7084 10.2191 12.8851 10.3079 13.0389C10.8097 13.7744 11.41 14.4382 12.0924 15.0122C12.8265 15.7148 13.6591 16.308 14.5642 16.7733C14.7294 16.8395 14.9107 16.8553 15.0849 16.8187C15.2592 16.7821 15.4186 16.6948 15.5428 16.5679L16.1489 15.955C16.2642 15.8317 16.4116 15.7425 16.5748 15.6973C16.7379 15.6522 16.9104 15.6528 17.0733 15.6991L19.5451 16.4029C19.6852 16.4425 19.8139 16.5144 19.9208 16.6127C20.0278 16.7109 20.11 16.8329 20.1607 16.9686C20.2115 17.1043 20.2294 17.2501 20.2131 17.394C20.1967 17.5379 20.1465 17.6759 20.0665 17.7969Z" fill="white"/>
</svg>
