<svg width="26" height="27" viewBox="0 0 26 27" fill="none" xmlns="http://www.w3.org/2000/svg">
<path fill-rule="evenodd" clip-rule="evenodd" d="M22.2129 4.27867C19.7681 1.84333 16.5176 0.501083 13.055 0.5C5.91953 0.5 0.112121 6.2785 0.108855 13.383C0.107766 15.6537 0.704291 17.8702 1.83747 19.8245L0 26.5L6.86221 24.7082C8.75302 25.7352 10.8822 26.2758 13.0484 26.2768H13.0539C20.1882 26.2768 25.9967 20.4973 26 13.3928C26.0022 9.951 24.6567 6.71292 22.2129 4.27867ZM13.055 24.1004H13.0506C11.1195 24.1004 9.22654 23.5837 7.57413 22.6076L7.18116 22.3758L3.1089 23.4385L4.19636 19.4865L3.94055 19.0813C2.86288 17.3762 2.29466 15.4056 2.29575 13.383C2.29793 7.47883 7.12564 2.67533 13.0604 2.67533C15.9342 2.67533 18.636 3.79117 20.6672 5.81483C22.6984 7.83958 23.8164 10.5295 23.8153 13.3906C23.812 19.2969 18.9854 24.1004 13.055 24.1004ZM18.9571 16.0805C18.6338 15.9191 17.0434 15.1402 16.7462 15.0329C16.4502 14.9257 16.2346 14.8715 16.018 15.1933C15.8014 15.515 15.1831 16.2408 14.9937 16.4564C14.8054 16.6709 14.616 16.698 14.2927 16.5366C13.9694 16.3752 12.9265 16.0361 11.691 14.9387C10.7298 14.085 10.08 13.0309 9.89165 12.7081C9.70333 12.3853 9.87205 12.2119 10.0332 12.0516C10.179 11.9075 10.3565 11.6757 10.5187 11.4872C10.6819 11.3008 10.7353 11.1665 10.8441 10.9509C10.9519 10.7364 10.8986 10.5479 10.8169 10.3865C10.7353 10.2262 10.0887 8.64125 9.8198 7.99667C9.55746 7.36833 9.29077 7.45392 9.09156 7.44417C8.90324 7.43442 8.68771 7.43333 8.47109 7.43333C8.25556 7.43333 7.90504 7.5135 7.60896 7.83633C7.31287 8.15917 6.47687 8.93808 6.47687 10.5219C6.47687 12.1068 7.63617 13.6376 7.79728 13.8521C7.95838 14.0666 10.0778 17.3188 13.3228 18.713C14.0945 19.0445 14.6976 19.2428 15.1668 19.3912C15.9418 19.636 16.6472 19.6013 17.2045 19.519C17.8261 19.4269 19.1182 18.7401 19.3882 17.9883C19.6581 17.2364 19.6581 16.5907 19.5765 16.4575C19.4959 16.3221 19.2804 16.2419 18.9571 16.0805Z" fill="#098C21"/>
</svg>
