<svg width="89" height="89" viewBox="0 0 89 89" fill="none" xmlns="http://www.w3.org/2000/svg">
<mask id="path-1-outside-1_397_2432" maskUnits="userSpaceOnUse" x="8.48438" y="11.5852" width="72" height="66" fill="black">
<rect fill="white" x="8.48438" y="11.5852" width="72" height="66"/>
<path d="M26.3109 41.8022H29.1617C33.9872 41.8022 37.9088 37.8807 37.9088 33.0552V24.4472C37.9088 19.6218 33.9872 15.7002 29.1617 15.7002H26.3109C21.4855 15.7002 17.5639 19.6218 17.5639 24.4472V33.0552C17.5639 37.8807 21.4855 41.8022 26.3109 41.8022ZM26.3109 17.1047H29.1617C33.2223 17.1047 36.5181 20.4005 36.5181 24.4611V27.7847L34.5156 24.6975C34.2792 24.3221 33.6952 24.2665 33.417 24.6141C31.3033 26.9643 24.1555 26.9504 22.0695 24.6141C21.7775 24.2665 21.1934 24.3221 20.9709 24.6975L18.9684 27.7847V24.4611C18.9684 20.4005 22.2642 17.1047 26.3248 17.1047H26.3109ZM18.9545 30.3435L21.6941 26.116C24.2806 28.2993 31.192 28.2993 33.7647 26.116L36.5042 30.3435V33.0691C36.5042 37.1297 33.2084 40.4255 29.1478 40.4255H26.297C22.2364 40.4255 18.9406 37.1297 18.9406 33.0691V30.3435H18.9545ZM34.5713 42.7618C34.0845 42.7618 21.402 42.7618 20.9014 42.7618C14.6019 42.7618 9.48438 47.8793 9.48438 54.1788V75.7335C9.48438 76.1229 9.79031 76.4288 10.1797 76.4288H45.2652C45.6545 76.4288 45.9605 76.1229 45.9605 75.7335V54.1788C45.9605 47.8793 40.843 42.7618 34.5573 42.7618H34.5713ZM32.9998 44.1524L27.7433 57.266L22.4867 44.1524H33.0138H32.9998ZM44.5838 75.0243H38.2147V60.3671C38.2147 59.9777 37.9088 59.6718 37.5194 59.6718C37.13 59.6718 36.8241 59.9777 36.8241 60.3671V75.0243H18.6486V60.3671C18.6486 59.9777 18.3427 59.6718 17.9533 59.6718C17.5639 59.6718 17.258 59.9777 17.258 60.3671V75.0243H10.8889V54.1649C10.8889 48.6163 15.4223 44.1107 20.9709 44.1385L27.0758 59.3797C27.187 59.644 27.4513 59.8108 27.7294 59.8108C28.0075 59.8108 28.2717 59.644 28.3691 59.3797L34.4739 44.1385C40.0225 44.0968 44.5698 48.6024 44.5559 54.1649V75.0243H44.5838ZM65.61 47.5594C69.4481 47.5594 72.577 44.4305 72.577 40.5924V33.8896C72.577 30.0515 69.4481 26.9226 65.61 26.9226H63.385C59.5469 26.9226 56.418 30.0515 56.418 33.8896V40.5924C56.418 44.4305 59.5469 47.5594 63.385 47.5594H65.61ZM63.3989 28.2993H65.6239C68.6972 28.2993 71.2003 30.8024 71.2003 33.8757V35.9477L69.9209 33.973C69.6845 33.5976 69.1144 33.5558 68.8223 33.8896C67.2509 35.6557 61.758 35.6418 60.2005 33.8896C59.9084 33.5419 59.3244 33.5976 59.1019 33.973L57.8225 35.9477V33.8757C57.8225 30.8024 60.3256 28.2993 63.3989 28.2993ZM57.8086 40.5924V38.5204L59.8389 35.3915C60.6316 35.9199 62.1334 36.6291 64.4975 36.6291C66.8616 36.6291 68.3773 35.9199 69.1561 35.3915L71.1864 38.5204V40.5924C71.1864 43.6657 68.6833 46.1688 65.61 46.1688H63.385C60.3117 46.1688 57.8086 43.6657 57.8086 40.5924ZM69.8375 47.9905C69.4759 47.9905 59.5608 47.9905 59.1853 47.9905C54.193 47.9905 50.1323 52.0511 50.1323 57.0435V73.8422C50.1323 74.2316 50.4383 74.5376 50.8277 74.5376H78.1813C78.5706 74.5376 78.8766 74.2316 78.8766 73.8422V57.0435C78.8766 52.0511 74.8159 47.9905 69.8375 47.9905ZM68.3773 49.3811L64.4975 59.046L60.6177 49.3811H68.3773ZM77.4859 73.1469H72.8273V61.869C72.8273 61.4796 72.5214 61.1736 72.132 61.1736C71.7427 61.1736 71.4367 61.4796 71.4367 61.869V73.1469H57.5722V61.869C57.5722 61.4796 57.2663 61.1736 56.8769 61.1736C56.4875 61.1736 56.1816 61.4796 56.1816 61.869V73.1469H51.523V57.0435C51.523 52.8299 54.93 49.409 59.1297 49.3811L63.8578 61.1597C63.9691 61.424 64.2333 61.5908 64.5114 61.5908C64.7895 61.5908 65.0537 61.424 65.1511 61.1597L69.8792 49.3811C74.0789 49.409 77.4859 52.8299 77.4859 57.0435V73.1469ZM76.3734 12.5852H43.2766C41.5522 12.5852 40.1477 13.9897 40.1477 15.7141V22.0971C40.1477 23.585 41.1906 24.8227 42.5813 25.1425V30.6633C42.5813 30.9415 42.7481 31.2057 43.0123 31.303C43.2766 31.4143 43.5686 31.3447 43.7772 31.15L49.6595 25.226H76.3734C78.0978 25.226 79.5023 23.8215 79.5023 22.0971V15.7141C79.5023 13.9897 78.0978 12.5852 76.3734 12.5852ZM78.1117 22.0971C78.1117 23.0566 77.333 23.8354 76.3734 23.8354H49.3675C49.1728 23.8354 48.992 23.9188 48.8669 24.044L43.9719 28.9807V24.5446C43.9719 24.1552 43.6659 23.8493 43.2766 23.8493C42.317 23.8493 41.5383 23.0705 41.5383 22.111V15.728C41.5383 14.7685 42.317 13.9897 43.2766 13.9897H76.3734C77.333 13.9897 78.1117 14.7685 78.1117 15.728V22.111V22.0971ZM47.212 16.1452C43.5686 16.2425 43.5686 21.5686 47.212 21.666C50.8555 21.5686 50.8555 16.2425 47.212 16.1452ZM47.212 20.2754C45.4181 20.2475 45.4181 17.5636 47.212 17.5358C49.0059 17.5636 49.0059 20.2475 47.212 20.2754ZM74.9272 17.8557H53.1361C52.2183 17.8557 52.2322 16.465 53.1361 16.465H74.9272C75.845 16.465 75.8311 17.8557 74.9272 17.8557ZM74.9272 20.8733H53.1361C52.2183 20.8733 52.2322 19.4827 53.1361 19.4827H74.9272C75.845 19.4827 75.8311 20.8733 74.9272 20.8733Z"/>
</mask>
<path d="M26.3109 41.8022H29.1617C33.9872 41.8022 37.9088 37.8807 37.9088 33.0552V24.4472C37.9088 19.6218 33.9872 15.7002 29.1617 15.7002H26.3109C21.4855 15.7002 17.5639 19.6218 17.5639 24.4472V33.0552C17.5639 37.8807 21.4855 41.8022 26.3109 41.8022ZM26.3109 17.1047H29.1617C33.2223 17.1047 36.5181 20.4005 36.5181 24.4611V27.7847L34.5156 24.6975C34.2792 24.3221 33.6952 24.2665 33.417 24.6141C31.3033 26.9643 24.1555 26.9504 22.0695 24.6141C21.7775 24.2665 21.1934 24.3221 20.9709 24.6975L18.9684 27.7847V24.4611C18.9684 20.4005 22.2642 17.1047 26.3248 17.1047H26.3109ZM18.9545 30.3435L21.6941 26.116C24.2806 28.2993 31.192 28.2993 33.7647 26.116L36.5042 30.3435V33.0691C36.5042 37.1297 33.2084 40.4255 29.1478 40.4255H26.297C22.2364 40.4255 18.9406 37.1297 18.9406 33.0691V30.3435H18.9545ZM34.5713 42.7618C34.0845 42.7618 21.402 42.7618 20.9014 42.7618C14.6019 42.7618 9.48438 47.8793 9.48438 54.1788V75.7335C9.48438 76.1229 9.79031 76.4288 10.1797 76.4288H45.2652C45.6545 76.4288 45.9605 76.1229 45.9605 75.7335V54.1788C45.9605 47.8793 40.843 42.7618 34.5573 42.7618H34.5713ZM32.9998 44.1524L27.7433 57.266L22.4867 44.1524H33.0138H32.9998ZM44.5838 75.0243H38.2147V60.3671C38.2147 59.9777 37.9088 59.6718 37.5194 59.6718C37.13 59.6718 36.8241 59.9777 36.8241 60.3671V75.0243H18.6486V60.3671C18.6486 59.9777 18.3427 59.6718 17.9533 59.6718C17.5639 59.6718 17.258 59.9777 17.258 60.3671V75.0243H10.8889V54.1649C10.8889 48.6163 15.4223 44.1107 20.9709 44.1385L27.0758 59.3797C27.187 59.644 27.4513 59.8108 27.7294 59.8108C28.0075 59.8108 28.2717 59.644 28.3691 59.3797L34.4739 44.1385C40.0225 44.0968 44.5698 48.6024 44.5559 54.1649V75.0243H44.5838ZM65.61 47.5594C69.4481 47.5594 72.577 44.4305 72.577 40.5924V33.8896C72.577 30.0515 69.4481 26.9226 65.61 26.9226H63.385C59.5469 26.9226 56.418 30.0515 56.418 33.8896V40.5924C56.418 44.4305 59.5469 47.5594 63.385 47.5594H65.61ZM63.3989 28.2993H65.6239C68.6972 28.2993 71.2003 30.8024 71.2003 33.8757V35.9477L69.9209 33.973C69.6845 33.5976 69.1144 33.5558 68.8223 33.8896C67.2509 35.6557 61.758 35.6418 60.2005 33.8896C59.9084 33.5419 59.3244 33.5976 59.1019 33.973L57.8225 35.9477V33.8757C57.8225 30.8024 60.3256 28.2993 63.3989 28.2993ZM57.8086 40.5924V38.5204L59.8389 35.3915C60.6316 35.9199 62.1334 36.6291 64.4975 36.6291C66.8616 36.6291 68.3773 35.9199 69.1561 35.3915L71.1864 38.5204V40.5924C71.1864 43.6657 68.6833 46.1688 65.61 46.1688H63.385C60.3117 46.1688 57.8086 43.6657 57.8086 40.5924ZM69.8375 47.9905C69.4759 47.9905 59.5608 47.9905 59.1853 47.9905C54.193 47.9905 50.1323 52.0511 50.1323 57.0435V73.8422C50.1323 74.2316 50.4383 74.5376 50.8277 74.5376H78.1813C78.5706 74.5376 78.8766 74.2316 78.8766 73.8422V57.0435C78.8766 52.0511 74.8159 47.9905 69.8375 47.9905ZM68.3773 49.3811L64.4975 59.046L60.6177 49.3811H68.3773ZM77.4859 73.1469H72.8273V61.869C72.8273 61.4796 72.5214 61.1736 72.132 61.1736C71.7427 61.1736 71.4367 61.4796 71.4367 61.869V73.1469H57.5722V61.869C57.5722 61.4796 57.2663 61.1736 56.8769 61.1736C56.4875 61.1736 56.1816 61.4796 56.1816 61.869V73.1469H51.523V57.0435C51.523 52.8299 54.93 49.409 59.1297 49.3811L63.8578 61.1597C63.9691 61.424 64.2333 61.5908 64.5114 61.5908C64.7895 61.5908 65.0537 61.424 65.1511 61.1597L69.8792 49.3811C74.0789 49.409 77.4859 52.8299 77.4859 57.0435V73.1469ZM76.3734 12.5852H43.2766C41.5522 12.5852 40.1477 13.9897 40.1477 15.7141V22.0971C40.1477 23.585 41.1906 24.8227 42.5813 25.1425V30.6633C42.5813 30.9415 42.7481 31.2057 43.0123 31.303C43.2766 31.4143 43.5686 31.3447 43.7772 31.15L49.6595 25.226H76.3734C78.0978 25.226 79.5023 23.8215 79.5023 22.0971V15.7141C79.5023 13.9897 78.0978 12.5852 76.3734 12.5852ZM78.1117 22.0971C78.1117 23.0566 77.333 23.8354 76.3734 23.8354H49.3675C49.1728 23.8354 48.992 23.9188 48.8669 24.044L43.9719 28.9807V24.5446C43.9719 24.1552 43.6659 23.8493 43.2766 23.8493C42.317 23.8493 41.5383 23.0705 41.5383 22.111V15.728C41.5383 14.7685 42.317 13.9897 43.2766 13.9897H76.3734C77.333 13.9897 78.1117 14.7685 78.1117 15.728V22.111V22.0971ZM47.212 16.1452C43.5686 16.2425 43.5686 21.5686 47.212 21.666C50.8555 21.5686 50.8555 16.2425 47.212 16.1452ZM47.212 20.2754C45.4181 20.2475 45.4181 17.5636 47.212 17.5358C49.0059 17.5636 49.0059 20.2475 47.212 20.2754ZM74.9272 17.8557H53.1361C52.2183 17.8557 52.2322 16.465 53.1361 16.465H74.9272C75.845 16.465 75.8311 17.8557 74.9272 17.8557ZM74.9272 20.8733H53.1361C52.2183 20.8733 52.2322 19.4827 53.1361 19.4827H74.9272C75.845 19.4827 75.8311 20.8733 74.9272 20.8733Z" fill="white"/>
<path d="M26.3109 41.8022H29.1617C33.9872 41.8022 37.9088 37.8807 37.9088 33.0552V24.4472C37.9088 19.6218 33.9872 15.7002 29.1617 15.7002H26.3109C21.4855 15.7002 17.5639 19.6218 17.5639 24.4472V33.0552C17.5639 37.8807 21.4855 41.8022 26.3109 41.8022ZM26.3109 17.1047H29.1617C33.2223 17.1047 36.5181 20.4005 36.5181 24.4611V27.7847L34.5156 24.6975C34.2792 24.3221 33.6952 24.2665 33.417 24.6141C31.3033 26.9643 24.1555 26.9504 22.0695 24.6141C21.7775 24.2665 21.1934 24.3221 20.9709 24.6975L18.9684 27.7847V24.4611C18.9684 20.4005 22.2642 17.1047 26.3248 17.1047H26.3109ZM18.9545 30.3435L21.6941 26.116C24.2806 28.2993 31.192 28.2993 33.7647 26.116L36.5042 30.3435V33.0691C36.5042 37.1297 33.2084 40.4255 29.1478 40.4255H26.297C22.2364 40.4255 18.9406 37.1297 18.9406 33.0691V30.3435H18.9545ZM34.5713 42.7618C34.0845 42.7618 21.402 42.7618 20.9014 42.7618C14.6019 42.7618 9.48438 47.8793 9.48438 54.1788V75.7335C9.48438 76.1229 9.79031 76.4288 10.1797 76.4288H45.2652C45.6545 76.4288 45.9605 76.1229 45.9605 75.7335V54.1788C45.9605 47.8793 40.843 42.7618 34.5573 42.7618H34.5713ZM32.9998 44.1524L27.7433 57.266L22.4867 44.1524H33.0138H32.9998ZM44.5838 75.0243H38.2147V60.3671C38.2147 59.9777 37.9088 59.6718 37.5194 59.6718C37.13 59.6718 36.8241 59.9777 36.8241 60.3671V75.0243H18.6486V60.3671C18.6486 59.9777 18.3427 59.6718 17.9533 59.6718C17.5639 59.6718 17.258 59.9777 17.258 60.3671V75.0243H10.8889V54.1649C10.8889 48.6163 15.4223 44.1107 20.9709 44.1385L27.0758 59.3797C27.187 59.644 27.4513 59.8108 27.7294 59.8108C28.0075 59.8108 28.2717 59.644 28.3691 59.3797L34.4739 44.1385C40.0225 44.0968 44.5698 48.6024 44.5559 54.1649V75.0243H44.5838ZM65.61 47.5594C69.4481 47.5594 72.577 44.4305 72.577 40.5924V33.8896C72.577 30.0515 69.4481 26.9226 65.61 26.9226H63.385C59.5469 26.9226 56.418 30.0515 56.418 33.8896V40.5924C56.418 44.4305 59.5469 47.5594 63.385 47.5594H65.61ZM63.3989 28.2993H65.6239C68.6972 28.2993 71.2003 30.8024 71.2003 33.8757V35.9477L69.9209 33.973C69.6845 33.5976 69.1144 33.5558 68.8223 33.8896C67.2509 35.6557 61.758 35.6418 60.2005 33.8896C59.9084 33.5419 59.3244 33.5976 59.1019 33.973L57.8225 35.9477V33.8757C57.8225 30.8024 60.3256 28.2993 63.3989 28.2993ZM57.8086 40.5924V38.5204L59.8389 35.3915C60.6316 35.9199 62.1334 36.6291 64.4975 36.6291C66.8616 36.6291 68.3773 35.9199 69.1561 35.3915L71.1864 38.5204V40.5924C71.1864 43.6657 68.6833 46.1688 65.61 46.1688H63.385C60.3117 46.1688 57.8086 43.6657 57.8086 40.5924ZM69.8375 47.9905C69.4759 47.9905 59.5608 47.9905 59.1853 47.9905C54.193 47.9905 50.1323 52.0511 50.1323 57.0435V73.8422C50.1323 74.2316 50.4383 74.5376 50.8277 74.5376H78.1813C78.5706 74.5376 78.8766 74.2316 78.8766 73.8422V57.0435C78.8766 52.0511 74.8159 47.9905 69.8375 47.9905ZM68.3773 49.3811L64.4975 59.046L60.6177 49.3811H68.3773ZM77.4859 73.1469H72.8273V61.869C72.8273 61.4796 72.5214 61.1736 72.132 61.1736C71.7427 61.1736 71.4367 61.4796 71.4367 61.869V73.1469H57.5722V61.869C57.5722 61.4796 57.2663 61.1736 56.8769 61.1736C56.4875 61.1736 56.1816 61.4796 56.1816 61.869V73.1469H51.523V57.0435C51.523 52.8299 54.93 49.409 59.1297 49.3811L63.8578 61.1597C63.9691 61.424 64.2333 61.5908 64.5114 61.5908C64.7895 61.5908 65.0537 61.424 65.1511 61.1597L69.8792 49.3811C74.0789 49.409 77.4859 52.8299 77.4859 57.0435V73.1469ZM76.3734 12.5852H43.2766C41.5522 12.5852 40.1477 13.9897 40.1477 15.7141V22.0971C40.1477 23.585 41.1906 24.8227 42.5813 25.1425V30.6633C42.5813 30.9415 42.7481 31.2057 43.0123 31.303C43.2766 31.4143 43.5686 31.3447 43.7772 31.15L49.6595 25.226H76.3734C78.0978 25.226 79.5023 23.8215 79.5023 22.0971V15.7141C79.5023 13.9897 78.0978 12.5852 76.3734 12.5852ZM78.1117 22.0971C78.1117 23.0566 77.333 23.8354 76.3734 23.8354H49.3675C49.1728 23.8354 48.992 23.9188 48.8669 24.044L43.9719 28.9807V24.5446C43.9719 24.1552 43.6659 23.8493 43.2766 23.8493C42.317 23.8493 41.5383 23.0705 41.5383 22.111V15.728C41.5383 14.7685 42.317 13.9897 43.2766 13.9897H76.3734C77.333 13.9897 78.1117 14.7685 78.1117 15.728V22.111V22.0971ZM47.212 16.1452C43.5686 16.2425 43.5686 21.5686 47.212 21.666C50.8555 21.5686 50.8555 16.2425 47.212 16.1452ZM47.212 20.2754C45.4181 20.2475 45.4181 17.5636 47.212 17.5358C49.0059 17.5636 49.0059 20.2475 47.212 20.2754ZM74.9272 17.8557H53.1361C52.2183 17.8557 52.2322 16.465 53.1361 16.465H74.9272C75.845 16.465 75.8311 17.8557 74.9272 17.8557ZM74.9272 20.8733H53.1361C52.2183 20.8733 52.2322 19.4827 53.1361 19.4827H74.9272C75.845 19.4827 75.8311 20.8733 74.9272 20.8733Z" stroke="white" stroke-width="0.4" mask="url(#path-1-outside-1_397_2432)"/>
</svg>
