<svg width="17" height="18" viewBox="0 0 17 18" fill="none" xmlns="http://www.w3.org/2000/svg">
<path d="M14.5503 2.51063C13.1238 1.07599 11.2286 0.195804 9.20676 0.0289734C7.18492 -0.137857 5.16972 0.419665 3.525 1.60088C1.88027 2.7821 0.714408 4.50917 0.237896 6.47029C-0.238617 8.4314 0.00562384 10.4973 0.926521 12.295L0.0242834 16.6511C0.0146227 16.6947 0.0142484 16.7397 0.0231846 16.7834C0.0321208 16.827 0.0501686 16.8683 0.0761619 16.9046C0.113387 16.9596 0.166597 17.0019 0.228673 17.0259C0.29075 17.05 0.358732 17.0546 0.423524 17.0392L4.70915 16.0276C6.51194 16.9194 8.57444 17.146 10.5296 16.6673C12.4847 16.1886 14.2055 15.0354 15.3858 13.4132C16.5661 11.7909 17.1292 9.80478 16.975 7.80831C16.8208 5.81183 15.9592 3.93456 14.5435 2.51063H14.5503ZM13.2105 13.1362C12.2239 14.1156 10.9536 14.7628 9.57794 14.9869C8.20233 15.211 6.79068 15.0007 5.54147 14.3856L4.94148 14.0895L2.3092 14.7086V14.675L2.86408 12.0348L2.57085 11.4606C1.93211 10.2149 1.70659 8.80009 1.92663 7.41905C2.14667 6.03801 2.80097 4.76178 3.79564 3.7735C5.04457 2.53277 6.73772 1.83584 8.50306 1.83584C10.2684 1.83584 11.9616 2.53277 13.2105 3.7735L13.2398 3.81387C14.4725 5.05854 15.1607 6.73723 15.1543 8.48421C15.148 10.2312 14.4477 11.9049 13.206 13.1407L13.2105 13.1362Z" fill="#0BC349"/>
<path d="M12.9793 11.216C12.6568 11.7207 12.1448 12.3376 11.5064 12.4923C10.3786 12.7615 8.66214 12.4923 6.51256 10.5162L6.48549 10.4915C4.6156 8.75532 4.11937 7.30852 4.2299 6.1623C4.29531 5.50955 4.84116 4.92186 5.3013 4.53605C5.37446 4.4747 5.46104 4.43123 5.55411 4.40909C5.64718 4.38696 5.74416 4.38679 5.83731 4.40858C5.93046 4.43038 6.0172 4.47354 6.09058 4.53462C6.16396 4.5957 6.22196 4.67301 6.25993 4.76036L6.9524 6.31707C6.99761 6.41728 7.01456 6.52782 7.00145 6.63688C6.98834 6.74593 6.94565 6.84938 6.87796 6.93617L6.52609 7.38479C6.45296 7.47791 6.40939 7.5906 6.40095 7.70846C6.39251 7.82633 6.41959 7.94401 6.47872 8.0465C6.81296 8.53641 7.21289 8.97864 7.66742 9.36096C8.15647 9.829 8.71108 10.2241 9.31401 10.5341C9.42405 10.5782 9.5448 10.5887 9.66089 10.5644C9.77697 10.54 9.88314 10.4818 9.96587 10.3973L10.3696 9.98903C10.4464 9.90687 10.5446 9.84746 10.6533 9.81737C10.762 9.78728 10.8769 9.78769 10.9854 9.81855L12.632 10.2874C12.7253 10.3138 12.811 10.3616 12.8823 10.4271C12.9535 10.4926 13.0083 10.5738 13.0421 10.6642C13.0759 10.7546 13.0879 10.8517 13.077 10.9476C13.0661 11.0434 13.0326 11.1354 12.9793 11.216Z" fill="#0BC349"/>
</svg>
