<svg width="19" height="13" viewBox="0 0 19 13" fill="none" xmlns="http://www.w3.org/2000/svg">
<path d="M17.807 1.99194C17.5974 1.21306 16.9834 0.599107 16.2046 0.389371C14.7818 0 9.09064 0 9.09064 0C9.09064 0 3.39961 0 1.97682 0.374529C1.21306 0.584126 0.583987 1.2132 0.37439 1.99194C0 3.41459 0 6.36505 0 6.36505C0 6.36505 0 9.33034 0.37439 10.7382C0.584126 11.5169 1.19808 12.131 1.97696 12.3407C3.41459 12.7301 9.09078 12.7301 9.09078 12.7301C9.09078 12.7301 14.7818 12.7301 16.2046 12.3556C16.9835 12.146 17.5974 11.5319 17.8072 10.7531C18.1816 9.33034 18.1816 6.38003 18.1816 6.38003C18.1816 6.38003 18.1965 3.41459 17.807 1.99194Z" fill="#FF0000"/>
<path d="M7.27832 9.09079L12.0108 6.36505L7.27832 3.63931V9.09079Z" fill="white"/>
</svg>
